<svg version="1.1" xmlns="http://www.w3.org/2000/svg" viewBox="0 0 1180 348" width="1180" height="348">
  <!-- svg-source:excalidraw -->
  
  <defs>
    <style class="style-fonts">
      @font-face {
        font-family: "Virgil";
        src: url("https://excalidraw.com/Virgil.woff2");
      }
      @font-face {
        font-family: "Cascadia";
        src: url("https://excalidraw.com/Cascadia.woff2");
      }
      @font-face {
        font-family: "Assistant";
        src: url("https://excalidraw.com/Assistant-Regular.woff2");
      }
    </style>
    
  </defs>
  <rect x="0" y="0" width="1180" height="348" fill="#ffffff"></rect><g stroke-linecap="round" transform="translate(318 78) rotate(0 426 130)"><path d="M7.86 8.16 C7.86 8.16, 7.86 8.16, 7.86 8.16 M7.86 8.16 C7.86 8.16, 7.86 8.16, 7.86 8.16 M1.43 27.75 C7.73 20.74, 18.11 10.39, 24.4 1.33 M1.43 27.75 C6.98 20.45, 14.07 11.55, 24.4 1.33 M0.26 41.3 C10.96 27.62, 22.18 13.68, 36.34 -0.21 M0.26 41.3 C12 27.36, 22.86 13.36, 36.34 -0.21 M0.39 53.34 C12.96 37.8, 25.66 25.53, 46.97 -0.25 M0.39 53.34 C17.74 31.56, 36.03 10.38, 46.97 -0.25 M0.52 65.38 C23.28 39.99, 43.21 14.03, 57.6 -0.28 M0.52 65.38 C12.25 52.4, 23.81 38.48, 57.6 -0.28 M0.65 77.42 C20.8 49.87, 45.74 24.97, 67.57 0.44 M0.65 77.42 C16.92 60.19, 31.53 40.68, 67.57 0.44 M0.13 90.22 C23.5 66.5, 42.45 41.11, 78.2 0.41 M0.13 90.22 C24.06 62.19, 50.29 33.89, 78.2 0.41 M0.26 102.26 C29.44 68.64, 60.86 31.61, 88.83 0.37 M0.26 102.26 C35.29 63.05, 70.23 21.78, 88.83 0.37 M0.4 114.3 C26.07 84.51, 51.69 54.75, 99.46 0.34 M0.4 114.3 C22.57 91.65, 41.57 67.6, 99.46 0.34 M0.53 126.34 C28.44 91.54, 57.12 57.41, 110.09 0.3 M0.53 126.34 C45 76.92, 87.11 27.35, 110.09 0.3 M0.66 138.38 C35.63 97.86, 69.11 59.65, 120.72 0.27 M0.66 138.38 C44.66 88.46, 86.92 39.21, 120.72 0.27 M0.8 150.42 C30.08 116.35, 60.03 79.58, 131.35 0.23 M0.8 150.42 C30.08 115.61, 59.98 81.92, 131.35 0.23 M0.27 163.22 C37.05 121.94, 72.57 78.38, 141.98 0.2 M0.27 163.22 C36.11 117.97, 74.44 74.91, 141.98 0.2 M0.41 175.26 C55.32 108.83, 112.3 44.77, 152.61 0.16 M0.41 175.26 C40.3 131.43, 78.08 86.85, 152.61 0.16 M0.54 187.3 C57.1 121.67, 113 57.18, 163.24 0.13 M0.54 187.3 C51.82 127.37, 103.1 67.95, 163.24 0.13 M0.67 199.34 C58.45 135.67, 113.55 73, 173.87 0.09 M0.67 199.34 C47.56 143.36, 96.03 87.77, 173.87 0.09 M0.81 211.38 C51.97 151.87, 106.7 91.53, 184.5 0.06 M0.81 211.38 C58.78 144.72, 116.88 77.61, 184.5 0.06 M0.94 223.42 C62.35 147.32, 129.04 75.19, 195.13 0.03 M0.94 223.42 C55.8 159.86, 110.85 96.33, 195.13 0.03 M1.07 235.46 C59.07 169.41, 118.45 101.94, 205.76 -0.01 M1.07 235.46 C79.05 144.38, 159.42 52.36, 205.76 -0.01 M3.83 244.48 C84.7 149.96, 166.07 58.12, 216.39 -0.04 M3.83 244.48 C68.81 169.54, 133.93 94.95, 216.39 -0.04 M7.9 252 C75.02 176.16, 140.97 100.15, 227.02 -0.08 M7.9 252 C64.82 186.34, 121.89 121.18, 227.02 -0.08 M14.59 256.49 C69.23 195.42, 125.03 132.1, 237.65 -0.11 M14.59 256.49 C89.66 168.29, 165.12 80.82, 237.65 -0.11 M23.26 258.72 C105.09 164.14, 185.83 69.63, 248.28 -0.15 M23.26 258.72 C107.68 160.8, 191.6 65.21, 248.28 -0.15 M32.57 260.19 C83.79 199.17, 133.64 141.61, 258.91 -0.18 M32.57 260.19 C86.85 194.73, 141.69 131.91, 258.91 -0.18 M43.2 260.16 C104.51 190.45, 165.71 118.4, 269.54 -0.22 M43.2 260.16 C128.17 163.57, 212.48 67.36, 269.54 -0.22 M53.83 260.12 C106.31 196.92, 159.07 137.13, 280.17 -0.25 M53.83 260.12 C107.82 197.89, 160.9 135.15, 280.17 -0.25 M64.46 260.09 C127.06 191.6, 186.73 120.63, 290.8 -0.28 M64.46 260.09 C115.91 198.93, 167.8 140.07, 290.8 -0.28 M75.09 260.06 C142.65 181.48, 210.18 103.72, 300.78 0.44 M75.09 260.06 C121.2 206.71, 166.86 155.09, 300.78 0.44 M85.72 260.02 C170.51 159.36, 256.26 61.85, 311.41 0.4 M85.72 260.02 C155.96 178.44, 226.18 97.84, 311.41 0.4 M95.7 260.74 C153.73 196.08, 212.06 127.26, 322.04 0.37 M95.7 260.74 C180.19 163.95, 265.07 66.59, 322.04 0.37 M106.33 260.71 C172.54 185.14, 238.86 108.2, 332.67 0.33 M106.33 260.71 C176.09 182.3, 245.6 103.23, 332.67 0.33 M116.96 260.67 C175.22 191.91, 235.13 123.13, 343.3 0.3 M116.96 260.67 C177.22 192.97, 235.81 125.39, 343.3 0.3 M127.59 260.64 C186.22 192.94, 243.91 128.39, 353.93 0.26 M127.59 260.64 C195.74 182.36, 264.58 103.84, 353.93 0.26 M138.22 260.6 C201.7 186.49, 265.47 114.69, 364.56 0.23 M138.22 260.6 C210.79 176.07, 283.13 93.03, 364.56 0.23 M148.85 260.57 C235.54 161.74, 322.61 63.91, 375.19 0.19 M148.85 260.57 C217.6 180.64, 287.79 101.32, 375.19 0.19 M159.48 260.53 C206.36 206.55, 251.37 153.72, 385.82 0.16 M159.48 260.53 C224.04 188.46, 288 115.58, 385.82 0.16 M170.11 260.5 C245.85 172.15, 321.37 84.18, 396.45 0.12 M170.11 260.5 C248.64 170.6, 326.17 79.92, 396.45 0.12 M180.74 260.47 C252.48 179.65, 323.01 97.63, 407.08 0.09 M180.74 260.47 C231.05 200.04, 282.33 141.45, 407.08 0.09 M191.37 260.43 C254.16 188.21, 317.08 115.28, 417.71 0.06 M191.37 260.43 C267.8 171.91, 343.46 84.15, 417.71 0.06 M202 260.4 C253.34 202.28, 305.93 142.72, 428.34 0.02 M202 260.4 C270.54 181.78, 338.82 103.28, 428.34 0.02 M212.63 260.36 C281.3 183.48, 349.87 104.16, 438.97 -0.01 M212.63 260.36 C263.42 201.83, 313.59 144.37, 438.97 -0.01 M223.26 260.33 C307.09 163.97, 392.82 68.39, 449.6 -0.05 M223.26 260.33 C271.11 206.32, 318.98 151.33, 449.6 -0.05 M233.89 260.29 C317.13 162.56, 401.37 63.55, 460.23 -0.08 M233.89 260.29 C289.78 195.05, 345.2 129.05, 460.23 -0.08 M244.52 260.26 C310.76 186.78, 375.42 113.94, 470.86 -0.12 M244.52 260.26 C318.37 174.92, 391.95 90.1, 470.86 -0.12 M255.15 260.22 C306.39 199.94, 358.01 139.44, 481.49 -0.15 M255.15 260.22 C320.01 187.35, 383.95 113.35, 481.49 -0.15 M265.78 260.19 C335.75 177.6, 407.34 96.14, 492.12 -0.19 M265.78 260.19 C348.59 161.8, 433.85 65.09, 492.12 -0.19 M276.41 260.15 C337.08 189.83, 400.43 116.13, 502.75 -0.22 M276.41 260.15 C341.56 182.98, 406.73 107.06, 502.75 -0.22 M287.04 260.12 C361.83 175.01, 436.01 89.34, 513.38 -0.25 M287.04 260.12 C365.87 172.3, 442.11 83.96, 513.38 -0.25 M297.67 260.09 C356.1 195.74, 414.19 128.1, 523.35 0.47 M297.67 260.09 C354.81 191.33, 413.2 124.08, 523.35 0.47 M308.3 260.05 C356.92 204.58, 403.32 150.68, 533.98 0.43 M308.3 260.05 C395.74 161.75, 480.65 63.14, 533.98 0.43 M318.93 260.02 C364.64 207.13, 410.64 152.59, 544.61 0.4 M318.93 260.02 C381.05 186.66, 442.65 115.43, 544.61 0.4 M328.9 260.74 C407.77 171.23, 487.54 78.93, 555.24 0.36 M328.9 260.74 C398.75 180.8, 468.38 101.77, 555.24 0.36 M339.53 260.7 C408.76 180.42, 480.69 98.88, 565.87 0.33 M339.53 260.7 C397.34 196.71, 453.29 131.49, 565.87 0.33 M350.16 260.67 C431.31 166.46, 511.2 72.21, 576.5 0.29 M350.16 260.67 C415 185.08, 479.68 112.09, 576.5 0.29 M360.79 260.63 C414.26 199.89, 466.3 140.48, 587.14 0.26 M360.79 260.63 C450.89 159.49, 540.5 55.44, 587.14 0.26 M371.42 260.6 C454.1 167.56, 534.53 71.44, 597.77 0.22 M371.42 260.6 C451.43 168.99, 530.22 77.85, 597.77 0.22 M382.05 260.56 C467.37 163.74, 551.74 67.48, 608.4 0.19 M382.05 260.56 C456.31 172.83, 532.65 85.94, 608.4 0.19 M392.68 260.53 C460.18 185.87, 525.78 110.01, 619.03 0.16 M392.68 260.53 C460.76 180.34, 529.44 101.7, 619.03 0.16 M403.32 260.5 C455.15 200.7, 505.51 143.65, 629.66 0.12 M403.32 260.5 C452.83 206.91, 500.48 150.96, 629.66 0.12 M413.95 260.46 C505.67 157.77, 597.03 53.38, 640.29 0.09 M413.95 260.46 C503.3 159.21, 591.71 57.57, 640.29 0.09 M424.58 260.43 C476.18 199.51, 529.14 138.47, 650.92 0.05 M424.58 260.43 C507.71 165.57, 590.17 69.43, 650.92 0.05 M435.21 260.39 C517.31 169.27, 596.37 76.48, 661.55 0.02 M435.21 260.39 C487.35 198.14, 539.75 138.55, 661.55 0.02 M445.84 260.36 C513 182.19, 582.22 104.13, 672.18 -0.02 M445.84 260.36 C506.52 189.08, 567.31 119.28, 672.18 -0.02 M456.47 260.32 C531.34 174.45, 606.31 87.76, 682.81 -0.05 M456.47 260.32 C525.61 180.74, 595.19 99.73, 682.81 -0.05 M467.1 260.29 C535.19 181.88, 606.5 102.09, 693.44 -0.09 M467.1 260.29 C551.83 161.61, 636.37 63.41, 693.44 -0.09 M477.73 260.25 C550.38 175.16, 621.17 91.22, 704.07 -0.12 M477.73 260.25 C534.09 196.81, 591.41 131.71, 704.07 -0.12 M488.36 260.22 C576.33 162.27, 662.93 60.23, 714.7 -0.16 M488.36 260.22 C551.11 187.88, 614.39 114.45, 714.7 -0.16 M498.99 260.19 C553.39 200.51, 605.92 137.18, 725.33 -0.19 M498.99 260.19 C579.74 167.41, 661.99 74.05, 725.33 -0.19 M509.62 260.15 C562.25 197.43, 617.21 134.92, 735.96 -0.22 M509.62 260.15 C592.52 165.94, 675.72 71.49, 735.96 -0.22 M520.25 260.12 C610.2 156.96, 700.32 52.79, 746.59 -0.26 M520.25 260.12 C587.04 181.9, 654.4 103.96, 746.59 -0.26 M530.88 260.08 C585.31 198.9, 636.57 138.7, 756.56 0.46 M530.88 260.08 C604.91 173.81, 681.54 87.01, 756.56 0.46 M541.51 260.05 C592.85 198.27, 646.27 137.36, 767.19 0.43 M541.51 260.05 C629.05 159.25, 715.01 60.75, 767.19 0.43 M552.14 260.01 C622.63 182.15, 691.23 103.05, 777.82 0.39 M552.14 260.01 C623.28 178.92, 692.53 99.4, 777.82 0.39 M562.11 260.73 C608.46 210.26, 654.19 156.93, 788.45 0.36 M562.11 260.73 C629.87 182.66, 697.27 105.61, 788.45 0.36 M572.74 260.7 C625.86 198.23, 679.88 137.84, 799.08 0.32 M572.74 260.7 C641.83 181.18, 710.2 102.3, 799.08 0.32 M583.37 260.66 C642.53 192.45, 700.01 126, 809.71 0.29 M583.37 260.66 C671.07 161.12, 757.2 62.12, 809.71 0.29 M594 260.63 C682.19 157.86, 769.79 57.81, 820.34 0.25 M594 260.63 C673.95 168.29, 755.78 75.04, 820.34 0.25 M604.63 260.59 C692.76 161.71, 781.07 61.49, 829.66 1.73 M604.63 260.59 C682.92 168.94, 760.41 79.96, 829.66 1.73 M615.26 260.56 C701.53 159.61, 786.76 62.83, 837.66 4.71 M615.26 260.56 C663.57 203.84, 713.63 147.41, 837.66 4.71 M625.89 260.53 C685.88 191.33, 746.19 121.38, 844.36 9.21 M625.89 260.53 C702.74 172.33, 778.37 85.04, 844.36 9.21 M636.52 260.49 C681.72 208.69, 727.93 155.19, 849.08 15.97 M636.52 260.49 C688.75 201.46, 741.43 140.63, 849.08 15.97 M647.15 260.46 C693.03 207.59, 742.26 152.73, 851.84 24.99 M647.15 260.46 C711.17 186.74, 776.93 112.11, 851.84 24.99 M657.78 260.42 C719.85 188.93, 782.21 116.68, 851.97 37.03 M657.78 260.42 C715.18 191.54, 774.66 123.39, 851.97 37.03 M668.41 260.39 C718.55 201.74, 768.98 144.42, 852.11 49.07 M668.41 260.39 C710.74 209.52, 754.37 159.24, 852.11 49.07 M679.04 260.35 C734.99 194.88, 793.09 128.57, 852.24 61.11 M679.04 260.35 C727.51 205.6, 774.91 151.48, 852.24 61.11 M689.67 260.32 C729.22 216.14, 764.98 172.75, 852.37 73.15 M689.67 260.32 C730.22 211.33, 771.75 163.87, 852.37 73.15 M700.3 260.28 C746.7 206.22, 793.11 153.38, 851.85 85.95 M700.3 260.28 C753.53 199.19, 806.25 139.53, 851.85 85.95 M710.93 260.25 C745.5 215.95, 784.06 174.27, 851.98 97.99 M710.93 260.25 C765.08 199.53, 818.91 137.38, 851.98 97.99 M721.56 260.22 C760.58 214.13, 799.72 171.4, 852.12 110.03 M721.56 260.22 C762.64 211.85, 803.7 163.45, 852.12 110.03 M732.19 260.18 C769.73 216.38, 808.13 174.71, 852.25 122.07 M732.19 260.18 C777.61 207.47, 823.11 153.84, 852.25 122.07 M742.82 260.15 C764.62 234.12, 787.97 206.86, 852.38 134.11 M742.82 260.15 C778.42 221.19, 811.6 181.82, 852.38 134.11 M753.45 260.11 C781.81 228.43, 808.23 196.81, 852.52 146.15 M753.45 260.11 C782.73 227.51, 812.3 193.97, 852.52 146.15 M764.08 260.08 C790.67 230.39, 817.71 197.99, 851.99 158.95 M764.08 260.08 C784.68 236.68, 806.14 213.95, 851.99 158.95 M774.71 260.04 C793.75 241.32, 809.35 217.5, 852.13 170.99 M774.71 260.04 C797.44 233.25, 822.13 206.51, 852.13 170.99 M785.34 260.01 C809.55 232.76, 830.42 206.67, 852.26 183.03 M785.34 260.01 C807.87 235.21, 829.49 208.91, 852.26 183.03 M795.32 260.73 C817.57 234.62, 840.71 211.54, 852.39 195.07 M795.32 260.73 C809.27 245.06, 823.61 227.31, 852.39 195.07 M805.95 260.69 C824.22 241.03, 843.63 218.95, 852.53 207.11 M805.95 260.69 C818.73 247.89, 830.44 234.69, 852.53 207.11 M816.58 260.66 C827.85 245.39, 843.92 231.21, 852.66 219.15 M816.58 260.66 C829.67 246.05, 843.49 229.52, 852.66 219.15 M828.52 259.12 C835.92 252.32, 840.29 245.79, 852.14 231.95 M828.52 259.12 C836.78 249.74, 844.73 240.06, 852.14 231.95 M7.72 251.76 C7.72 251.76, 7.72 251.76, 7.72 251.76 M7.72 251.76 C7.72 251.76, 7.72 251.76, 7.72 251.76 M28.07 258.84 C20.5 251.82, 14.33 246.98, 0.9 235.23 M28.07 258.84 C18.09 250.43, 7.98 240.92, 0.9 235.23 M41.62 260.02 C31.91 251.94, 23.65 244.88, 0.86 224.6 M41.62 260.02 C33.92 252.47, 24.61 244.23, 0.86 224.6 M53.66 259.89 C34.94 241.56, 13.22 223.61, 0.83 213.97 M53.66 259.89 C42.87 251.49, 32.84 241.14, 0.83 213.97 M65.7 259.76 C47.22 244.06, 27.65 227.48, 0.79 203.34 M65.7 259.76 C49.83 247.17, 34.38 233.1, 0.79 203.34 M77.74 259.62 C53.24 240.45, 31.8 220.7, 0.76 192.71 M77.74 259.62 C57.33 239.02, 34.93 220.34, 0.76 192.71 M89.78 259.49 C59.96 232.91, 34.41 211.27, 0.73 182.08 M89.78 259.49 C64.26 236.87, 37.29 215.1, 0.73 182.08 M102.58 260.01 C66.82 227.13, 33.69 196.94, 0.69 171.45 M102.58 260.01 C64.18 225.79, 26.02 192.57, 0.69 171.45 M114.62 259.88 C90.65 240.09, 69.6 219.98, 0.66 160.82 M114.62 259.88 C69.39 222.75, 24.46 183.45, 0.66 160.82 M126.66 259.75 C98.54 238.29, 72.71 216.12, 0.62 150.19 M126.66 259.75 C99.63 237.7, 72.58 213.44, 0.62 150.19 M138.7 259.61 C101.59 229.65, 64.98 196.24, 0.59 139.56 M138.7 259.61 C87.03 212.94, 34.15 167.79, 0.59 139.56 M150.74 259.48 C93.7 210.48, 36.19 158.41, 0.55 128.93 M150.74 259.48 C93.68 210.14, 36.96 158.81, 0.55 128.93 M163.54 260 C107.82 210.01, 52.29 161.91, 0.52 118.3 M163.54 260 C122.44 226.37, 83.66 191.86, 0.52 118.3 M175.58 259.87 C139.14 230.09, 100.52 199.01, 0.48 107.67 M175.58 259.87 C131.25 221.97, 87.14 183.14, 0.48 107.67 M187.62 259.74 C142.51 219.02, 99.38 182.28, 0.45 97.04 M187.62 259.74 C122.51 203.08, 57.96 146.73, 0.45 97.04 M199.66 259.6 C124.34 193.18, 47.79 128.33, 0.42 86.4 M199.66 259.6 C153.46 219.51, 107.03 178.32, 0.42 86.4 M211.7 259.47 C141.83 200.08, 70.33 136.2, 0.38 75.77 M211.7 259.47 C129.75 190.52, 50.69 119.95, 0.38 75.77 M224.49 259.99 C160.36 206.05, 97.29 149.85, 0.35 65.14 M224.49 259.99 C151.72 198.96, 80.84 137.55, 0.35 65.14 M236.54 259.86 C150.77 184.3, 65.19 110.83, 0.31 54.51 M236.54 259.86 C178.04 208.65, 118.66 156.62, 0.31 54.51 M248.58 259.73 C192.97 214.64, 137.04 166.69, 0.28 43.88 M248.58 259.73 C158.96 183.1, 71.05 105.4, 0.28 43.88 M260.62 259.59 C204.88 211.47, 150.51 162.26, 0.24 33.25 M260.62 259.59 C160.17 174.87, 60.42 88.16, 0.24 33.25 M272.66 259.46 C166.27 166.64, 60.58 74.2, 0.96 23.28 M272.66 259.46 C175.75 175.04, 79.06 90.1, 0.96 23.28 M285.45 259.98 C186.94 176.56, 90.56 94.19, 3.95 15.27 M285.45 259.98 C229.48 211.78, 171.95 162.2, 3.95 15.27 M297.49 259.85 C202.71 173.71, 104.15 88.74, 7.69 7.92 M297.49 259.85 C236.67 207.54, 177.41 155.01, 7.69 7.92 M309.54 259.72 C204.69 167.98, 100.17 77.03, 15.2 3.86 M309.54 259.72 C232.13 193.18, 154.8 125.88, 15.2 3.86 M321.58 259.59 C243.45 189.89, 162.72 119.71, 23.47 0.44 M321.58 259.59 C220.32 169.29, 117.8 80.68, 23.47 0.44 M333.62 259.45 C259.25 193.98, 184.17 129.97, 34.75 -0.35 M333.62 259.45 C236.95 175.67, 140.6 92.35, 34.75 -0.35 M346.41 259.97 C241.24 168.83, 137.43 77.18, 47.55 0.18 M346.41 259.97 C264.81 189.06, 183.95 118.71, 47.55 0.18 M358.45 259.84 C258.07 172.85, 158.79 87.03, 59.59 0.04 M358.45 259.84 C281.49 190.8, 203.74 123.03, 59.59 0.04 M370.49 259.71 C305.5 202.77, 239.56 143.25, 71.63 -0.09 M370.49 259.71 C291.18 190.93, 213.6 122.86, 71.63 -0.09 M382.54 259.58 C280.08 170.2, 177.5 82.82, 83.67 -0.22 M382.54 259.58 C273.27 165.22, 165.02 71.22, 83.67 -0.22 M395.33 260.1 C315.14 190.35, 235.35 122.53, 95.71 -0.36 M395.33 260.1 C318.54 192.92, 243.94 127.23, 95.71 -0.36 M407.37 259.97 C319.43 184.57, 230.9 108.34, 108.51 0.17 M407.37 259.97 C336.11 198.37, 265.68 137.4, 108.51 0.17 M419.41 259.83 C317.73 170, 216.65 80.28, 120.55 0.03 M419.41 259.83 C319.49 171, 217.96 82.97, 120.55 0.03 M431.45 259.7 C359.89 197.67, 288.46 135.53, 132.59 -0.1 M431.45 259.7 C341.69 182.42, 253.01 105.29, 132.59 -0.1 M443.49 259.57 C367 192.07, 289.05 126.25, 144.63 -0.23 M443.49 259.57 C359.44 187.14, 275.53 114.41, 144.63 -0.23 M456.29 260.09 C353.36 171.09, 253.81 83.11, 156.67 -0.37 M456.29 260.09 C373.65 186.85, 290.13 114.77, 156.67 -0.37 M468.33 259.96 C383.8 187.06, 299.22 113.55, 169.47 0.16 M468.33 259.96 C404.83 203.74, 341.82 148.62, 169.47 0.16 M480.37 259.82 C374.47 165.78, 267.77 74.02, 181.51 0.02 M480.37 259.82 C381.58 175.09, 284.71 90.31, 181.51 0.02 M492.41 259.69 C414.37 192.51, 338.2 125.98, 193.55 -0.11 M492.41 259.69 C397.07 178.13, 302.46 96.29, 193.55 -0.11 M504.45 259.56 C394.37 164.3, 286.33 68.98, 205.59 -0.24 M504.45 259.56 C413.22 180.07, 323.55 101.04, 205.59 -0.24 M517.25 260.08 C433.83 188.98, 349.43 116.03, 217.63 -0.38 M517.25 260.08 C412.12 169.63, 305.69 78.2, 217.63 -0.38 M529.29 259.95 C450.42 192.37, 370.38 124.71, 230.42 0.15 M529.29 259.95 C445.76 189.02, 362.37 117.49, 230.42 0.15 M541.33 259.81 C482.31 207.82, 422.24 157.31, 242.47 0.01 M541.33 259.81 C441.63 173.02, 340.14 86.11, 242.47 0.01 M553.37 259.68 C480.54 196.77, 408.2 134.03, 254.51 -0.12 M553.37 259.68 C480.05 196.81, 407.45 133.99, 254.51 -0.12 M565.41 259.55 C462.21 172.1, 359.47 83.41, 266.55 -0.25 M565.41 259.55 C489.5 191.87, 412.67 124.76, 266.55 -0.25 M578.21 260.07 C482.64 176.07, 390.24 95.77, 279.34 0.27 M578.21 260.07 C459.12 156.77, 340.14 53.18, 279.34 0.27 M590.25 259.94 C479.03 161.09, 365.22 62.91, 291.38 0.14 M590.25 259.94 C484.27 168.97, 378.4 77.03, 291.38 0.14 M602.29 259.8 C540.19 206.46, 480.63 155.2, 303.42 0 M602.29 259.8 C524.99 191.01, 446.04 123.18, 303.42 0 M614.33 259.67 C539.71 195.88, 463.92 129.61, 315.47 -0.13 M614.33 259.67 C542.89 197.6, 470.87 135.26, 315.47 -0.13 M626.37 259.54 C553.59 199.41, 481.86 137.02, 327.51 -0.26 M626.37 259.54 C516.05 165.88, 406.66 70.42, 327.51 -0.26 M639.17 260.06 C559.89 190.15, 480.31 121.35, 340.3 0.26 M639.17 260.06 C522.43 158.36, 404.73 56.64, 340.3 0.26 M651.21 259.93 C570.9 191.75, 491.96 121.21, 352.34 0.13 M651.21 259.93 C546.67 168.83, 441.09 77.93, 352.34 0.13 M663.25 259.79 C552.56 162.77, 439.5 67.47, 364.38 -0.01 M663.25 259.79 C589.29 193.81, 513.78 128.02, 364.38 -0.01 M675.29 259.66 C574.44 171.6, 472.71 82.49, 376.42 -0.14 M675.29 259.66 C591.2 186.9, 508.39 113.69, 376.42 -0.14 M687.33 259.53 C596.25 182.74, 507.62 103.27, 388.47 -0.27 M687.33 259.53 C591.78 177.78, 498.33 96.53, 388.47 -0.27 M700.13 260.05 C635.13 200.78, 567.2 142.73, 401.26 0.25 M700.13 260.05 C603.39 175.62, 507.48 92.2, 401.26 0.25 M712.17 259.92 C640.63 199.59, 572.11 139.15, 413.3 0.12 M712.17 259.92 C634.87 194.5, 559.73 128.53, 413.3 0.12 M724.21 259.78 C637.85 183.27, 549.31 107.72, 425.34 -0.02 M724.21 259.78 C646.08 191.6, 567.73 123.35, 425.34 -0.02 M736.25 259.65 C642.52 177.65, 547.89 97.29, 437.38 -0.15 M736.25 259.65 C618.16 155.98, 499.24 52.27, 437.38 -0.15 M748.29 259.52 C677.15 198.9, 605.69 136.47, 449.42 -0.28 M748.29 259.52 C687.94 207.32, 625.04 153.26, 449.42 -0.28 M761.08 260.04 C656.2 171.14, 552.62 80.68, 462.22 0.24 M761.08 260.04 C686.75 195.24, 613.7 132.72, 462.22 0.24 M773.13 259.91 C668.24 167.64, 562.74 76.84, 474.26 0.11 M773.13 259.91 C694.31 189.33, 613.81 119.36, 474.26 0.11 M785.17 259.77 C693.14 181.55, 603.37 102.98, 486.3 -0.03 M785.17 259.77 C679.55 169.67, 573.77 79.1, 486.3 -0.03 M797.21 259.64 C721.87 194, 645.5 129.33, 498.34 -0.16 M797.21 259.64 C715.99 189.12, 633.86 116.86, 498.34 -0.16 M809.25 259.51 C690.42 156.31, 571.08 51.95, 510.38 -0.29 M809.25 259.51 C735.84 195.27, 662.67 132.6, 510.38 -0.29 M821.29 259.37 C718.81 170.58, 615.51 81.87, 523.18 0.23 M821.29 259.37 C740.6 188.73, 659.54 118.1, 523.18 0.23 M831.82 257.93 C763.21 196.83, 693.46 138.68, 535.22 0.1 M831.82 257.93 C741.69 180.46, 651.99 101.6, 535.22 0.1 M840.09 254.52 C730.53 157.44, 620.14 61.27, 547.26 -0.03 M840.09 254.52 C777.66 200.3, 715.82 146.81, 547.26 -0.03 M846.09 249.13 C775.21 186.43, 704.35 127.01, 559.3 -0.17 M846.09 249.13 C763.63 176.69, 680.27 105.35, 559.3 -0.17 M849.83 241.78 C772.36 173.26, 694.38 106.47, 571.34 -0.3 M849.83 241.78 C775.39 177.46, 699.63 111.31, 571.34 -0.3 M851.31 232.47 C785.26 174.43, 717.82 114.64, 584.14 0.22 M851.31 232.47 C792.31 182.08, 735.45 132.37, 584.14 0.22 M852.03 222.49 C770.57 152.28, 691.39 85.15, 596.18 0.09 M852.03 222.49 C766.31 148.33, 681.75 74.76, 596.18 0.09 M851.99 211.86 C772.47 141, 695.97 74.61, 608.22 -0.04 M851.99 211.86 C789.26 157.65, 726.94 104.12, 608.22 -0.04 M851.96 201.23 C777.39 136.8, 700.01 68.82, 620.26 -0.18 M851.96 201.23 C783.25 141.87, 716.82 83.24, 620.26 -0.18 M851.92 190.6 C790.73 135.97, 726.39 81.52, 632.3 -0.31 M851.92 190.6 C795.1 142, 737.89 91.5, 632.3 -0.31 M851.89 179.97 C788.97 125.45, 724.74 68.44, 645.1 0.21 M851.89 179.97 C774.62 112.86, 699.84 46.43, 645.1 0.21 M851.85 169.34 C806.81 128.99, 762.44 88.56, 657.14 0.08 M851.85 169.34 C805.62 128.1, 759.58 87.71, 657.14 0.08 M851.82 158.71 C804.71 118.91, 762.22 83.08, 669.18 -0.05 M851.82 158.71 C783.63 99.05, 713.05 37.2, 669.18 -0.05 M851.78 148.08 C813.36 115.36, 774.11 80.34, 681.22 -0.19 M851.78 148.08 C807.22 109.68, 763.65 71.36, 681.22 -0.19 M851.75 137.45 C813.92 108.4, 779.17 76.17, 693.26 -0.32 M851.75 137.45 C805.9 96.68, 760.95 58.89, 693.26 -0.32 M851.71 126.82 C797.62 80.35, 744.27 32.96, 706.06 0.2 M851.71 126.82 C800.88 81.21, 749.92 37.65, 706.06 0.2 M851.68 116.19 C805.18 74.92, 754.85 35.9, 718.1 0.07 M851.68 116.19 C821.77 88.11, 792.24 63.69, 718.1 0.07 M851.65 105.56 C809.77 70.82, 768.12 33.4, 730.14 -0.06 M851.65 105.56 C823.29 81.75, 795.92 58.01, 730.14 -0.06 M851.61 94.93 C821.02 68.51, 794.02 43.47, 742.18 -0.2 M851.61 94.93 C821.66 68.47, 793.42 43.24, 742.18 -0.2 M851.58 84.3 C822.69 59.9, 794.02 37.25, 754.22 -0.33 M851.58 84.3 C817.88 56.39, 783.66 27.91, 754.22 -0.33 M851.54 73.67 C822.36 48.13, 789.5 21.11, 767.01 0.19 M851.54 73.67 C824.15 51.03, 799.18 28.08, 767.01 0.19 M851.51 63.04 C831.58 43.04, 807.81 25.6, 779.06 0.06 M851.51 63.04 C835.11 47.39, 818.04 34.03, 779.06 0.06 M851.47 52.41 C837.4 39.85, 826.98 29.68, 791.1 -0.07 M851.47 52.41 C832.07 34.36, 809.85 16.76, 791.1 -0.07 M851.44 41.78 C833.93 27.64, 820.25 14.06, 803.14 -0.21 M851.44 41.78 C832.71 26.2, 814.37 10.65, 803.14 -0.21 M851.4 31.15 C839.76 21.78, 824.1 9.11, 815.18 -0.34 M851.4 31.15 C837.25 19.18, 825.17 7.38, 815.18 -0.34 M850.62 19.86 C844.95 13.3, 837.16 10.06, 829.48 1.5 M850.62 19.86 C843.59 12.75, 835.75 6.69, 829.48 1.5" stroke="#a5d8ff" stroke-width="1" fill="none"></path><path d="M32 0 C244.04 -1.83, 454.14 -1.78, 820 0 M32 0 C312.84 -1.86, 594.33 -1.84, 820 0 M820 0 C840.9 -0.77, 852.6 11.06, 852 32 M820 0 C840.01 -0.62, 853.44 12.43, 852 32 M852 32 C852.08 77.17, 850.62 126.12, 852 228 M852 32 C850.58 98.6, 850.62 165.51, 852 228 M852 228 C850.28 250.89, 841.99 259.84, 820 260 M852 228 C853.42 248.18, 842.55 260.83, 820 260 M820 260 C647.58 256.99, 475.77 256.45, 32 260 M820 260 C627.93 257.85, 436.45 257.92, 32 260 M32 260 C9.77 259.89, 0.6 247.71, 0 228 M32 260 C10.18 260.75, -2.03 248.09, 0 228 M0 228 C2.52 176.98, 2.85 127.08, 0 32 M0 228 C-2.02 178.14, -2.45 129.48, 0 32 M0 32 C0.35 11.18, 8.92 -1.82, 32 0 M0 32 C-1.28 12.75, 9.13 -2.25, 32 0" stroke="#1e1e1e" stroke-width="2" fill="none"></path></g><g stroke-linecap="round" transform="translate(10 115) rotate(0 78 37)"><path d="M18.5 0 C56.02 -4.34, 94.2 0.73, 137.5 0 C149.74 1.98, 159.36 8.26, 156 18.5 C157.68 27.85, 157.29 37.27, 156 55.5 C158.18 64.47, 146.86 70.47, 137.5 74 C90.46 71.23, 47.35 73.84, 18.5 74 C4.02 72.1, -2.68 64.5, 0 55.5 C1.46 41.08, -2.29 26.76, 0 18.5 C-0.46 5.66, 9.12 0.52, 18.5 0" stroke="none" stroke-width="0" fill="#eebefa"></path><path d="M18.5 0 C55.82 -1.53, 89.05 1.34, 137.5 0 M18.5 0 C62.68 0.47, 105.08 0.51, 137.5 0 M137.5 0 C148.99 -1.96, 156.36 7.95, 156 18.5 M137.5 0 C148.87 -0.45, 155.27 5.43, 156 18.5 M156 18.5 C156.13 27.6, 155.47 34.19, 156 55.5 M156 18.5 C155.37 27.06, 155.11 35.72, 156 55.5 M156 55.5 C156.43 69.67, 150.74 75.71, 137.5 74 M156 55.5 C154.49 66.94, 148.43 72.69, 137.5 74 M137.5 74 C91.35 73.9, 42.38 73.63, 18.5 74 M137.5 74 C112.63 74.22, 87.5 73.99, 18.5 74 M18.5 74 C6.91 75.4, 1.98 65.97, 0 55.5 M18.5 74 C5.09 74.6, 0.12 66.39, 0 55.5 M0 55.5 C1.63 41.88, -0.85 30.36, 0 18.5 M0 55.5 C0.72 44.46, 0.61 35.22, 0 18.5 M0 18.5 C-1 7.77, 4.2 1.48, 18.5 0 M0 18.5 C1.78 7.52, 7.01 -0.39, 18.5 0" stroke="#846358" stroke-width="2" fill="none"></path></g><g transform="translate(48.060035705566406 139.5) rotate(0 39.939964294433594 12.5)"><text x="39.939964294433594" y="0" font-family="Virgil, Segoe UI Emoji" font-size="20px" fill="#1e1e1e" text-anchor="middle" style="white-space: pre;" direction="ltr" dominant-baseline="text-before-edge">Request</text></g><g stroke-linecap="round" transform="translate(374 117) rotate(0 78 37)"><path d="M18.5 0 C61.56 3.52, 108.54 0.32, 137.5 0 C152.57 -0.21, 159.4 7.35, 156 18.5 C153.2 29.07, 152.98 35.88, 156 55.5 C158.53 65.51, 151.87 77.26, 137.5 74 C102.99 71.17, 63.49 75.16, 18.5 74 C7.44 76.32, -2.89 65.8, 0 55.5 C3.31 47.93, 1.89 33.34, 0 18.5 C-2.54 7.6, 8.69 1.08, 18.5 0" stroke="none" stroke-width="0" fill="#eebefa"></path><path d="M18.5 0 C65.82 -0.87, 111.4 -0.71, 137.5 0 M18.5 0 C51.49 -0.53, 83.78 0.38, 137.5 0 M137.5 0 C151.09 0.26, 157.77 7.67, 156 18.5 M137.5 0 C149.23 -0.9, 156.02 8.04, 156 18.5 M156 18.5 C158.06 26.28, 154.88 36.25, 156 55.5 M156 18.5 C155.88 28.72, 156.06 37.93, 156 55.5 M156 55.5 C157.78 67.88, 149.06 74.74, 137.5 74 M156 55.5 C156.31 69.47, 149.58 76.03, 137.5 74 M137.5 74 C106.04 73.86, 75.51 74.87, 18.5 74 M137.5 74 C107.92 73.24, 80.16 72.54, 18.5 74 M18.5 74 C6.98 75.34, 0.29 68.42, 0 55.5 M18.5 74 C4.34 72.73, -1.91 69.35, 0 55.5 M0 55.5 C-0.69 40.78, -0.42 31.16, 0 18.5 M0 55.5 C-0.96 47.21, -0.18 38.48, 0 18.5 M0 18.5 C-0.39 8.09, 5.99 -1.42, 18.5 0 M0 18.5 C-2.2 6.46, 4.89 1.52, 18.5 0" stroke="#846358" stroke-width="2" fill="none"></path></g><g transform="translate(414.7500305175781 141.5) rotate(0 37.249969482421875 12.5)"><text x="37.249969482421875" y="0" font-family="Virgil, Segoe UI Emoji" font-size="20px" fill="#1e1e1e" text-anchor="middle" style="white-space: pre;" direction="ltr" dominant-baseline="text-before-edge">Tomcat</text></g><g stroke-linecap="round" transform="translate(595 237) rotate(0 78 37)"><path d="M18.5 0 C66.9 1.16, 111.08 -1.37, 137.5 0 C146.83 -2.75, 154.95 6.77, 156 18.5 C153.6 36.39, 156.97 51.12, 156 55.5 C157.84 70.53, 151.94 75.41, 137.5 74 C104.75 70.22, 79.76 73.84, 18.5 74 C9.12 77.41, -3.51 66.44, 0 55.5 C1.42 44.39, 2.44 36.93, 0 18.5 C0.92 5.89, 8.79 0.16, 18.5 0" stroke="none" stroke-width="0" fill="#eebefa"></path><path d="M18.5 0 C62.57 -1.34, 103.83 -1.44, 137.5 0 M18.5 0 C55.2 2.13, 93.4 1.02, 137.5 0 M137.5 0 C149.41 -1.03, 155.65 4.92, 156 18.5 M137.5 0 C147.54 -1.44, 155.86 4.9, 156 18.5 M156 18.5 C155.21 32.95, 155.06 45.45, 156 55.5 M156 18.5 C156.7 28.4, 157.14 37.79, 156 55.5 M156 55.5 C155.07 68.1, 149.71 74.36, 137.5 74 M156 55.5 C157.3 69.58, 150.52 74.91, 137.5 74 M137.5 74 C109.19 73.55, 81.97 75.02, 18.5 74 M137.5 74 C103.93 75.04, 70.71 74.72, 18.5 74 M18.5 74 C6.88 73.77, 1 68.48, 0 55.5 M18.5 74 C5.02 73.47, -2.21 66.2, 0 55.5 M0 55.5 C1.6 43.99, 1.78 28.7, 0 18.5 M0 55.5 C0.25 45.48, 0.06 34.97, 0 18.5 M0 18.5 C0.21 5.33, 7.34 1.22, 18.5 0 M0 18.5 C2.21 5.82, 4.35 -0.3, 18.5 0" stroke="#846358" stroke-width="2" fill="none"></path></g><g transform="translate(658.2900085449219 261.5) rotate(0 14.709991455078125 12.5)"><text x="14.709991455078125" y="0" font-family="Virgil, Segoe UI Emoji" font-size="20px" fill="#1e1e1e" text-anchor="middle" style="white-space: pre;" direction="ltr" dominant-baseline="text-before-edge">MQ</text></g><g stroke-linecap="round" transform="translate(784 235) rotate(0 78 37)"><path d="M18.5 0 C59.08 -2.14, 91.02 -0.19, 137.5 0 C149.42 1.13, 157.97 7.56, 156 18.5 C154.1 24.78, 154.8 35.79, 156 55.5 C153.12 69.73, 151.14 77.07, 137.5 74 C101.11 75.92, 66.53 71.6, 18.5 74 C3.56 76.28, -0.02 69.49, 0 55.5 C2.68 44.88, -2.6 36.04, 0 18.5 C-2.8 3.53, 5.94 -0.12, 18.5 0" stroke="none" stroke-width="0" fill="#eebefa"></path><path d="M18.5 0 C45.02 0.43, 75.65 2.52, 137.5 0 M18.5 0 C46.96 -0.19, 73.8 1.14, 137.5 0 M137.5 0 C151.05 -1.5, 157.59 4.31, 156 18.5 M137.5 0 C151.33 0.04, 156.14 7.75, 156 18.5 M156 18.5 C156.92 29.37, 157.4 36, 156 55.5 M156 18.5 C155.67 27.24, 155.29 37.32, 156 55.5 M156 55.5 C155.2 67.94, 149.91 72.45, 137.5 74 M156 55.5 C156.45 66.94, 148 76.09, 137.5 74 M137.5 74 C108.38 74.4, 82.62 75.66, 18.5 74 M137.5 74 C93.42 73.6, 50.89 72.52, 18.5 74 M18.5 74 C5.35 75.19, 1.2 67.72, 0 55.5 M18.5 74 C7.53 72.84, -1.25 65.59, 0 55.5 M0 55.5 C0.05 43.39, 1.91 35.07, 0 18.5 M0 55.5 C0.57 46.88, 0.4 38.88, 0 18.5 M0 18.5 C1.9 5.55, 4.78 0.59, 18.5 0 M0 18.5 C2.18 7.71, 4 1.4, 18.5 0" stroke="#846358" stroke-width="2" fill="none"></path></g><g transform="translate(849.1800079345703 259.5) rotate(0 12.819992065429688 12.5)"><text x="12.819992065429688" y="0" font-family="Virgil, Segoe UI Emoji" font-size="20px" fill="#1e1e1e" text-anchor="middle" style="white-space: pre;" direction="ltr" dominant-baseline="text-before-edge">ES</text></g><g stroke-linecap="round" transform="translate(972 231) rotate(0 78 37)"><path d="M18.5 0 C55.77 0.29, 96.79 -0.3, 137.5 0 C149.34 -1.96, 155.88 7.24, 156 18.5 C157.8 30.53, 153.8 46, 156 55.5 C154.87 70.41, 148.42 71.45, 137.5 74 C95.45 73.1, 57.36 77.98, 18.5 74 C6.54 71.6, 1.13 69.56, 0 55.5 C-1.97 49.54, -2.92 40.15, 0 18.5 C-0.96 2.95, 3.81 0.48, 18.5 0" stroke="none" stroke-width="0" fill="#eebefa"></path><path d="M18.5 0 C49.82 -0.26, 83.29 1.27, 137.5 0 M18.5 0 C51.93 0.4, 84.44 -0.01, 137.5 0 M137.5 0 C149.54 0.17, 154.1 7.75, 156 18.5 M137.5 0 C147.84 -1.75, 156.14 6.27, 156 18.5 M156 18.5 C157.21 26.48, 157.26 36.35, 156 55.5 M156 18.5 C155.69 29.25, 156.53 40.79, 156 55.5 M156 55.5 C157.63 68.88, 149.3 72.27, 137.5 74 M156 55.5 C154.67 66.67, 149.64 71.82, 137.5 74 M137.5 74 C106.77 76.7, 74.3 73.51, 18.5 74 M137.5 74 C106.5 72.79, 77 72.93, 18.5 74 M18.5 74 C7.51 74.88, 1.49 66.62, 0 55.5 M18.5 74 C4.69 73.63, -0.87 69.15, 0 55.5 M0 55.5 C1.21 41.49, -1.38 25.8, 0 18.5 M0 55.5 C-0.91 45.75, -0.27 34.63, 0 18.5 M0 18.5 C-0.43 5.41, 5.54 1.29, 18.5 0 M0 18.5 C-1.22 4.95, 4.51 -0.47, 18.5 0" stroke="#846358" stroke-width="2" fill="none"></path></g><g transform="translate(1034.9300079345703 255.5) rotate(0 15.069992065429688 12.5)"><text x="15.069992065429688" y="0" font-family="Virgil, Segoe UI Emoji" font-size="20px" fill="#1e1e1e" text-anchor="middle" style="white-space: pre;" direction="ltr" dominant-baseline="text-before-edge">DB</text></g><g stroke-linecap="round"><g transform="translate(202 155) rotate(0 82 0)"><path d="M0.04 0.56 C27.52 0.26, 137.64 -0.46, 164.94 -0.61 M-1.4 -0.19 C25.99 0.16, 137.08 0.45, 164.49 0.61" stroke="#1e1e1e" stroke-width="2" fill="none"></path></g><g transform="translate(202 155) rotate(0 82 0)"><path d="M140.96 9.06 C148.99 8.05, 154.23 3.7, 164.49 0.61 M140.96 9.06 C147.84 6.48, 154.11 3.92, 164.49 0.61" stroke="#1e1e1e" stroke-width="2" fill="none"></path></g><g transform="translate(202 155) rotate(0 82 0)"><path d="M141.03 -8.04 C149.21 -3.83, 154.43 -2.96, 164.49 0.61 M141.03 -8.04 C147.82 -5.99, 154.07 -3.92, 164.49 0.61" stroke="#1e1e1e" stroke-width="2" fill="none"></path></g></g><mask></mask><g stroke-linecap="round"><g transform="translate(540 154) rotate(0 259 32)"><path d="M-0.12 -0.35 C43.98 -1.56, 179.06 -19.89, 265.51 -7.88 C351.96 4.12, 476.41 58.47, 518.57 71.68 M-1.64 -1.58 C42.17 -2.52, 177.68 -18.68, 264.3 -6.28 C350.92 6.12, 475.66 59.76, 518.1 72.83" stroke="#1e1e1e" stroke-width="2" fill="none"></path></g><g transform="translate(540 154) rotate(0 259 32)"><path d="M493.1 72.94 C501.98 72.11, 512.23 73.83, 518.1 72.83 M493.1 72.94 C500.01 73.69, 506.91 73.89, 518.1 72.83" stroke="#1e1e1e" stroke-width="2" fill="none"></path></g><g transform="translate(540 154) rotate(0 259 32)"><path d="M498.87 56.85 C505.49 62.1, 513.55 69.92, 518.1 72.83 M498.87 56.85 C504.27 61.96, 509.59 66.56, 518.1 72.83" stroke="#1e1e1e" stroke-width="2" fill="none"></path></g></g><mask></mask><g stroke-linecap="round"><g transform="translate(640 151) rotate(0 6 40)"><path d="M-1.03 -0.68 C1.13 12.74, 10.15 67.04, 12.13 80.39 M0.63 1.57 C2.72 14.64, 9.16 65.34, 11.25 78.47" stroke="#1e1e1e" stroke-width="2" fill="none"></path></g><g transform="translate(640 151) rotate(0 6 40)"><path d="M-0.51 56.4 C1.03 61.81, 5.53 64.76, 11.25 78.47 M-0.51 56.4 C2.61 62.84, 5.19 67.36, 11.25 78.47" stroke="#1e1e1e" stroke-width="2" fill="none"></path></g><g transform="translate(640 151) rotate(0 6 40)"><path d="M16.43 54.01 C14.06 59.82, 14.65 63.33, 11.25 78.47 M16.43 54.01 C15.32 61.04, 13.72 66.15, 11.25 78.47" stroke="#1e1e1e" stroke-width="2" fill="none"></path></g></g><mask></mask><g stroke-linecap="round"><g transform="translate(822.4502858620135 153.14884526319804) rotate(0 6 36)"><path d="M-0.12 -0.32 C1.96 11.63, 10.45 60.65, 12.3 72.8 M-1.64 -1.53 C0.32 10.6, 9.01 59.08, 11.51 71.1" stroke="#1e1e1e" stroke-width="2" fill="none"></path></g><g transform="translate(822.4502858620135 153.14884526319804) rotate(0 6 36)"><path d="M-1.3 49.63 C2.06 56.35, 7.63 60.4, 11.51 71.1 M-1.3 49.63 C3.71 56.9, 8.68 64.46, 11.51 71.1" stroke="#1e1e1e" stroke-width="2" fill="none"></path></g><g transform="translate(822.4502858620135 153.14884526319804) rotate(0 6 36)"><path d="M15.5 46.42 C14.03 54.05, 14.75 59.02, 11.51 71.1 M15.5 46.42 C14.66 54.77, 13.76 63.46, 11.51 71.1" stroke="#1e1e1e" stroke-width="2" fill="none"></path></g></g><mask></mask><g transform="translate(714 10) rotate(0 54 22.5)"><text x="54" y="0" font-family="Virgil, Segoe UI Emoji" font-size="36px" fill="#1e1e1e" text-anchor="middle" style="white-space: pre;" direction="ltr" dominant-baseline="text-before-edge">应用层</text></g></svg>