<svg version="1.1" xmlns="http://www.w3.org/2000/svg" viewBox="0 0 1066.8620147705078 576.5870361328125" width="1066.8620147705078" height="576.5870361328125">
  <!-- svg-source:excalidraw -->
  
  <defs>
    <style class="style-fonts">
      @font-face {
        font-family: "Virgil";
        src: url("https://excalidraw.com/Virgil.woff2");
      }
      @font-face {
        font-family: "Cascadia";
        src: url("https://excalidraw.com/Cascadia.woff2");
      }
      @font-face {
        font-family: "Assistant";
        src: url("https://excalidraw.com/Assistant-Regular.woff2");
      }
    </style>
    
  </defs>
  <rect x="0" y="0" width="1066.8620147705078" height="576.5870361328125" fill="#ffffff"></rect><g stroke-linecap="round" transform="translate(15.333343505859375 14.5) rotate(0 133.76437377929688 44.54351806640625)"><path d="M2.81 9.07 C2.81 9.07, 2.81 9.07, 2.81 9.07 M2.81 9.07 C2.81 9.07, 2.81 9.07, 2.81 9.07 M0.58 17.73 C2.27 15.79, 4.69 10.69, 11.08 5.66 M0.58 17.73 C3.97 13.62, 6.74 10.06, 11.08 5.66 M0.98 23.37 C4.72 20.95, 9.54 14.84, 18.03 3.75 M0.98 23.37 C7.57 16.21, 13.2 7.61, 18.03 3.75 M0.71 29.77 C5.55 22.89, 16 13.45, 24.99 1.85 M0.71 29.77 C8.81 20.48, 17.01 10.24, 24.99 1.85 M1.11 35.41 C8.58 26.31, 19.25 12.95, 29.98 2.21 M1.11 35.41 C10.19 26.33, 18.8 15.4, 29.98 2.21 M0.85 41.81 C9.83 35.39, 15.11 25.37, 35.62 1.81 M0.85 41.81 C15 25.89, 27.49 11.74, 35.62 1.81 M0.59 48.21 C10.9 36.57, 21.51 24.64, 40.61 2.17 M0.59 48.21 C9.36 37.73, 17.68 29.39, 40.61 2.17 M0.98 53.85 C14.04 36.96, 28.87 21.39, 46.25 1.78 M0.98 53.85 C17.55 33.95, 33.76 15.63, 46.25 1.78 M0.72 60.25 C11.25 47.88, 23.41 35.38, 51.24 2.14 M0.72 60.25 C14.08 43.06, 29.25 27.71, 51.24 2.14 M1.11 65.89 C13.74 50.78, 26.66 34.83, 56.22 2.5 M1.11 65.89 C22.62 40.22, 45.06 15.2, 56.22 2.5 M0.85 72.29 C22.3 48.28, 45.11 21.71, 61.87 2.1 M0.85 72.29 C23.58 43.6, 48.75 17.27, 61.87 2.1 M2.56 76.43 C26.49 49.08, 53.66 20.34, 66.85 2.46 M2.56 76.43 C23.66 52.4, 45.46 27.72, 66.85 2.46 M4.27 80.56 C28.58 49.82, 53.95 20.87, 72.5 2.07 M4.27 80.56 C24.31 57.74, 44.99 31.95, 72.5 2.07 M6.63 83.94 C28.82 56.41, 51.2 31.56, 77.48 2.43 M6.63 83.94 C25.45 62.2, 44.81 40.67, 77.48 2.43 M9.65 86.56 C33.74 55.69, 61.59 29.12, 83.13 2.03 M9.65 86.56 C28.72 65.02, 47.65 43.1, 83.13 2.03 M13.32 88.43 C40.87 58.61, 67.63 28.09, 88.11 2.4 M13.32 88.43 C32.82 67.48, 50.54 45.7, 88.11 2.4 M18.31 88.79 C40.81 62.65, 63.55 36.05, 93.76 2 M18.31 88.79 C47.24 55.75, 77.8 21.97, 93.76 2 M22.64 89.91 C50.64 57.99, 81.7 24.69, 98.74 2.36 M22.64 89.91 C49.86 59.18, 78.09 26.87, 98.74 2.36 M28.28 89.51 C44.87 70.53, 64.1 49.86, 104.39 1.97 M28.28 89.51 C54.04 61.54, 79.12 31.99, 104.39 1.97 M33.27 89.87 C52.67 68.53, 72.29 45.73, 109.37 2.33 M33.27 89.87 C52.08 69.13, 69.75 46.43, 109.37 2.33 M38.91 89.48 C58.77 66.47, 78.88 46.62, 115.02 1.93 M38.91 89.48 C70.62 54.88, 100.94 19.42, 115.02 1.93 M43.9 89.84 C70.71 59.21, 96.68 28.05, 120 2.29 M43.9 89.84 C70.91 58.75, 94.86 30.05, 120 2.29 M49.54 89.44 C73.58 60.54, 97.38 32.57, 125.65 1.9 M49.54 89.44 C64.3 71.97, 81.76 52.95, 125.65 1.9 M54.53 89.8 C72.48 69.88, 93.33 46.72, 130.63 2.26 M54.53 89.8 C75.77 66.94, 95.8 43.17, 130.63 2.26 M60.17 89.41 C79.16 67.64, 98.55 44.55, 136.28 1.86 M60.17 89.41 C80.78 66.53, 100.99 44.11, 136.28 1.86 M65.16 89.77 C84.65 66.63, 103.8 47.36, 141.26 2.22 M65.16 89.77 C84.33 66.05, 105.16 43.9, 141.26 2.22 M70.8 89.37 C95.08 61.36, 116.4 36.64, 146.91 1.83 M70.8 89.37 C97.74 58.87, 123.03 30.11, 146.91 1.83 M75.79 89.73 C94.52 68.4, 118.35 44.23, 151.89 2.19 M75.79 89.73 C102.4 60.54, 128.74 29.84, 151.89 2.19 M81.43 89.34 C99.05 69.18, 119.57 45.36, 157.54 1.79 M81.43 89.34 C106.17 59.87, 133.5 31.83, 157.54 1.79 M86.42 89.7 C109.4 66.42, 129.79 40.71, 162.52 2.15 M86.42 89.7 C108.43 65.94, 130.07 38.97, 162.52 2.15 M92.06 89.31 C109.87 68.51, 126.95 47.89, 167.51 2.51 M92.06 89.31 C108.81 69.53, 125.49 50.46, 167.51 2.51 M97.05 89.67 C123.63 55.66, 152.5 24.71, 173.15 2.12 M97.05 89.67 C119.93 61.73, 144.42 36.03, 173.15 2.12 M102.69 89.27 C129.49 58.62, 155.91 28.39, 178.14 2.48 M102.69 89.27 C120.34 66.52, 139.6 44.97, 178.14 2.48 M107.68 89.63 C122.43 72.5, 139.75 53.34, 183.78 2.08 M107.68 89.63 C136.56 57.06, 166.28 22.75, 183.78 2.08 M112.67 89.99 C135.6 63.84, 156.02 40.64, 188.77 2.44 M112.67 89.99 C143.25 56, 173.46 21.14, 188.77 2.44 M118.31 89.6 C147.42 53.47, 180.66 22.69, 194.41 2.05 M118.31 89.6 C140.84 66.04, 162.12 41.16, 194.41 2.05 M123.3 89.96 C141.81 69.9, 160.54 49.76, 199.4 2.41 M123.3 89.96 C145.98 65.4, 165.71 39.56, 199.4 2.41 M128.94 89.56 C152.93 59.53, 180.25 31.07, 205.04 2.02 M128.94 89.56 C157.09 55.33, 186.1 23.13, 205.04 2.02 M133.93 89.92 C165.05 57.22, 193.76 20.19, 210.03 2.38 M133.93 89.92 C154.55 67.87, 172.63 44.52, 210.03 2.38 M139.57 89.53 C164.73 61.88, 186.37 37.84, 215.67 1.98 M139.57 89.53 C156.84 69.2, 173.03 50.01, 215.67 1.98 M144.56 89.89 C167.86 63.02, 190.58 39.57, 220.66 2.34 M144.56 89.89 C171.09 60.03, 195.92 30.02, 220.66 2.34 M150.2 89.49 C170.15 68, 192.53 42.43, 226.3 1.95 M150.2 89.49 C178.34 58.4, 206.81 25.87, 226.3 1.95 M155.19 89.85 C174.66 67.84, 191.59 46.35, 231.29 2.31 M155.19 89.85 C174.91 67.56, 193.91 45.21, 231.29 2.31 M160.83 89.46 C177.36 71.19, 195.56 50.92, 236.93 1.91 M160.83 89.46 C186.36 59.75, 212.05 30.26, 236.93 1.91 M165.82 89.82 C187.26 64.01, 210.42 37.81, 241.92 2.27 M165.82 89.82 C181.85 71.17, 197.77 52.35, 241.92 2.27 M171.46 89.42 C188.77 67.53, 209.09 44.96, 247.56 1.88 M171.46 89.42 C192.42 66.15, 214.06 42.06, 247.56 1.88 M176.45 89.78 C197.07 68.81, 217.87 43.52, 251.9 2.99 M176.45 89.78 C196.7 64.36, 218.14 39.23, 251.9 2.99 M182.09 89.39 C201.82 66.31, 220.72 46.09, 256.88 3.35 M182.09 89.39 C201.56 65.41, 223.57 41.36, 256.88 3.35 M187.08 89.75 C214.09 62.38, 240.17 30.88, 259.9 5.98 M187.08 89.75 C208.42 65.39, 229.08 40.76, 259.9 5.98 M192.72 89.36 C206.18 72.36, 221.03 55.95, 263.58 7.85 M192.72 89.36 C212.47 66.92, 232.06 43.08, 263.58 7.85 M197.71 89.72 C214.92 69.83, 232.27 47.05, 266.6 10.47 M197.71 89.72 C218.59 67.38, 238.94 43.61, 266.6 10.47 M203.35 89.32 C226.34 62.17, 251.43 33.13, 268.3 14.6 M203.35 89.32 C227.25 60.65, 251.49 33.59, 268.3 14.6 M208.34 89.68 C227.77 65.65, 246.01 45.32, 269.35 19.49 M208.34 89.68 C224.73 70.65, 242.16 52.82, 269.35 19.49 M213.98 89.29 C225.63 76.23, 240.21 59.66, 269.75 25.14 M213.98 89.29 C227.42 75.25, 239.43 59.75, 269.75 25.14 M218.97 89.65 C236.08 69.03, 255.75 49.02, 269.49 31.53 M218.97 89.65 C232.37 74.59, 247.17 57.48, 269.49 31.53 M224.61 89.25 C243.28 70.98, 257.38 49.53, 269.88 37.18 M224.61 89.25 C240.88 70.59, 255.86 52.22, 269.88 37.18 M229.6 89.61 C237.02 78.14, 247.62 69.85, 269.62 43.57 M229.6 89.61 C240.26 77.2, 250.14 65.74, 269.62 43.57 M234.59 89.97 C247.63 73.74, 264.74 57.23, 270.01 49.22 M234.59 89.97 C241.18 81.71, 248.53 73, 270.01 49.22 M240.23 89.58 C246.81 82.37, 252.31 73.62, 269.75 55.62 M240.23 89.58 C247.86 79.49, 256.92 71.22, 269.75 55.62 M245.87 89.18 C253.96 80.21, 266.68 66.16, 270.15 61.26 M245.87 89.18 C252.34 82.34, 257.87 75.74, 270.15 61.26 M252.17 88.03 C257.29 81.58, 265.31 71.23, 269.23 68.41 M252.17 88.03 C256.99 83.67, 260.38 78.68, 269.23 68.41" stroke="#ffc9c9" stroke-width="0.5" fill="none"></path><path d="M22.27 0 C79.87 1.33, 139.05 0.51, 245.26 0 M22.27 0 C71.86 0.84, 122.4 1.69, 245.26 0 M245.26 0 C261.88 -0.89, 266.54 6.11, 267.53 22.27 M245.26 0 C259.04 1.07, 269.5 8.53, 267.53 22.27 M267.53 22.27 C269.68 36.06, 268.54 45.43, 267.53 66.82 M267.53 22.27 C268.03 37.97, 268.44 52.18, 267.53 66.82 M267.53 66.82 C268.56 80.79, 260.96 90.86, 245.26 89.09 M267.53 66.82 C269.71 80.96, 257.84 87.28, 245.26 89.09 M245.26 89.09 C176.42 89.79, 108.05 90.11, 22.27 89.09 M245.26 89.09 C196.48 89.32, 148.05 90.02, 22.27 89.09 M22.27 89.09 C7.1 89, 1.71 82.48, 0 66.82 M22.27 89.09 C9.23 89.78, 0.71 83.59, 0 66.82 M0 66.82 C-1.5 51.82, -2.1 32.7, 0 22.27 M0 66.82 C-0.03 52.23, -0.12 36.47, 0 22.27 M0 22.27 C1.86 5.43, 9.06 -1.61, 22.27 0 M0 22.27 C1.34 7.5, 5.92 2.28, 22.27 0" stroke="#000000" stroke-width="1" fill="none"></path></g><g transform="translate(79.09771728515625 41.54351806640625) rotate(0 70 17.5)"><text x="70" y="0" font-family="Virgil, Segoe UI Emoji" font-size="28px" fill="#1e1e1e" text-anchor="middle" style="white-space: pre;" direction="ltr" dominant-baseline="text-before-edge">服务链路长</text></g><g stroke-linecap="round" transform="translate(14.000030517578125 162.5) rotate(0 133.76437377929688 44.54351806640625)"><path d="M2.81 9.07 C2.81 9.07, 2.81 9.07, 2.81 9.07 M2.81 9.07 C2.81 9.07, 2.81 9.07, 2.81 9.07 M0.58 17.73 C3.38 10.95, 8.71 7.87, 13.7 2.64 M0.58 17.73 C5.94 12.77, 8.49 6.92, 13.7 2.64 M0.98 23.37 C7.92 14.66, 11.76 10.71, 20.66 0.73 M0.98 23.37 C7.24 14.08, 14.58 6.46, 20.66 0.73 M0.71 29.77 C7.97 19.5, 14.31 10.68, 26.3 0.34 M0.71 29.77 C7.57 22.69, 12.23 17.48, 26.3 0.34 M1.11 35.41 C7.68 28.13, 16.56 15.82, 31.94 -0.06 M1.11 35.41 C10.33 24.97, 20.5 13.17, 31.94 -0.06 M0.85 41.81 C16.11 24.38, 28.52 7.03, 36.93 0.3 M0.85 41.81 C14.13 27.5, 26.94 12.97, 36.93 0.3 M0.59 48.21 C17.09 28.3, 32.51 12.8, 42.57 -0.09 M0.59 48.21 C14.03 32.28, 29.2 16.33, 42.57 -0.09 M0.98 53.85 C9.08 43.18, 20.29 30.5, 47.56 0.27 M0.98 53.85 C12.21 40.8, 23.06 28.47, 47.56 0.27 M0.72 60.25 C19.11 38.65, 38.6 16.07, 53.2 -0.13 M0.72 60.25 C19.33 38.35, 37.1 18.5, 53.2 -0.13 M1.11 65.89 C24.19 38.73, 46.42 13.9, 58.19 0.23 M1.11 65.89 C24.15 39.26, 47.63 13.98, 58.19 0.23 M0.85 72.29 C24.08 47.43, 46.48 21.72, 63.83 -0.16 M0.85 72.29 C20.39 49.27, 40.35 27.32, 63.83 -0.16 M2.56 76.43 C17.3 58.69, 31.76 42.99, 68.82 0.2 M2.56 76.43 C22.86 51.08, 46.09 26.27, 68.82 0.2 M4.27 80.56 C28.52 51.56, 55.21 21.46, 74.46 -0.19 M4.27 80.56 C26.82 55.84, 50.19 28.74, 74.46 -0.19 M6.63 83.94 C23.03 66.4, 38.4 46.47, 79.45 0.17 M6.63 83.94 C31.19 57.46, 53.67 31.07, 79.45 0.17 M10.3 85.81 C36.87 53, 65.18 22.73, 84.44 0.53 M10.3 85.81 C32.64 58.95, 56.21 33.63, 84.44 0.53 M13.98 87.68 C28.79 68.57, 44.83 51.15, 90.08 0.13 M13.98 87.68 C33.79 64.76, 55.34 40.87, 90.08 0.13 M18.31 88.79 C47.42 55.5, 77.98 19.76, 95.07 0.49 M18.31 88.79 C46.38 56.76, 72.28 25.35, 95.07 0.49 M22.64 89.91 C41.91 65.98, 64.35 40.52, 100.71 0.1 M22.64 89.91 C40 69.11, 59.7 46.85, 100.71 0.1 M28.28 89.51 C48.5 64.71, 70.83 39.8, 105.7 0.46 M28.28 89.51 C57.89 53.44, 89.45 18.74, 105.7 0.46 M33.27 89.87 C57.62 62.14, 80.66 35.98, 111.34 0.06 M33.27 89.87 C56.12 62.22, 78.34 35.91, 111.34 0.06 M38.91 89.48 C67.55 53.57, 98.77 22.34, 116.33 0.42 M38.91 89.48 C60.52 64.51, 81.25 42.31, 116.33 0.42 M43.9 89.84 C70.83 60.03, 96.3 30.48, 121.97 0.03 M43.9 89.84 C67.17 64.34, 90.6 36.81, 121.97 0.03 M49.54 89.44 C74.96 62.33, 95.94 33.52, 126.96 0.39 M49.54 89.44 C73.13 63.03, 95.58 35.48, 126.96 0.39 M54.53 89.8 C83.43 57, 111.04 24.48, 132.6 -0.01 M54.53 89.8 C77.52 64.53, 98.55 37.65, 132.6 -0.01 M60.17 89.41 C80.91 66.76, 97.33 47.49, 137.59 0.35 M60.17 89.41 C82.76 61.48, 105.86 35.72, 137.59 0.35 M65.16 89.77 C90.75 59.68, 117.09 30.36, 143.23 -0.04 M65.16 89.77 C89.25 61.06, 114.25 33.54, 143.23 -0.04 M70.8 89.37 C97.91 54.81, 127.1 20.17, 148.22 0.32 M70.8 89.37 C99.66 54.95, 130.23 22.26, 148.22 0.32 M75.79 89.73 C104.17 56.22, 132.95 24.69, 153.86 -0.08 M75.79 89.73 C105.41 55.35, 136.96 20.58, 153.86 -0.08 M81.43 89.34 C96.99 71.47, 112.37 51.59, 158.85 0.28 M81.43 89.34 C109.11 58.45, 134.89 26.76, 158.85 0.28 M86.42 89.7 C112.44 58.85, 137.93 32.76, 164.49 -0.11 M86.42 89.7 C113.12 60.11, 140.71 30.01, 164.49 -0.11 M92.06 89.31 C107.56 68.85, 126.88 49.47, 169.48 0.25 M92.06 89.31 C112.49 66.25, 133.66 41.29, 169.48 0.25 M97.05 89.67 C118.2 66.72, 139.44 41.44, 175.12 -0.14 M97.05 89.67 C125.7 55.34, 155.17 22.2, 175.12 -0.14 M102.69 89.27 C122.9 65.92, 140.65 47.41, 180.11 0.22 M102.69 89.27 C128.26 57.82, 155.45 28.02, 180.11 0.22 M107.68 89.63 C135.29 60.89, 162.77 28.2, 185.75 -0.18 M107.68 89.63 C130.52 64.09, 153.16 38.42, 185.75 -0.18 M112.67 89.99 C134.49 62.73, 156.44 39.72, 190.74 0.18 M112.67 89.99 C130.79 69.25, 148.79 47.97, 190.74 0.18 M118.31 89.6 C145.74 56.34, 172.52 25.31, 195.73 0.54 M118.31 89.6 C139.16 66.61, 160.99 41.22, 195.73 0.54 M123.3 89.96 C149.55 64.05, 171.03 35.65, 201.37 0.15 M123.3 89.96 C145.79 63.72, 169.61 37.18, 201.37 0.15 M128.94 89.56 C157.32 55.04, 186.02 25.9, 206.36 0.51 M128.94 89.56 C154.04 62.16, 176.97 33.37, 206.36 0.51 M133.93 89.92 C151.17 72.26, 168.42 51.16, 212 0.11 M133.93 89.92 C165.53 54.53, 194.35 19.75, 212 0.11 M139.57 89.53 C161.16 62.7, 186.33 38.21, 216.99 0.47 M139.57 89.53 C169.14 55.7, 198.79 21.78, 216.99 0.47 M144.56 89.89 C166.28 67.64, 186.32 42.01, 222.63 0.08 M144.56 89.89 C164.91 66.86, 184.33 44.73, 222.63 0.08 M150.2 89.49 C177.51 62.27, 199.94 34.36, 227.62 0.44 M150.2 89.49 C167.76 68.27, 186.35 48.86, 227.62 0.44 M155.19 89.85 C181.72 59.19, 205.98 30.25, 233.26 0.04 M155.19 89.85 C179.53 61.26, 204.46 31.52, 233.26 0.04 M160.83 89.46 C181.47 63.9, 203.81 38.03, 238.25 0.4 M160.83 89.46 C177.72 69.08, 194.89 49.59, 238.25 0.4 M165.82 89.82 C196.46 54.56, 223.19 24.28, 243.89 0.01 M165.82 89.82 C189.16 62.12, 213.46 36.07, 243.89 0.01 M171.46 89.42 C190.61 63.44, 211.26 41.67, 248.22 1.12 M171.46 89.42 C194.05 63.23, 215.9 38.5, 248.22 1.12 M176.45 89.78 C203.71 56.55, 234.35 25.83, 253.21 1.48 M176.45 89.78 C194.32 68.8, 212.18 48.55, 253.21 1.48 M182.09 89.39 C202.64 70.67, 218.98 46.14, 256.88 3.35 M182.09 89.39 C209.66 57.63, 238.83 24.09, 256.88 3.35 M187.08 89.75 C200.82 73, 215.8 54.22, 260.56 5.22 M187.08 89.75 C215.16 57.98, 244.2 24.03, 260.56 5.22 M192.72 89.36 C210.95 71.01, 225.86 52.64, 263.58 7.85 M192.72 89.36 C208.03 73.39, 221.97 54.95, 263.58 7.85 M197.71 89.72 C221.27 60.29, 246.91 32.22, 265.94 11.23 M197.71 89.72 C224.47 59.62, 252.86 27.83, 265.94 11.23 M203.35 89.32 C221.07 66.73, 240.35 45.35, 266.99 16.11 M203.35 89.32 C222.5 68.24, 241.88 47.23, 266.99 16.11 M208.34 89.68 C224.85 70.27, 243.41 47.5, 267.38 21.76 M208.34 89.68 C228.71 67.45, 246.33 46.12, 267.38 21.76 M213.98 89.29 C236.49 66.68, 256.36 41.11, 267.12 28.15 M213.98 89.29 C231.28 68.06, 249.85 48.3, 267.12 28.15 M218.97 89.65 C237.37 70.3, 252.95 47.06, 267.52 33.8 M218.97 89.65 C235.83 70.15, 252.18 51.45, 267.52 33.8 M224.61 89.25 C238.73 76.29, 249.16 58.35, 267.26 40.2 M224.61 89.25 C234.56 78.19, 245.66 65.54, 267.26 40.2 M229.6 89.61 C243.54 75.22, 255.95 61.62, 267.65 45.84 M229.6 89.61 C241.69 73.81, 255.2 59.34, 267.65 45.84 M234.59 89.97 C243.51 79.17, 253.05 69.49, 267.39 52.24 M234.59 89.97 C244.06 78.19, 254 68.71, 267.39 52.24 M240.23 89.58 C247.95 78.88, 258.59 71.97, 267.78 57.88 M240.23 89.58 C247.47 81.31, 254.08 74.43, 267.78 57.88 M245.87 89.18 C251.25 84.67, 254.22 76.29, 267.52 64.28 M245.87 89.18 C253.89 80.38, 261.3 72.22, 267.52 64.28 M252.17 88.03 C258.38 80.42, 262.32 77.04, 267.26 70.67 M252.17 88.03 C256.85 82.97, 261.16 76.74, 267.26 70.67" stroke="#b2f2bb" stroke-width="0.5" fill="none"></path><path d="M22.27 0 C106.78 1.36, 189.85 -0.64, 245.26 0 M22.27 0 C84.46 1.58, 148.98 0.91, 245.26 0 M245.26 0 C260.67 1.09, 269.36 7.98, 267.53 22.27 M245.26 0 C260.34 1.15, 265.31 7.73, 267.53 22.27 M267.53 22.27 C268.99 40.29, 266.04 57.45, 267.53 66.82 M267.53 22.27 C268.21 36.28, 267.06 47.92, 267.53 66.82 M267.53 66.82 C266.4 81.8, 261.78 90.84, 245.26 89.09 M267.53 66.82 C267.38 81.52, 262.07 89.04, 245.26 89.09 M245.26 89.09 C181.75 89.19, 117.96 86.86, 22.27 89.09 M245.26 89.09 C189.2 88.6, 131.91 88.89, 22.27 89.09 M22.27 89.09 C8.81 90.4, -1.68 83.32, 0 66.82 M22.27 89.09 C7.86 89.6, -1.07 80.83, 0 66.82 M0 66.82 C0.99 58.9, 1.3 46.51, 0 22.27 M0 66.82 C0.83 53.01, 0.18 40.55, 0 22.27 M0 22.27 C-0.4 7.36, 8.32 -0.07, 22.27 0 M0 22.27 C-0.4 9.13, 7.37 -1.1, 22.27 0" stroke="#000000" stroke-width="1" fill="none"></path></g><g transform="translate(77.764404296875 189.54351806640625) rotate(0 70 17.5)"><text x="70" y="0" font-family="Virgil, Segoe UI Emoji" font-size="28px" fill="#1e1e1e" text-anchor="middle" style="white-space: pre;" direction="ltr" dominant-baseline="text-before-edge">应用监控难</text></g><g stroke-linecap="round" transform="translate(10.66668701171875 323.16668701171875) rotate(0 133.76437377929688 44.54351806640625)"><path d="M2.81 9.07 C2.81 9.07, 2.81 9.07, 2.81 9.07 M2.81 9.07 C2.81 9.07, 2.81 9.07, 2.81 9.07 M0.58 17.73 C5.49 12.01, 9.93 5.62, 13.7 2.64 M0.58 17.73 C6.07 11.8, 8.67 7.66, 13.7 2.64 M0.98 23.37 C7.6 15.02, 13.7 7.43, 20.66 0.73 M0.98 23.37 C4.18 19.38, 9.91 13.86, 20.66 0.73 M0.71 29.77 C5.6 24.11, 13.9 15.38, 26.3 0.34 M0.71 29.77 C7.78 22.51, 14 14.61, 26.3 0.34 M1.11 35.41 C8.41 26.68, 16.28 16.86, 31.94 -0.06 M1.11 35.41 C9.6 26.06, 18.15 17.04, 31.94 -0.06 M0.85 41.81 C10.44 30, 19.77 22.02, 36.93 0.3 M0.85 41.81 C9.63 30.24, 19.64 20.53, 36.93 0.3 M0.59 48.21 C14.28 32.21, 25.18 19.48, 42.57 -0.09 M0.59 48.21 C15.64 31.29, 29.36 15.84, 42.57 -0.09 M0.98 53.85 C11.69 41.53, 27.79 26.26, 47.56 0.27 M0.98 53.85 C17.18 36.19, 33.44 17.09, 47.56 0.27 M0.72 60.25 C12.39 46.89, 26.99 29.87, 53.2 -0.13 M0.72 60.25 C17.48 39.68, 36.89 20.74, 53.2 -0.13 M1.11 65.89 C18.56 48.72, 33.5 29.3, 58.19 0.23 M1.11 65.89 C17.8 48.3, 33.92 27.68, 58.19 0.23 M0.85 72.29 C15.79 54.8, 29.96 37.52, 63.83 -0.16 M0.85 72.29 C14.81 55.72, 28.76 39.79, 63.83 -0.16 M2.56 76.43 C25.6 46.61, 50.83 19.84, 68.82 0.2 M2.56 76.43 C22.44 52.02, 43.88 29.81, 68.82 0.2 M4.27 80.56 C29.22 52.07, 53.77 24, 74.46 -0.19 M4.27 80.56 C20.64 59.36, 38.57 39.34, 74.46 -0.19 M6.63 83.94 C20.71 67.59, 37.31 49.25, 79.45 0.17 M6.63 83.94 C34.24 52.79, 62.72 19.92, 79.45 0.17 M10.3 85.81 C32.68 60.29, 52.54 37.73, 84.44 0.53 M10.3 85.81 C40.1 52.71, 69.54 18.73, 84.44 0.53 M13.98 87.68 C43.09 51.55, 76.32 20.77, 90.08 0.13 M13.98 87.68 C36.51 64.12, 57.79 39.24, 90.08 0.13 M18.31 88.79 C36.97 68.56, 55.85 48.24, 95.07 0.49 M18.31 88.79 C41.18 64.02, 61.1 37.97, 95.07 0.49 M22.64 89.91 C47.29 59.13, 75.25 29.92, 100.71 0.1 M22.64 89.91 C51.51 54.81, 81.28 21.76, 100.71 0.1 M28.28 89.51 C59.91 56.23, 89.14 18.61, 105.7 0.46 M28.28 89.51 C49.25 67.06, 67.67 43.32, 105.7 0.46 M33.27 89.87 C59.04 61.54, 81.29 36.8, 111.34 0.06 M33.27 89.87 C50.97 69.03, 67.61 49.33, 111.34 0.06 M38.91 89.48 C62.59 62.16, 85.7 38.27, 116.33 0.42 M38.91 89.48 C65.89 59.11, 91.17 28.58, 116.33 0.42 M43.9 89.84 C64.38 67.74, 87.3 41.55, 121.97 0.03 M43.9 89.84 C72.78 57.93, 101.97 24.58, 121.97 0.03 M49.54 89.44 C69.33 67.06, 86.58 45.19, 126.96 0.39 M49.54 89.44 C69.6 66.76, 88.93 44.03, 126.96 0.39 M54.53 89.8 C71.53 71.02, 90.19 50.22, 132.6 -0.01 M54.53 89.8 C80.7 59.32, 107.06 29.07, 132.6 -0.01 M60.17 89.41 C82 63.16, 105.56 36.52, 137.59 0.35 M60.17 89.41 C76.49 70.44, 92.67 51.31, 137.59 0.35 M65.16 89.77 C82.95 67.29, 103.77 44.15, 143.23 -0.04 M65.16 89.77 C86.67 65.87, 108.84 41.18, 143.23 -0.04 M70.8 89.37 C91.97 67.8, 113.3 41.9, 148.22 0.32 M70.8 89.37 C91.6 63.29, 113.61 37.51, 148.22 0.32 M75.79 89.73 C96.33 65.71, 116.04 44.56, 153.86 -0.08 M75.79 89.73 C96.16 64.71, 119.09 39.58, 153.86 -0.08 M81.43 89.34 C110.09 60.12, 137.77 26.77, 158.85 0.28 M81.43 89.34 C104.1 63.44, 126.1 37.29, 158.85 0.28 M86.42 89.7 C101.37 70.94, 117.71 52.81, 164.49 -0.11 M86.42 89.7 C108.13 64.96, 129.75 38.78, 164.49 -0.11 M92.06 89.31 C111.45 66.76, 131.07 41.36, 169.48 0.25 M92.06 89.31 C115.5 64.13, 138.36 37.47, 169.48 0.25 M97.05 89.67 C124.83 56.96, 154.77 22.33, 175.12 -0.14 M97.05 89.67 C125.89 55.4, 154.96 22.79, 175.12 -0.14 M102.69 89.27 C127.46 59.31, 150.91 32.98, 180.11 0.22 M102.69 89.27 C123.55 65.3, 145.39 42.39, 180.11 0.22 M107.68 89.63 C124.46 70.65, 144.37 47.94, 185.75 -0.18 M107.68 89.63 C126.28 69.91, 143.44 48.48, 185.75 -0.18 M112.67 89.99 C139.99 58.23, 169.59 26.79, 190.74 0.18 M112.67 89.99 C133.52 66.35, 155.9 40.53, 190.74 0.18 M118.31 89.6 C149.24 57.54, 175.37 22.25, 195.73 0.54 M118.31 89.6 C145.86 58.1, 172.13 26.75, 195.73 0.54 M123.3 89.96 C138.35 68.98, 156.91 51.53, 201.37 0.15 M123.3 89.96 C144.38 65.77, 164.26 42.81, 201.37 0.15 M128.94 89.56 C158.85 53.89, 192.61 18.23, 206.36 0.51 M128.94 89.56 C144.43 71.26, 160.19 52.87, 206.36 0.51 M133.93 89.92 C151.74 69.27, 168.87 47.15, 212 0.11 M133.93 89.92 C154.5 64.11, 176.85 40.55, 212 0.11 M139.57 89.53 C168.54 56.94, 201.67 19.42, 216.99 0.47 M139.57 89.53 C159.41 67.6, 177.74 46.26, 216.99 0.47 M144.56 89.89 C173.7 56.34, 205.22 18.97, 222.63 0.08 M144.56 89.89 C164.12 68.64, 182.22 46.74, 222.63 0.08 M150.2 89.49 C172.04 62.72, 193.89 38.42, 227.62 0.44 M150.2 89.49 C174.04 61.06, 200.69 31.18, 227.62 0.44 M155.19 89.85 C181.29 58.89, 208.41 27.36, 233.26 0.04 M155.19 89.85 C185.96 55.92, 217.04 20.61, 233.26 0.04 M160.83 89.46 C179.94 63.2, 203.55 38.72, 238.25 0.4 M160.83 89.46 C183.26 63.64, 206.9 37.75, 238.25 0.4 M165.82 89.82 C192.31 55.67, 219.36 26.53, 243.89 0.01 M165.82 89.82 C184.3 68.78, 201.2 48.34, 243.89 0.01 M171.46 89.42 C189.11 70.34, 206.68 48.3, 248.22 1.12 M171.46 89.42 C201.91 55.15, 231.15 22.41, 248.22 1.12 M176.45 89.78 C196.17 68.08, 213.83 47.27, 253.21 1.48 M176.45 89.78 C204.65 59.15, 231.49 26.84, 253.21 1.48 M182.09 89.39 C203.37 69.07, 220.28 43.08, 256.88 3.35 M182.09 89.39 C198.74 70.8, 214.38 51.81, 256.88 3.35 M187.08 89.75 C213.56 55.48, 244.08 26.61, 260.56 5.22 M187.08 89.75 C207.88 66.29, 229.02 42.26, 260.56 5.22 M192.72 89.36 C216.58 62.83, 242.03 32.58, 263.58 7.85 M192.72 89.36 C207.65 70.96, 224.24 53.01, 263.58 7.85 M197.71 89.72 C219.1 67.08, 238.85 42.44, 265.94 11.23 M197.71 89.72 C223.6 58.7, 250.78 28.69, 265.94 11.23 M203.35 89.32 C225.06 67.82, 244.33 40.22, 266.99 16.11 M203.35 89.32 C228.4 60.83, 251.58 33.69, 266.99 16.11 M208.34 89.68 C224.9 70.79, 238.82 52.43, 267.38 21.76 M208.34 89.68 C228.48 66.68, 249.16 43.48, 267.38 21.76 M213.98 89.29 C230.26 70.74, 242.69 55.02, 267.12 28.15 M213.98 89.29 C231 70.32, 245.87 51.57, 267.12 28.15 M218.97 89.65 C235.53 68.13, 255.54 48.36, 267.52 33.8 M218.97 89.65 C234.03 70.72, 249.33 54.78, 267.52 33.8 M224.61 89.25 C242.65 70.03, 256.11 51.13, 267.26 40.2 M224.61 89.25 C240.35 70.26, 255.76 53.22, 267.26 40.2 M229.6 89.61 C244.55 72.62, 259.35 54.03, 267.65 45.84 M229.6 89.61 C243.91 73.39, 256.62 58.42, 267.65 45.84 M234.59 89.97 C241.61 79.87, 249.69 73.03, 267.39 52.24 M234.59 89.97 C247.59 74.58, 258.91 61.1, 267.39 52.24 M240.23 89.58 C248.1 79.14, 257.22 70.8, 267.78 57.88 M240.23 89.58 C247.25 81.1, 253.38 74.24, 267.78 57.88 M245.87 89.18 C253.02 80.85, 259.21 74.25, 267.52 64.28 M245.87 89.18 C252.74 81.68, 257.26 74.77, 267.52 64.28 M252.17 88.03 C254.14 83.43, 261.47 78.81, 267.26 70.67 M252.17 88.03 C258.38 80.51, 263.78 74.5, 267.26 70.67" stroke="#a5d8ff" stroke-width="0.5" fill="none"></path><path d="M22.27 0 C101.18 -0.67, 177.61 1.16, 245.26 0 M22.27 0 C80.35 2.16, 137.12 2.31, 245.26 0 M245.26 0 C260.62 1.45, 268.43 8.82, 267.53 22.27 M245.26 0 C260.86 1.4, 268.84 5.35, 267.53 22.27 M267.53 22.27 C268.73 36.98, 266.44 54.33, 267.53 66.82 M267.53 22.27 C268.52 36.74, 266.93 51.82, 267.53 66.82 M267.53 66.82 C266.41 82.2, 258.94 89.23, 245.26 89.09 M267.53 66.82 C269.58 81.65, 260.86 88.11, 245.26 89.09 M245.26 89.09 C158.24 90.15, 69.92 89.84, 22.27 89.09 M245.26 89.09 C157.73 91.57, 68.64 91.14, 22.27 89.09 M22.27 89.09 C8.65 91.08, 0.13 80.13, 0 66.82 M22.27 89.09 C7.79 87.52, -0.29 81.71, 0 66.82 M0 66.82 C0.03 48.52, 1.44 32.59, 0 22.27 M0 66.82 C0.26 51.25, 0.1 35.39, 0 22.27 M0 22.27 C0.3 8.44, 6.34 0.1, 22.27 0 M0 22.27 C-1.22 7.8, 8.24 -1.97, 22.27 0" stroke="#000000" stroke-width="1" fill="none"></path></g><g transform="translate(74.43106079101562 350.210205078125) rotate(0 70 17.5)"><text x="70" y="0" font-family="Virgil, Segoe UI Emoji" font-size="28px" fill="#1e1e1e" text-anchor="middle" style="white-space: pre;" direction="ltr" dominant-baseline="text-before-edge">预警速度慢</text></g><g stroke-linecap="round" transform="translate(10 477.5) rotate(0 133.76437377929688 44.54351806640625)"><path d="M2.81 9.07 C2.81 9.07, 2.81 9.07, 2.81 9.07 M2.81 9.07 C2.81 9.07, 2.81 9.07, 2.81 9.07 M0.58 17.73 C2.82 14.88, 6.43 11.8, 13.7 2.64 M0.58 17.73 C4.67 12.19, 10.62 7.2, 13.7 2.64 M0.98 23.37 C9.3 15.74, 13.71 5.89, 20.66 0.73 M0.98 23.37 C6.56 16.79, 10.58 12.07, 20.66 0.73 M0.71 29.77 C5.67 22.21, 14.46 14.44, 26.3 0.34 M0.71 29.77 C8.46 19.76, 17.13 10.53, 26.3 0.34 M1.11 35.41 C10.18 25.16, 22.52 13.05, 31.94 -0.06 M1.11 35.41 C11.12 23.04, 21.2 11.68, 31.94 -0.06 M0.85 41.81 C15.36 28.74, 26.05 15.07, 36.93 0.3 M0.85 41.81 C9.14 33.6, 16.1 23.81, 36.93 0.3 M0.59 48.21 C14.03 31.62, 27.75 14.92, 42.57 -0.09 M0.59 48.21 C14.26 32.36, 27.91 16.18, 42.57 -0.09 M0.98 53.85 C15.12 39.06, 27.42 27.29, 47.56 0.27 M0.98 53.85 C18.47 33.97, 36.07 13.12, 47.56 0.27 M0.72 60.25 C16.06 42.4, 31.11 23.34, 53.2 -0.13 M0.72 60.25 C11.9 46.92, 22.79 32.83, 53.2 -0.13 M1.11 65.89 C22.21 42.15, 42.56 17.5, 58.19 0.23 M1.11 65.89 C13.93 52.56, 25.89 37.36, 58.19 0.23 M0.85 72.29 C22.4 50.84, 39.66 28.51, 63.83 -0.16 M0.85 72.29 C24.35 44.22, 48.13 16.98, 63.83 -0.16 M2.56 76.43 C22.66 52.62, 45.63 25.27, 68.82 0.2 M2.56 76.43 C28.34 47.72, 54.04 18.96, 68.82 0.2 M4.27 80.56 C23.29 62.19, 38.18 40.77, 74.46 -0.19 M4.27 80.56 C25.51 55.66, 46.49 30.52, 74.46 -0.19 M6.63 83.94 C28.67 57.79, 51.39 32.72, 79.45 0.17 M6.63 83.94 C35.86 50.76, 63.63 17.26, 79.45 0.17 M10.3 85.81 C40.98 50.6, 68.84 17.9, 84.44 0.53 M10.3 85.81 C30.59 63.87, 49.35 42.21, 84.44 0.53 M13.98 87.68 C40.57 58.31, 65.22 29.37, 90.08 0.13 M13.98 87.68 C29.28 68.83, 46.26 50.17, 90.08 0.13 M18.31 88.79 C34.7 66.67, 54.67 46.91, 95.07 0.49 M18.31 88.79 C39.57 65.4, 61.8 39.69, 95.07 0.49 M22.64 89.91 C54.71 56.53, 82.94 21.16, 100.71 0.1 M22.64 89.91 C46.36 63.15, 68.26 38.07, 100.71 0.1 M28.28 89.51 C45.28 71.26, 62.5 52.14, 105.7 0.46 M28.28 89.51 C55.8 59.99, 81.08 29.71, 105.7 0.46 M33.27 89.87 C53.39 66.24, 70.25 47.07, 111.34 0.06 M33.27 89.87 C56.61 62, 80.04 34.57, 111.34 0.06 M38.91 89.48 C65.7 57.88, 96.12 22.07, 116.33 0.42 M38.91 89.48 C53.86 70.81, 70.12 54.73, 116.33 0.42 M43.9 89.84 C63.11 69.55, 82.43 43.03, 121.97 0.03 M43.9 89.84 C59.25 71.61, 74.6 53.39, 121.97 0.03 M49.54 89.44 C79.02 54.78, 107.04 23.14, 126.96 0.39 M49.54 89.44 C76.4 57.96, 105.6 25.65, 126.96 0.39 M54.53 89.8 C73.41 72.41, 87.38 49.39, 132.6 -0.01 M54.53 89.8 C70.16 70.95, 86.46 53.14, 132.6 -0.01 M60.17 89.41 C78.55 69.92, 93.11 48.92, 137.59 0.35 M60.17 89.41 C83.22 62.79, 105.61 36.52, 137.59 0.35 M65.16 89.77 C82.51 67.73, 102.38 45.3, 143.23 -0.04 M65.16 89.77 C95.56 56.78, 124.48 21.86, 143.23 -0.04 M70.8 89.37 C98.09 58.03, 124.91 27, 148.22 0.32 M70.8 89.37 C88.1 71.26, 103.99 51.36, 148.22 0.32 M75.79 89.73 C99.44 61.64, 124.94 31.02, 153.86 -0.08 M75.79 89.73 C96.55 67.06, 117.19 44.36, 153.86 -0.08 M81.43 89.34 C109.21 53.71, 142.11 18.84, 158.85 0.28 M81.43 89.34 C104.43 61.45, 128.07 32.91, 158.85 0.28 M86.42 89.7 C114.22 59.33, 139.05 29.62, 164.49 -0.11 M86.42 89.7 C104 69.05, 123 48.55, 164.49 -0.11 M92.06 89.31 C116.38 60.77, 141.54 34.36, 169.48 0.25 M92.06 89.31 C118.29 59.97, 142.73 30.74, 169.48 0.25 M97.05 89.67 C119.71 64.41, 136.63 40.51, 175.12 -0.14 M97.05 89.67 C123.49 59.08, 149.41 31.02, 175.12 -0.14 M102.69 89.27 C125.92 61.78, 154.64 31.3, 180.11 0.22 M102.69 89.27 C131.2 57.5, 159.14 25.41, 180.11 0.22 M107.68 89.63 C137.03 58.7, 162.51 25.18, 185.75 -0.18 M107.68 89.63 C128.91 65.41, 150.65 39.86, 185.75 -0.18 M112.67 89.99 C129.73 70.85, 144.88 53.19, 190.74 0.18 M112.67 89.99 C133.93 65.36, 156.26 40.39, 190.74 0.18 M118.31 89.6 C148.82 56.83, 173.06 25.96, 195.73 0.54 M118.31 89.6 C136.5 67.03, 156.02 45.82, 195.73 0.54 M123.3 89.96 C150.17 56.91, 177.56 28.17, 201.37 0.15 M123.3 89.96 C147.73 62.79, 171.8 34.66, 201.37 0.15 M128.94 89.56 C154.71 57.04, 183.06 27.84, 206.36 0.51 M128.94 89.56 C147.54 66.58, 166.33 46.42, 206.36 0.51 M133.93 89.92 C155.74 64.66, 179.59 38.11, 212 0.11 M133.93 89.92 C149.57 69.84, 168.57 51.75, 212 0.11 M139.57 89.53 C156.86 66.94, 174.59 49.81, 216.99 0.47 M139.57 89.53 C168.04 55.83, 198.22 24.55, 216.99 0.47 M144.56 89.89 C161.52 70.79, 176.38 54.04, 222.63 0.08 M144.56 89.89 C172.74 56.27, 202.08 23.92, 222.63 0.08 M150.2 89.49 C167.52 67.43, 188.54 47.98, 227.62 0.44 M150.2 89.49 C177.15 56, 206.28 23.75, 227.62 0.44 M155.19 89.85 C173.35 68.61, 193.35 46.48, 233.26 0.04 M155.19 89.85 C172.65 68.74, 191.39 48.84, 233.26 0.04 M160.83 89.46 C184.5 61.78, 209.44 34.37, 238.25 0.4 M160.83 89.46 C178.55 67.24, 196.69 46.33, 238.25 0.4 M165.82 89.82 C190.55 63.8, 215.04 35.12, 243.89 0.01 M165.82 89.82 C186.45 64.16, 209.12 39.26, 243.89 0.01 M171.46 89.42 C189.22 69.65, 206.8 49.33, 248.22 1.12 M171.46 89.42 C191.35 66.61, 210.02 45.61, 248.22 1.12 M176.45 89.78 C204.06 58.52, 234.41 23.53, 253.21 1.48 M176.45 89.78 C201.38 59.79, 228.61 29.34, 253.21 1.48 M182.09 89.39 C203.81 64.47, 226.63 41.47, 256.88 3.35 M182.09 89.39 C207.02 62.13, 229.6 35.43, 256.88 3.35 M187.08 89.75 C211.19 61.54, 236.49 32.23, 260.56 5.22 M187.08 89.75 C214.54 57.13, 242.47 26.1, 260.56 5.22 M192.72 89.36 C213.15 65.79, 236.51 40.64, 263.58 7.85 M192.72 89.36 C209.86 72.69, 224.59 53.05, 263.58 7.85 M197.71 89.72 C219.16 67.21, 237.36 43.9, 265.94 11.23 M197.71 89.72 C221.85 62.86, 244.94 35.32, 265.94 11.23 M203.35 89.32 C223.21 64.36, 244.93 40.74, 266.99 16.11 M203.35 89.32 C217.55 73.47, 230.62 57.75, 266.99 16.11 M208.34 89.68 C229.96 63.35, 250.62 40.43, 267.38 21.76 M208.34 89.68 C227.49 68.06, 244.66 45.38, 267.38 21.76 M213.98 89.29 C230.72 69.76, 249.48 45.35, 267.12 28.15 M213.98 89.29 C225 76.82, 236.69 63.64, 267.12 28.15 M218.97 89.65 C231.57 78.13, 243.06 64.27, 267.52 33.8 M218.97 89.65 C237.85 69.13, 256.04 48.88, 267.52 33.8 M224.61 89.25 C234.51 77.17, 241.52 68.33, 267.26 40.2 M224.61 89.25 C238.39 73.39, 253.15 56.7, 267.26 40.2 M229.6 89.61 C244.54 74.02, 258.52 57.35, 267.65 45.84 M229.6 89.61 C240.9 76.94, 253.85 61.94, 267.65 45.84 M234.59 89.97 C244.42 78.98, 250.21 70.78, 267.39 52.24 M234.59 89.97 C242.7 80.55, 251.47 71.11, 267.39 52.24 M240.23 89.58 C248.02 81.21, 253.03 74.97, 267.78 57.88 M240.23 89.58 C248.82 80.01, 257.31 69.58, 267.78 57.88 M245.87 89.18 C253.43 80.08, 263.42 70.77, 267.52 64.28 M245.87 89.18 C254.25 78.36, 263.34 69.71, 267.52 64.28 M252.17 88.03 C256.56 83.08, 262.41 75.46, 267.26 70.67 M252.17 88.03 C257.22 82.54, 262.02 77.3, 267.26 70.67" stroke="#ffec99" stroke-width="0.5" fill="none"></path><path d="M22.27 0 C104.44 -1.7, 189.44 -1.24, 245.26 0 M22.27 0 C93.9 -0.63, 166.18 0.5, 245.26 0 M245.26 0 C259.84 -0.78, 267.57 6.51, 267.53 22.27 M245.26 0 C261.69 1.86, 267.91 6.51, 267.53 22.27 M267.53 22.27 C267.7 32.86, 268.07 41.36, 267.53 66.82 M267.53 22.27 C268.39 33.23, 267.97 43.22, 267.53 66.82 M267.53 66.82 C268 81.46, 261.35 88.16, 245.26 89.09 M267.53 66.82 C269.64 82.57, 258.55 88.05, 245.26 89.09 M245.26 89.09 C191.93 86.24, 134.89 88.49, 22.27 89.09 M245.26 89.09 C178.01 90.2, 110.87 91.07, 22.27 89.09 M22.27 89.09 C7.85 88.3, -0.32 81.82, 0 66.82 M22.27 89.09 C5.87 90.7, -2.09 81.92, 0 66.82 M0 66.82 C-0.49 54.71, 0.35 42.35, 0 22.27 M0 66.82 C-0.69 53, -1.37 41.66, 0 22.27 M0 22.27 C1.74 7.1, 7.45 -0.94, 22.27 0 M0 22.27 C2.19 9.53, 8.92 1.99, 22.27 0" stroke="#000000" stroke-width="1" fill="none"></path></g><g transform="translate(73.76437377929688 504.54351806640625) rotate(0 70 17.5)"><text x="70" y="0" font-family="Virgil, Segoe UI Emoji" font-size="28px" fill="#1e1e1e" text-anchor="middle" style="white-space: pre;" direction="ltr" dominant-baseline="text-before-edge">日志查询慢</text></g><g stroke-linecap="round"><g transform="translate(349.7776112833386 52.441526506805104) rotate(0 118.42135620117188 -1.831146240234375)"><path d="M-0.91 -0.71 C38.44 -1.58, 196.14 -3.72, 235.8 -4.27 M0.82 1.53 C40.55 0.72, 198.7 -2.32, 237.97 -3.06" stroke="#e03131" stroke-width="2" fill="none"></path></g></g><mask></mask><g stroke-linecap="round"><g transform="translate(588.5445180216199 34.514158342742604) rotate(0 -0.57928466796875 14.849395751953125)"><path d="M-0.48 -0.28 C-0.59 4.7, -0.87 24.55, -1.06 29.53 M0.28 0.77 C0.14 5.85, -1.3 25.25, -1.44 30.15" stroke="#e03131" stroke-width="2" fill="none"></path></g></g><mask></mask><g stroke-linecap="round"><g transform="translate(587.0027089395886 32.353452776336354) rotate(0 15.087677001953125 8.0018310546875)"><path d="M0.21 -0.36 C5.24 2.37, 23.95 13.14, 29.12 15.81 M-1.14 -1.6 C4.34 1.38, 25.91 14.18, 31.28 17.24" stroke="#e03131" stroke-width="2" fill="none"></path></g></g><mask></mask><g stroke-linecap="round"><g transform="translate(618.0811391153699 48.100828264617604) rotate(0 -14.11944580078125 7.4669189453125)"><path d="M-0.48 -0.09 C-5.12 2.4, -23.19 12.27, -27.74 14.76 M0.27 -0.61 C-4.41 1.97, -23.22 12.71, -27.92 15.37" stroke="#e03131" stroke-width="2" fill="none"></path></g></g><mask></mask><g stroke-linecap="round" transform="translate(684.6667022705078 10) rotate(0 185.43106079101562 44.54351806640625)"><path d="M5.27 5.91 C5.27 5.91, 5.27 5.91, 5.27 5.91 M5.27 5.91 C5.27 5.91, 5.27 5.91, 5.27 5.91 M3.04 14.57 C5.83 12.57, 7.6 10.21, 13.54 2.49 M3.04 14.57 C5.77 11.72, 8.31 7.38, 13.54 2.49 M0.81 23.23 C7.82 18.29, 10.95 9.94, 19.84 1.35 M0.81 23.23 C6.61 18.16, 10.22 11.2, 19.84 1.35 M1.21 28.88 C8.03 21.09, 11.28 16.08, 24.83 1.71 M1.21 28.88 C7.76 21.44, 13.02 14.72, 24.83 1.71 M0.95 35.27 C10 27.29, 19.15 14.42, 29.81 2.07 M0.95 35.27 C12.01 23.47, 23.38 8.56, 29.81 2.07 M0.68 41.67 C14.74 29.64, 23.76 15.93, 35.46 1.67 M0.68 41.67 C9.95 31.9, 18.22 22.35, 35.46 1.67 M1.08 47.31 C15.71 31.75, 26.64 16.22, 40.44 2.03 M1.08 47.31 C13.84 34.3, 26.26 18.6, 40.44 2.03 M0.82 53.71 C10.81 43.87, 20.47 33.28, 45.43 2.39 M0.82 53.71 C16.93 36.51, 31.09 18.61, 45.43 2.39 M1.21 59.35 C15.41 43.96, 28.01 31.35, 51.07 2 M1.21 59.35 C13.34 43.83, 27.95 28.57, 51.07 2 M0.29 66.51 C10.15 54.62, 23.87 38.76, 56.06 2.36 M0.29 66.51 C14.28 49.75, 28.97 34.74, 56.06 2.36 M0.69 72.15 C16.5 53.51, 33.28 31.56, 61.7 1.96 M0.69 72.15 C24.02 44.54, 47.18 19.28, 61.7 1.96 M1.74 77.04 C21.31 53.65, 45.04 27.76, 66.69 2.32 M1.74 77.04 C19.36 56.32, 34.78 37.02, 66.69 2.32 M4.1 80.42 C28.41 52.01, 55.92 23.06, 72.33 1.93 M4.1 80.42 C17.44 63.14, 30.39 47.39, 72.33 1.93 M6.47 83.8 C30.58 56.31, 54.3 28.23, 77.32 2.29 M6.47 83.8 C34.02 52.73, 59.47 21.1, 77.32 2.29 M10.14 85.67 C39.21 53.75, 64.98 19.23, 82.96 1.89 M10.14 85.67 C36.43 53.56, 62.75 23.04, 82.96 1.89 M13.82 87.54 C28.05 69.48, 45.42 50.5, 87.95 2.25 M13.82 87.54 C43.02 54.09, 71.42 21.46, 87.95 2.25 M17.49 89.4 C35.03 70.15, 53.99 47.46, 93.59 1.86 M17.49 89.4 C45.2 56.41, 74.1 25.2, 93.59 1.86 M23.13 89.01 C46.77 61.29, 68.05 36.65, 98.58 2.22 M23.13 89.01 C39.27 70.9, 55.78 51.93, 98.58 2.22 M28.12 89.37 C56.69 55.25, 86.5 24.76, 104.22 1.82 M28.12 89.37 C53.66 59.65, 78.48 31.05, 104.22 1.82 M33.76 88.98 C59.41 57.05, 88.59 27.55, 109.21 2.18 M33.76 88.98 C62.13 55.33, 92.5 23.16, 109.21 2.18 M38.75 89.34 C63.35 60.55, 87.32 36.87, 114.85 1.79 M38.75 89.34 C61.57 63.74, 81.4 39.85, 114.85 1.79 M44.39 88.94 C68.89 60.96, 91.64 36.86, 119.84 2.15 M44.39 88.94 C71.28 60.52, 96.64 29.69, 119.84 2.15 M49.38 89.3 C67.34 67.17, 87.69 46.1, 125.48 1.76 M49.38 89.3 C68.69 65.46, 88.64 42.37, 125.48 1.76 M55.02 88.91 C75.68 65.08, 99.44 39.92, 130.47 2.12 M55.02 88.91 C77.51 62.38, 100.15 36.57, 130.47 2.12 M60.01 89.27 C81.01 65.43, 104.39 39.75, 135.46 2.48 M60.01 89.27 C76.27 70.49, 93.65 51.75, 135.46 2.48 M65 89.63 C94.32 55.39, 125.89 20.49, 141.1 2.08 M65 89.63 C83.67 66.45, 102.04 46.15, 141.1 2.08 M70.64 89.23 C101.67 56.54, 129.32 19.05, 146.09 2.44 M70.64 89.23 C93.57 61.25, 116.95 35.75, 146.09 2.44 M75.63 89.59 C103.8 58.2, 131.62 25.14, 151.73 2.05 M75.63 89.59 C99.19 62.34, 124.47 32.51, 151.73 2.05 M81.27 89.2 C103.37 62.44, 125.3 39.32, 156.72 2.41 M81.27 89.2 C111.7 54.27, 141.73 19.4, 156.72 2.41 M86.26 89.56 C110.07 63.4, 132.49 39.15, 162.36 2.01 M86.26 89.56 C102.01 70.94, 118.19 51.96, 162.36 2.01 M91.9 89.16 C114.48 62.36, 139.75 39.04, 167.35 2.37 M91.9 89.16 C118.32 56.07, 147.4 25.36, 167.35 2.37 M96.89 89.52 C117.52 67.29, 135.89 45.3, 172.99 1.98 M96.89 89.52 C126.6 56.84, 155.02 23.25, 172.99 1.98 M102.53 89.13 C128.73 62.09, 149.04 33.46, 177.98 2.34 M102.53 89.13 C132.75 54.08, 163.54 19.7, 177.98 2.34 M107.52 89.49 C134.22 56.6, 162.2 27.59, 183.62 1.94 M107.52 89.49 C125.93 68.84, 143.14 47.44, 183.62 1.94 M113.16 89.09 C135.73 64.46, 158.22 40.99, 188.61 2.3 M113.16 89.09 C134.49 64.18, 157.28 37.49, 188.61 2.3 M118.15 89.45 C134.02 69.58, 152.41 47.39, 194.25 1.91 M118.15 89.45 C145.98 58.93, 172.91 26.27, 194.25 1.91 M123.79 89.06 C140.23 69.32, 160.36 47.22, 199.24 2.27 M123.79 89.06 C150.07 58.81, 176.38 29.48, 199.24 2.27 M128.78 89.42 C157.11 55.36, 184.03 25.73, 204.88 1.87 M128.78 89.42 C150.24 63.8, 172.07 40.31, 204.88 1.87 M134.42 89.03 C156.59 60.5, 182.94 35.86, 209.87 2.23 M134.42 89.03 C154.84 64.69, 175.67 40.67, 209.87 2.23 M139.41 89.39 C155.77 68.07, 175.82 51, 215.51 1.84 M139.41 89.39 C161.51 63.87, 184.4 38.35, 215.51 1.84 M144.4 89.75 C169.44 59.61, 194.62 32.96, 220.5 2.2 M144.4 89.75 C166.42 62.62, 190.09 36.97, 220.5 2.2 M150.04 89.35 C168.18 69.45, 185.72 50.66, 225.49 2.56 M150.04 89.35 C169.11 68.41, 189.54 45.81, 225.49 2.56 M155.03 89.71 C169.55 71.36, 186.26 54.67, 231.13 2.16 M155.03 89.71 C175.77 65.79, 196.6 42.02, 231.13 2.16 M160.67 89.32 C179.05 70.15, 194.25 51.91, 236.12 2.52 M160.67 89.32 C188.12 56.93, 217.67 23.41, 236.12 2.52 M165.66 89.68 C192.23 59.34, 221.32 30.32, 241.76 2.13 M165.66 89.68 C187.43 63.3, 211.02 37.04, 241.76 2.13 M171.3 89.28 C187.52 70.85, 204.39 49.8, 246.75 2.49 M171.3 89.28 C188.95 70.36, 206.32 50.56, 246.75 2.49 M176.29 89.64 C194.6 69.65, 213.6 45.59, 252.39 2.1 M176.29 89.64 C205.62 55.85, 232.9 24.37, 252.39 2.1 M181.93 89.25 C201.1 69.48, 216.96 47.31, 257.38 2.46 M181.93 89.25 C207.8 60.8, 234.46 31.33, 257.38 2.46 M186.92 89.61 C210.59 64.32, 231.53 38.1, 263.02 2.06 M186.92 89.61 C211.94 62.41, 235.54 33.96, 263.02 2.06 M192.56 89.21 C215 64.93, 237.74 35.16, 268.01 2.42 M192.56 89.21 C207.62 70.79, 222.25 53.59, 268.01 2.42 M197.55 89.57 C223.18 61.35, 251.81 28.06, 273.65 2.03 M197.55 89.57 C214.35 69.1, 231.29 49.18, 273.65 2.03 M203.19 89.18 C230.39 58.03, 259.8 24.86, 278.64 2.39 M203.19 89.18 C222.49 65.27, 242.36 43.31, 278.64 2.39 M208.18 89.54 C239.77 54.63, 268.45 21.6, 284.28 1.99 M208.18 89.54 C227.94 66.8, 247.19 45.96, 284.28 1.99 M213.82 89.14 C237.07 62.4, 255.02 40.86, 289.27 2.35 M213.82 89.14 C238.83 60.43, 264.51 30.34, 289.27 2.35 M218.81 89.5 C239.22 65.1, 260.62 43.52, 294.91 1.96 M218.81 89.5 C235.51 69, 253.01 49.67, 294.91 1.96 M224.45 89.11 C254.33 56.07, 279.31 22.76, 299.9 2.32 M224.45 89.11 C254.65 54.26, 282.99 21.47, 299.9 2.32 M229.44 89.47 C254.8 60.08, 281.2 28.02, 305.54 1.92 M229.44 89.47 C245.94 71.5, 261.39 52.29, 305.54 1.92 M234.42 89.83 C252.28 69.51, 268.53 50.66, 310.53 2.28 M234.42 89.83 C261.43 59.95, 287.74 28.97, 310.53 2.28 M240.07 89.44 C260.15 65.53, 275.35 44.24, 315.51 2.64 M240.07 89.44 C264.28 61.48, 290.42 31.21, 315.51 2.64 M245.05 89.8 C273.83 53.95, 303.73 21.88, 321.16 2.25 M245.05 89.8 C268.39 62.53, 290.74 36.92, 321.16 2.25 M250.7 89.4 C276.21 62.39, 298.47 37.32, 326.14 2.61 M250.7 89.4 C280.39 55.64, 310.7 21.48, 326.14 2.61 M255.68 89.76 C273.61 70.99, 292.42 51.01, 331.79 2.21 M255.68 89.76 C278.26 63.59, 300.21 37.64, 331.79 2.21 M261.33 89.37 C287.85 58.98, 312.76 30.81, 336.77 2.57 M261.33 89.37 C279.57 68.92, 297.34 48.65, 336.77 2.57 M266.31 89.73 C285.68 64.65, 309.93 41.13, 342.42 2.18 M266.31 89.73 C293.29 60.99, 317.53 30.51, 342.42 2.18 M271.96 89.33 C293.22 67.39, 314.79 41.94, 347.4 2.54 M271.96 89.33 C300.39 56.22, 329.61 23.92, 347.4 2.54 M276.94 89.69 C299.29 66.59, 319.52 43.42, 354.36 0.64 M276.94 89.69 C306.92 55.16, 337.67 21.51, 354.36 0.64 M282.59 89.3 C303.01 63.87, 325.55 36.84, 358.03 2.51 M282.59 89.3 C312.52 55.01, 341.92 21.62, 358.03 2.51 M287.57 89.66 C310.52 64.13, 332.95 34.87, 361.71 4.38 M287.57 89.66 C314.93 57.96, 343.09 23.77, 361.71 4.38 M293.22 89.26 C312.59 67, 336.48 41.94, 365.38 6.24 M293.22 89.26 C315.47 64.9, 335.2 40.51, 365.38 6.24 M298.2 89.62 C321.88 61.42, 344.92 34.86, 367.75 9.62 M298.2 89.62 C326.14 59.43, 353.89 27.67, 367.75 9.62 M303.85 89.23 C319.96 71.16, 335.94 51.82, 370.11 13 M303.85 89.23 C328.81 59.48, 355.33 29.43, 370.11 13 M308.83 89.59 C324.3 72.82, 340.11 55.46, 370.5 18.65 M308.83 89.59 C324.51 71.57, 341.9 51.7, 370.5 18.65 M314.48 89.19 C327.09 72.79, 340.11 58.49, 371.55 23.53 M314.48 89.19 C327.4 74.95, 339.14 61.93, 371.55 23.53 M319.46 89.55 C333.27 70.04, 351.53 54.43, 371.95 29.18 M319.46 89.55 C329.6 76.09, 341.45 63.28, 371.95 29.18 M324.45 89.91 C335.61 77.43, 347.81 65.08, 371.69 35.57 M324.45 89.91 C343.3 68.87, 361.02 48.39, 371.69 35.57 M330.09 89.52 C338.77 79.52, 346.99 69.67, 371.43 41.97 M330.09 89.52 C346.4 71.06, 361.13 52.88, 371.43 41.97 M335.08 89.88 C344.74 77.02, 353.44 66.54, 371.82 47.62 M335.08 89.88 C348.14 74.52, 360.79 59.14, 371.82 47.62 M340.72 89.48 C349.69 80.03, 359.4 68.31, 371.56 54.01 M340.72 89.48 C349.98 78.4, 358.3 68.12, 371.56 54.01 M345.71 89.84 C353.54 79.58, 364.04 69.92, 371.3 60.41 M345.71 89.84 C351.85 81.42, 358.91 74.53, 371.3 60.41 M350.04 90.96 C356.23 81.38, 364.58 74.04, 371.69 66.05 M350.04 90.96 C354.76 85.25, 361.81 78.38, 371.69 66.05 M356.34 89.81 C357.37 87.77, 362.07 81.54, 371.43 72.45 M356.34 89.81 C361.02 84.6, 365.43 80.08, 371.43 72.45" stroke="#ffc9c9" stroke-width="0.5" fill="none"></path><path d="M22.27 0 C120.16 -1.11, 220.63 1.11, 348.59 0 M22.27 0 C103.36 -0.89, 182.61 -1.65, 348.59 0 M348.59 0 C364.67 1.24, 372.57 9.12, 370.86 22.27 M348.59 0 C365.17 1.51, 370.33 8.4, 370.86 22.27 M370.86 22.27 C370.76 38.99, 369.58 55.15, 370.86 66.82 M370.86 22.27 C370.29 38.15, 370.37 54.39, 370.86 66.82 M370.86 66.82 C372.61 81, 363.32 87.61, 348.59 89.09 M370.86 66.82 C369.8 83.12, 363.35 87.03, 348.59 89.09 M348.59 89.09 C258.18 89.36, 168.32 91.34, 22.27 89.09 M348.59 89.09 C240.46 89.97, 132.63 90.34, 22.27 89.09 M22.27 89.09 C9.23 88.64, -0.9 83.08, 0 66.82 M22.27 89.09 C8.47 87.61, -2.11 83.17, 0 66.82 M0 66.82 C0.19 53.6, -0.58 39.07, 0 22.27 M0 66.82 C-0.45 57.36, -0.91 45.86, 0 22.27 M0 22.27 C0.21 5.89, 6.99 0.65, 22.27 0 M0 22.27 C-0.56 8.21, 9.64 1.25, 22.27 0" stroke="#000000" stroke-width="1" fill="none"></path></g><g transform="translate(700.2358093261719 19.54351806640625) rotate(0 169.86195373535156 35)"><text x="169.86195373535156" y="0" font-family="Virgil, Segoe UI Emoji" font-size="28px" fill="#1e1e1e" text-anchor="middle" style="white-space: pre;" direction="ltr" dominant-baseline="text-before-edge">Trace插件、OpenTrace方</text><text x="169.86195373535156" y="35" font-family="Virgil, Segoe UI Emoji" font-size="28px" fill="#1e1e1e" text-anchor="middle" style="white-space: pre;" direction="ltr" dominant-baseline="text-before-edge">案</text></g><g stroke-linecap="round" transform="translate(683.3333892822266 159.99996948242188) rotate(0 186.76431274414062 44.54351806640625)"><path d="M5.27 5.91 C5.27 5.91, 5.27 5.91, 5.27 5.91 M5.27 5.91 C5.27 5.91, 5.27 5.91, 5.27 5.91 M1.07 16.83 C5.26 13.33, 10.3 5.99, 14.2 1.74 M1.07 16.83 C6.08 11.76, 10.37 6.51, 14.2 1.74 M0.16 23.99 C7.8 13.8, 15.9 6.59, 20.49 0.59 M0.16 23.99 C7.01 14.5, 16.19 7.58, 20.49 0.59 M-0.1 30.38 C5.14 25.56, 10.36 18.04, 26.14 0.2 M-0.1 30.38 C7.3 22.59, 15.11 13.99, 26.14 0.2 M0.29 36.03 C14.27 22.08, 22.9 7.2, 31.78 -0.2 M0.29 36.03 C13.13 21.16, 25.75 8.79, 31.78 -0.2 M0.03 42.43 C13.52 25.2, 29.13 10.47, 36.77 0.16 M0.03 42.43 C10.94 30.42, 20.81 18.33, 36.77 0.16 M0.42 48.07 C13.71 32.2, 25.32 19.35, 42.41 -0.23 M0.42 48.07 C15.65 30.22, 33.87 11.29, 42.41 -0.23 M0.16 54.47 C17.34 34.09, 33.95 17.24, 47.4 0.13 M0.16 54.47 C14.52 37.62, 30.46 21.24, 47.4 0.13 M-0.1 60.86 C13.67 45.33, 27.77 24.77, 53.04 -0.27 M-0.1 60.86 C13.31 43.9, 29.49 26.61, 53.04 -0.27 M0.29 66.51 C21.88 40.53, 43.74 14.13, 58.03 0.09 M0.29 66.51 C12.44 52.01, 25.8 37, 58.03 0.09 M0.69 72.15 C26.14 43.73, 48.05 17.71, 63.67 -0.3 M0.69 72.15 C14.85 56.81, 28.28 40.15, 63.67 -0.3 M1.74 77.04 C24.75 49.38, 50.95 22.74, 68.66 0.06 M1.74 77.04 C17.98 60.89, 31.18 42.91, 68.66 0.06 M4.1 80.42 C23.87 56.67, 49.79 29.48, 73.65 0.42 M4.1 80.42 C22.41 60.9, 39.37 41.07, 73.65 0.42 M6.47 83.8 C32.18 55.4, 56.1 29.71, 79.29 0.02 M6.47 83.8 C31.18 58.34, 54.6 31.63, 79.29 0.02 M10.14 85.67 C37.76 57.99, 63.89 26.24, 84.28 0.38 M10.14 85.67 C29.47 63.06, 50.35 39.79, 84.28 0.38 M13.82 87.54 C41.59 57.46, 66.98 29.4, 89.92 -0.01 M13.82 87.54 C32.06 65.45, 51.48 42.36, 89.92 -0.01 M17.49 89.4 C49.13 54.19, 77.87 19.48, 94.91 0.35 M17.49 89.4 C33.52 70.82, 49.96 51.91, 94.91 0.35 M23.13 89.01 C40.28 67.9, 59.3 46.06, 100.55 -0.05 M23.13 89.01 C50.29 59.53, 74.78 28.46, 100.55 -0.05 M28.12 89.37 C46.8 66.5, 66.09 45.76, 105.54 0.31 M28.12 89.37 C53.38 61.38, 76.86 33.22, 105.54 0.31 M33.76 88.98 C54.39 65.46, 71.35 42.01, 111.18 -0.08 M33.76 88.98 C51.45 67.92, 68.31 47.62, 111.18 -0.08 M38.75 89.34 C53.85 68.53, 71.25 53.91, 116.17 0.28 M38.75 89.34 C56.31 70.37, 72.82 51.28, 116.17 0.28 M44.39 88.94 C60.15 68.86, 74.17 53.71, 121.81 -0.11 M44.39 88.94 C71.38 58.34, 99.79 25.44, 121.81 -0.11 M49.38 89.3 C69.54 64.87, 93.1 38.59, 126.8 0.25 M49.38 89.3 C71.23 64.16, 92.42 39.74, 126.8 0.25 M55.02 88.91 C77.82 61.69, 102.55 34.22, 132.44 -0.15 M55.02 88.91 C79.03 60.29, 103.65 33.52, 132.44 -0.15 M60.01 89.27 C83.95 58.18, 111.78 28.3, 137.43 0.21 M60.01 89.27 C80.74 65.31, 101.08 41.52, 137.43 0.21 M65 89.63 C91.95 58.05, 122.17 25.31, 143.07 -0.18 M65 89.63 C83.36 69.37, 98.78 50.61, 143.07 -0.18 M70.64 89.23 C99.77 58.48, 129.03 24.81, 148.06 0.18 M70.64 89.23 C89.73 67.06, 107.6 46.15, 148.06 0.18 M75.63 89.59 C103.78 57.65, 131.19 24.43, 153.04 0.54 M75.63 89.59 C105.82 54.98, 137.33 20.68, 153.04 0.54 M81.27 89.2 C99.39 69.86, 115.84 51.73, 158.69 0.14 M81.27 89.2 C103.68 62.92, 126.95 37.14, 158.69 0.14 M86.26 89.56 C105.69 65.67, 129.6 39.74, 163.67 0.5 M86.26 89.56 C108.69 62.67, 131.03 36.77, 163.67 0.5 M91.9 89.16 C111.88 68.18, 129.85 42.69, 169.32 0.11 M91.9 89.16 C107.91 69.93, 124.6 50.86, 169.32 0.11 M96.89 89.52 C122.77 60.87, 145.91 35.07, 174.3 0.47 M96.89 89.52 C123.57 58.25, 149.66 28.39, 174.3 0.47 M102.53 89.13 C128.86 62.07, 149.81 35.5, 179.95 0.07 M102.53 89.13 C118.86 70.83, 135.66 51.48, 179.95 0.07 M107.52 89.49 C121.93 69.29, 141.02 51.74, 184.93 0.43 M107.52 89.49 C133.6 59.56, 160.08 30.95, 184.93 0.43 M113.16 89.09 C137.17 59.78, 162.72 29.52, 190.58 0.04 M113.16 89.09 C142.5 56.07, 172.92 20.39, 190.58 0.04 M118.15 89.45 C145.64 59.5, 171.08 30.96, 195.56 0.4 M118.15 89.45 C147.19 56, 177.23 20.43, 195.56 0.4 M123.79 89.06 C149.11 59.13, 174.06 31.59, 201.21 0 M123.79 89.06 C144.71 65.8, 164.21 41.84, 201.21 0 M128.78 89.42 C147 67.23, 166.21 47.24, 206.19 0.36 M128.78 89.42 C144.94 70.91, 161.16 50.99, 206.19 0.36 M134.42 89.03 C150.95 69.82, 168.79 48.16, 211.84 -0.03 M134.42 89.03 C154.15 65, 175.66 41.37, 211.84 -0.03 M139.41 89.39 C156.74 69.59, 173.42 47.99, 216.82 0.33 M139.41 89.39 C159.7 64.68, 179.9 41.2, 216.82 0.33 M144.4 89.75 C164.08 68.3, 183.68 44.41, 222.47 -0.06 M144.4 89.75 C162.62 66.71, 181.88 45.53, 222.47 -0.06 M150.04 89.35 C169.93 64.14, 190.31 39.59, 227.45 0.3 M150.04 89.35 C177.45 56.33, 206.09 22.33, 227.45 0.3 M155.03 89.71 C175.62 63.66, 198.78 40.19, 233.1 -0.1 M155.03 89.71 C180.25 59.57, 206.44 30.88, 233.1 -0.1 M160.67 89.32 C182.22 65.95, 200.34 40.71, 238.08 0.26 M160.67 89.32 C184.29 62.74, 206.28 36.12, 238.08 0.26 M165.66 89.68 C187.15 64.76, 209.89 36.79, 243.07 0.62 M165.66 89.68 C188.22 62.07, 212.67 35.04, 243.07 0.62 M171.3 89.28 C194.23 61.76, 220.74 34.77, 248.71 0.23 M171.3 89.28 C200.57 53.46, 231.61 18.15, 248.71 0.23 M176.29 89.64 C207.63 54.58, 237.63 23.06, 253.7 0.59 M176.29 89.64 C191.76 70.97, 207.74 53.07, 253.7 0.59 M181.93 89.25 C209.04 58.52, 232.95 29.99, 259.34 0.19 M181.93 89.25 C207.84 57.96, 235.82 28.01, 259.34 0.19 M186.92 89.61 C211.96 59.08, 238.07 33.01, 264.33 0.55 M186.92 89.61 C212.83 59.69, 239.86 29.35, 264.33 0.55 M192.56 89.21 C221.36 53.96, 254.8 18.45, 269.97 0.16 M192.56 89.21 C210.45 70.21, 226.25 50.74, 269.97 0.16 M197.55 89.57 C224.11 57.29, 256.46 23.83, 274.96 0.52 M197.55 89.57 C218.88 66.68, 238.66 42.05, 274.96 0.52 M203.19 89.18 C233.69 54.93, 265.73 17.95, 280.6 0.12 M203.19 89.18 C220.73 69.1, 237.6 51.13, 280.6 0.12 M208.18 89.54 C228.36 64.4, 249 40.23, 285.59 0.48 M208.18 89.54 C223.76 70.62, 240.21 53.83, 285.59 0.48 M213.82 89.14 C230.91 71.97, 244.8 52.82, 291.23 0.09 M213.82 89.14 C238.51 60.75, 264.41 31.63, 291.23 0.09 M218.81 89.5 C238.75 64.91, 261.57 38.51, 296.22 0.45 M218.81 89.5 C237.31 68.67, 254.65 49.35, 296.22 0.45 M224.45 89.11 C248.05 65.46, 268.98 42.67, 301.86 0.05 M224.45 89.11 C246.42 63.18, 266.39 39.01, 301.86 0.05 M229.44 89.47 C252.7 60.72, 277.51 33.96, 306.85 0.41 M229.44 89.47 C251.35 64.81, 274.24 39.62, 306.85 0.41 M234.42 89.83 C255.67 67.57, 274.24 44.73, 312.49 0.02 M234.42 89.83 C261.16 58.41, 289.88 26.99, 312.49 0.02 M240.07 89.44 C257.15 72.73, 271.21 52.6, 317.48 0.38 M240.07 89.44 C269.62 56.63, 296.76 22.96, 317.48 0.38 M245.05 89.8 C262.21 69.76, 278.16 51.4, 323.12 -0.02 M245.05 89.8 C263.38 68.66, 279.77 50.37, 323.12 -0.02 M250.7 89.4 C272.36 67.12, 290.35 44.04, 328.11 0.34 M250.7 89.4 C275.64 58.7, 301.88 28.22, 328.11 0.34 M255.68 89.76 C282.67 57.83, 310.09 25.89, 333.1 0.71 M255.68 89.76 C279.19 64.07, 301.01 38.38, 333.1 0.71 M261.33 89.37 C282.46 62.89, 305.07 38.04, 338.74 0.31 M261.33 89.37 C285.89 61.41, 311.28 31.94, 338.74 0.31 M266.31 89.73 C291.49 59.56, 313.81 33.49, 343.73 0.67 M266.31 89.73 C292.08 60.26, 317.3 31.83, 343.73 0.67 M271.96 89.33 C302.33 57.46, 328.71 22.94, 349.37 0.28 M271.96 89.33 C291.71 65.01, 311.66 42.07, 349.37 0.28 M276.94 89.69 C303.53 61.7, 324.83 32.28, 354.36 0.64 M276.94 89.69 C296.93 64.67, 318.7 40.52, 354.36 0.64 M282.59 89.3 C309.31 60.64, 330.77 33.48, 358.69 1.75 M282.59 89.3 C300.73 69.75, 317.29 48.58, 358.69 1.75 M287.57 89.66 C317.04 59.23, 343.07 26.19, 362.36 3.62 M287.57 89.66 C317.86 55.06, 348.43 20.67, 362.36 3.62 M293.22 89.26 C321.39 56.31, 349.47 24.63, 366.7 4.74 M293.22 89.26 C316.95 63.94, 338.38 37.26, 366.7 4.74 M298.2 89.62 C317.42 68.62, 331.73 50.5, 369.71 7.36 M298.2 89.62 C323.6 59.46, 351.73 28.46, 369.71 7.36 M303.85 89.23 C329.75 62.47, 350.92 32.7, 371.42 11.49 M303.85 89.23 C319.6 71.39, 337.63 52.03, 371.42 11.49 M308.83 89.59 C329.53 65.16, 352.69 37.97, 373.13 15.63 M308.83 89.59 C333.17 59.85, 359.72 30.35, 373.13 15.63 M314.48 89.19 C329.7 68.46, 347.31 51.78, 373.52 21.27 M314.48 89.19 C330.31 71.68, 345.49 52.02, 373.52 21.27 M319.46 89.55 C331.07 74.66, 347.64 57.15, 373.92 26.91 M319.46 89.55 C331.52 74.25, 344.66 59.84, 373.92 26.91 M324.45 89.91 C340.18 71.4, 352.11 57.57, 373.66 33.31 M324.45 89.91 C334.98 77.63, 346.15 63.72, 373.66 33.31 M330.09 89.52 C346.03 72.87, 357.21 58.28, 373.39 39.71 M330.09 89.52 C340.08 79.11, 350.27 66.7, 373.39 39.71 M335.08 89.88 C346.17 79.99, 356.44 68.45, 373.79 45.35 M335.08 89.88 C345.75 77.53, 357.72 65.16, 373.79 45.35 M340.72 89.48 C351.08 79.11, 361.44 65.71, 373.53 51.75 M340.72 89.48 C349.68 80.28, 358.19 69.93, 373.53 51.75 M345.71 89.84 C352.08 83.23, 359.51 72.32, 373.27 58.15 M345.71 89.84 C351.57 82.95, 356.87 76.22, 373.27 58.15 M351.35 89.45 C354.95 84.01, 360.18 77.31, 373.66 63.79 M351.35 89.45 C358.35 80.71, 367.93 69.78, 373.66 63.79 M357.65 88.3 C363.41 81.64, 367.96 75.33, 373.4 70.19 M357.65 88.3 C362.72 84.38, 365.31 79.48, 373.4 70.19 M364.61 86.4 C366.46 83.23, 368.57 82.41, 371.17 78.85 M364.61 86.4 C366.62 84.08, 369.45 80.57, 371.17 78.85" stroke="#b2f2bb" stroke-width="0.5" fill="none"></path><path d="M22.27 0 C89.9 -2.17, 159.77 -0.37, 351.26 0 M22.27 0 C139.79 1.63, 257.04 1.78, 351.26 0 M351.26 0 C367.61 1.31, 373.07 8.27, 373.53 22.27 M351.26 0 C367.58 1.35, 374.03 7.01, 373.53 22.27 M373.53 22.27 C374.29 37, 373.82 49.94, 373.53 66.82 M373.53 22.27 C374.16 35.55, 373.23 48.76, 373.53 66.82 M373.53 66.82 C372.61 82.93, 366.03 87.3, 351.26 89.09 M373.53 66.82 C372.94 81.9, 367.12 87.63, 351.26 89.09 M351.26 89.09 C270.29 91.56, 189.41 90.45, 22.27 89.09 M351.26 89.09 C283.38 88.05, 213.96 88.7, 22.27 89.09 M22.27 89.09 C8.34 87.81, -1.83 82.98, 0 66.82 M22.27 89.09 C7.55 88.44, -0.08 81.74, 0 66.82 M0 66.82 C-1.16 52.53, 1.83 37.41, 0 22.27 M0 66.82 C0.51 48.36, 0.19 31.76, 0 22.27 M0 22.27 C-0.48 8.11, 9.35 1.09, 22.27 0 M0 22.27 C0.97 8.38, 7.62 -0.28, 22.27 0" stroke="#000000" stroke-width="1" fill="none"></path></g><g transform="translate(705.7937164306641 187.04348754882812) rotate(0 164.30398559570312 17.5)"><text x="164.30398559570312" y="0" font-family="Virgil, Segoe UI Emoji" font-size="28px" fill="#1e1e1e" text-anchor="middle" style="white-space: pre;" direction="ltr" dominant-baseline="text-before-edge">Agent切面技术、系统调用</text></g><g stroke-linecap="round" transform="translate(677.3334197998047 321.3333435058594) rotate(0 189.09768676757812 44.54351806640625)"><path d="M5.27 5.91 C5.27 5.91, 5.27 5.91, 5.27 5.91 M5.27 5.91 C5.27 5.91, 5.27 5.91, 5.27 5.91 M3.04 14.57 C8.17 8.96, 10.33 5.34, 13.54 2.49 M3.04 14.57 C7.33 9.77, 10.24 6.27, 13.54 2.49 M0.81 23.23 C7.19 15.83, 9.86 10.1, 19.84 1.35 M0.81 23.23 C3.64 18.42, 7.94 13.99, 19.84 1.35 M1.21 28.88 C10 16.87, 20.35 7.69, 24.83 1.71 M1.21 28.88 C10.67 19.59, 17.74 9.81, 24.83 1.71 M0.95 35.27 C11.99 24.81, 17.04 15.77, 29.81 2.07 M0.95 35.27 C7.55 27.7, 13.43 20.85, 29.81 2.07 M0.68 41.67 C10.44 31.26, 20.62 19.5, 35.46 1.67 M0.68 41.67 C12.38 27.37, 24.03 15.03, 35.46 1.67 M1.08 47.31 C12.41 37.3, 18.53 23.83, 40.44 2.03 M1.08 47.31 C15.7 31.25, 30.16 14.17, 40.44 2.03 M0.82 53.71 C12.87 39.85, 23.44 25.07, 45.43 2.39 M0.82 53.71 C13.77 38.53, 28.29 22.04, 45.43 2.39 M1.21 59.35 C20.61 37.69, 40.81 12.83, 51.07 2 M1.21 59.35 C15.13 44.5, 27.3 28.42, 51.07 2 M0.29 66.51 C15.25 48.42, 34.1 29.17, 56.06 2.36 M0.29 66.51 C17.94 46.1, 34.17 27.6, 56.06 2.36 M0.69 72.15 C11.47 56.85, 26.91 44.1, 61.7 1.96 M0.69 72.15 C22.51 48.53, 43.18 22.98, 61.7 1.96 M1.74 77.04 C19.67 51.87, 40.13 32.17, 66.69 2.32 M1.74 77.04 C25.56 51.45, 48.75 23.48, 66.69 2.32 M4.1 80.42 C29.54 47.14, 57.49 18.48, 72.33 1.93 M4.1 80.42 C25.17 56.02, 46.03 32.98, 72.33 1.93 M6.47 83.8 C24.91 60.51, 41.77 42.13, 77.32 2.29 M6.47 83.8 C33.14 51.9, 58.97 21.83, 77.32 2.29 M10.14 85.67 C36.88 51.68, 66.3 19.27, 82.96 1.89 M10.14 85.67 C31.77 61.12, 53.2 37.21, 82.96 1.89 M13.82 87.54 C34.12 63.78, 55.7 36.04, 87.95 2.25 M13.82 87.54 C37.88 61.5, 59.91 36.55, 87.95 2.25 M17.49 89.4 C36.38 67.12, 58.79 42.25, 93.59 1.86 M17.49 89.4 C42.73 58.91, 69.51 28.75, 93.59 1.86 M23.13 89.01 C48.3 61.46, 72.11 35.76, 98.58 2.22 M23.13 89.01 C53.4 54.74, 85.03 20.04, 98.58 2.22 M28.12 89.37 C46.62 66, 66.86 46.98, 104.22 1.82 M28.12 89.37 C51.01 63.4, 75.17 36.62, 104.22 1.82 M33.76 88.98 C51.91 68.62, 73.28 45.98, 109.21 2.18 M33.76 88.98 C55.68 63.66, 79.69 37.79, 109.21 2.18 M38.75 89.34 C52.31 69.65, 68.92 52.75, 114.85 1.79 M38.75 89.34 C64.11 59.67, 91.15 29.44, 114.85 1.79 M44.39 88.94 C61.67 71.26, 74.43 51.42, 119.84 2.15 M44.39 88.94 C72.54 57, 101.24 23.3, 119.84 2.15 M49.38 89.3 C72.38 60.6, 96.46 33.99, 125.48 1.76 M49.38 89.3 C67.27 70.42, 84.29 49.46, 125.48 1.76 M55.02 88.91 C75.41 64.29, 96.84 40.99, 130.47 2.12 M55.02 88.91 C70.01 72.56, 84.4 53.5, 130.47 2.12 M60.01 89.27 C78.11 69.93, 96.37 48.5, 135.46 2.48 M60.01 89.27 C77.44 69.61, 94.9 49.11, 135.46 2.48 M65 89.63 C88.91 58.41, 118.12 31.28, 141.1 2.08 M65 89.63 C87.02 64.57, 106.37 41.31, 141.1 2.08 M70.64 89.23 C95.81 58.25, 125.57 28.67, 146.09 2.44 M70.64 89.23 C90.66 66.48, 109.92 44.42, 146.09 2.44 M75.63 89.59 C99.43 64.83, 117.98 39.03, 151.73 2.05 M75.63 89.59 C94.23 66.73, 115.12 43.71, 151.73 2.05 M81.27 89.2 C102.61 64.87, 123.57 37.96, 156.72 2.41 M81.27 89.2 C102.7 64.43, 125.13 37.88, 156.72 2.41 M86.26 89.56 C115.25 56.75, 143.43 22.09, 162.36 2.01 M86.26 89.56 C101.71 72.87, 118.63 55.02, 162.36 2.01 M91.9 89.16 C119.73 56.36, 152.29 20.87, 167.35 2.37 M91.9 89.16 C118.57 58.46, 145.17 29.22, 167.35 2.37 M96.89 89.52 C119.14 65.35, 139.45 39.85, 172.99 1.98 M96.89 89.52 C118.42 63.9, 138.79 41.81, 172.99 1.98 M102.53 89.13 C122.7 66.16, 144.44 40.42, 177.98 2.34 M102.53 89.13 C126.06 61.13, 151.83 30.97, 177.98 2.34 M107.52 89.49 C125.51 67.74, 141.58 47.93, 183.62 1.94 M107.52 89.49 C124.27 70.49, 141.89 50.04, 183.62 1.94 M113.16 89.09 C136.68 63.73, 156.45 37.62, 188.61 2.3 M113.16 89.09 C142.84 55.42, 171.39 22.55, 188.61 2.3 M118.15 89.45 C141.24 64.94, 159.92 38.17, 194.25 1.91 M118.15 89.45 C146.23 58.96, 172.87 27.29, 194.25 1.91 M123.79 89.06 C139.68 70.56, 157.19 51.79, 199.24 2.27 M123.79 89.06 C148.54 59.25, 175.36 30.89, 199.24 2.27 M128.78 89.42 C146.2 67.97, 167.61 44.78, 204.88 1.87 M128.78 89.42 C154.51 60.34, 182.13 28.98, 204.88 1.87 M134.42 89.03 C162.52 56, 191.35 21.46, 209.87 2.23 M134.42 89.03 C151.21 69.94, 170.25 48.81, 209.87 2.23 M139.41 89.39 C168.16 57.77, 197.41 23.65, 215.51 1.84 M139.41 89.39 C154.9 70.9, 172.04 53.28, 215.51 1.84 M144.4 89.75 C169.9 59.8, 198.21 26.93, 220.5 2.2 M144.4 89.75 C161.45 70.63, 178.75 50.63, 220.5 2.2 M150.04 89.35 C171.51 68.49, 190.17 43.43, 225.49 2.56 M150.04 89.35 C175.56 60.79, 201.43 32.06, 225.49 2.56 M155.03 89.71 C171.99 70.14, 188.74 49.21, 231.13 2.16 M155.03 89.71 C176.5 64.77, 198.16 40.63, 231.13 2.16 M160.67 89.32 C183.46 64.6, 204.2 39.35, 236.12 2.52 M160.67 89.32 C180.63 68.15, 200.86 44.93, 236.12 2.52 M165.66 89.68 C193.5 58.45, 221.46 24.11, 241.76 2.13 M165.66 89.68 C185.88 66.85, 204.78 42.98, 241.76 2.13 M171.3 89.28 C195.08 65.04, 216.9 36.91, 246.75 2.49 M171.3 89.28 C193.94 64.2, 214.55 40.05, 246.75 2.49 M176.29 89.64 C192.41 67.64, 212.65 44.9, 252.39 2.1 M176.29 89.64 C198.24 64.39, 218.63 41.39, 252.39 2.1 M181.93 89.25 C200.48 71.6, 217.3 49.66, 257.38 2.46 M181.93 89.25 C203.22 63.89, 224.51 38.42, 257.38 2.46 M186.92 89.61 C203.49 71.62, 217.21 51.79, 263.02 2.06 M186.92 89.61 C209.15 64.72, 228.93 38.64, 263.02 2.06 M192.56 89.21 C211.36 64.11, 232.42 42.63, 268.01 2.42 M192.56 89.21 C214.93 66.02, 234.49 40.02, 268.01 2.42 M197.55 89.57 C220.02 62.19, 242.99 36.01, 273.65 2.03 M197.55 89.57 C222.8 61.81, 247.03 33.98, 273.65 2.03 M203.19 89.18 C231.49 54.72, 263.55 21.35, 278.64 2.39 M203.19 89.18 C220.5 67.99, 239.18 46.01, 278.64 2.39 M208.18 89.54 C228.8 64.13, 253.79 38.86, 284.28 1.99 M208.18 89.54 C226.53 65.32, 247.77 43.65, 284.28 1.99 M213.82 89.14 C241.8 58.4, 267.35 26.31, 289.27 2.35 M213.82 89.14 C237.09 62.12, 261.98 33.57, 289.27 2.35 M218.81 89.5 C244.48 58.68, 272.62 29.13, 294.91 1.96 M218.81 89.5 C237.81 65.69, 256.81 44.97, 294.91 1.96 M224.45 89.11 C245.61 61.83, 270.34 37.85, 299.9 2.32 M224.45 89.11 C240.35 71.53, 254.58 53.98, 299.9 2.32 M229.44 89.47 C247.51 68.02, 263.53 47.14, 305.54 1.92 M229.44 89.47 C252.76 61.99, 276.78 35.21, 305.54 1.92 M234.42 89.83 C262.73 59.12, 289.04 26.28, 310.53 2.28 M234.42 89.83 C260.08 57.09, 287.32 27.06, 310.53 2.28 M240.07 89.44 C266.95 61.52, 289.51 34.23, 315.51 2.64 M240.07 89.44 C261.44 64.25, 284.38 40.1, 315.51 2.64 M245.05 89.8 C263.01 65.7, 284.38 45.61, 321.16 2.25 M245.05 89.8 C260.67 71.85, 276.82 55.07, 321.16 2.25 M250.7 89.4 C277.85 60.81, 304.2 27.29, 326.14 2.61 M250.7 89.4 C275.38 63.02, 299.02 35.59, 326.14 2.61 M255.68 89.76 C279.72 60.5, 304.21 35.02, 331.79 2.21 M255.68 89.76 C279.37 61.85, 304.1 34.37, 331.79 2.21 M261.33 89.37 C282.3 65.09, 303.83 42.08, 336.77 2.57 M261.33 89.37 C287.93 59.26, 315.73 27.94, 336.77 2.57 M266.31 89.73 C286.89 65.42, 304.54 44.27, 342.42 2.18 M266.31 89.73 C284.72 70.28, 301.17 50.75, 342.42 2.18 M271.96 89.33 C300.3 57.57, 330.62 22.88, 347.4 2.54 M271.96 89.33 C294.1 64.74, 315.75 41.23, 347.4 2.54 M276.94 89.69 C304.42 59.32, 334.22 26.34, 353.05 2.15 M276.94 89.69 C294.8 68.53, 312.36 48.71, 353.05 2.15 M282.59 89.3 C299.87 67.88, 319.27 48.04, 358.03 2.51 M282.59 89.3 C312.01 56.31, 339.12 25.72, 358.03 2.51 M287.57 89.66 C314.23 60.02, 335.77 32.52, 363.68 2.11 M287.57 89.66 C304.41 72.16, 320.16 52.51, 363.68 2.11 M293.22 89.26 C317.31 59.74, 341.58 35.13, 367.35 3.98 M293.22 89.26 C322.52 55.19, 352.3 22.6, 367.35 3.98 M298.2 89.62 C317.38 71.13, 333.72 48.59, 371.03 5.85 M298.2 89.62 C324.27 59.34, 350.19 29.86, 371.03 5.85 M303.85 89.23 C328.99 60.77, 353.86 29.21, 374.7 7.72 M303.85 89.23 C329.92 59.61, 356.08 28.09, 374.7 7.72 M308.83 89.59 C335.19 62.93, 357.72 32, 377.06 11.1 M308.83 89.59 C325.49 69.23, 343.43 49.47, 377.06 11.1 M314.48 89.19 C327.84 72.55, 343.75 57.2, 379.43 14.48 M314.48 89.19 C338.73 61.66, 364.78 32.44, 379.43 14.48 M319.46 89.55 C339.48 65.99, 360.57 38.66, 379.82 20.12 M319.46 89.55 C333.44 74.44, 347.21 59.07, 379.82 20.12 M324.45 89.91 C335.05 76.81, 346.91 61.39, 380.87 25.01 M324.45 89.91 C345.34 66.15, 365.88 44.72, 380.87 25.01 M330.09 89.52 C343.64 71.74, 357.89 55.3, 381.27 30.65 M330.09 89.52 C348.68 66.69, 368.44 46.21, 381.27 30.65 M335.08 89.88 C350.93 70.79, 366.54 50.93, 381.01 37.05 M335.08 89.88 C348.77 74.73, 361.62 57.94, 381.01 37.05 M340.72 89.48 C355.21 70.35, 371.31 54.72, 380.74 43.45 M340.72 89.48 C354.19 74.45, 368.06 57.14, 380.74 43.45 M345.71 89.84 C358.05 74.26, 373.52 58.05, 381.14 49.09 M345.71 89.84 C354.61 79.28, 364.52 67.24, 381.14 49.09 M351.35 89.45 C361.06 81.33, 368.46 68.5, 380.88 55.49 M351.35 89.45 C362.67 77.27, 372.02 65.02, 380.88 55.49 M356.34 89.81 C363.31 82.04, 371.68 74.56, 380.62 61.89 M356.34 89.81 C365.99 78.51, 375.75 67.76, 380.62 61.89 M362.64 88.66 C367.77 85.6, 372.17 78.31, 381.01 67.53 M362.64 88.66 C369.54 79.81, 377.12 72.21, 381.01 67.53 M367.63 89.02 C373.84 82.35, 379.4 78.71, 380.75 73.93 M367.63 89.02 C370.98 84.78, 372.39 83.13, 380.75 73.93" stroke="#a5d8ff" stroke-width="0.5" fill="none"></path><path d="M22.27 0 C107.72 -3.21, 190.94 -1.09, 355.92 0 M22.27 0 C143.54 -1.47, 263.64 -1.63, 355.92 0 M355.92 0 C372.06 1.17, 378.63 7.06, 378.2 22.27 M355.92 0 C371.34 -1.77, 378.69 8.69, 378.2 22.27 M378.2 22.27 C378.45 35.11, 379.3 51.92, 378.2 66.82 M378.2 22.27 C377.71 34.79, 378.13 45.15, 378.2 66.82 M378.2 66.82 C377.68 81.87, 371.66 87.82, 355.92 89.09 M378.2 66.82 C376.99 79.66, 372.87 89.78, 355.92 89.09 M355.92 89.09 C244.39 87.14, 134.81 89.17, 22.27 89.09 M355.92 89.09 C263.65 90.26, 170.15 91.14, 22.27 89.09 M22.27 89.09 C7.53 88.53, -0.07 81.73, 0 66.82 M22.27 89.09 C7.88 88.27, -0.61 80.14, 0 66.82 M0 66.82 C1.57 51.71, -0.59 40.51, 0 22.27 M0 66.82 C-0.14 57.2, 1.06 47.45, 0 22.27 M0 22.27 C0.85 8.26, 7.59 -0.24, 22.27 0 M0 22.27 C-0.89 6.22, 5.61 1.28, 22.27 0" stroke="#000000" stroke-width="1" fill="none"></path></g><g transform="translate(726.4311065673828 348.3768615722656) rotate(0 140 17.5)"><text x="140" y="0" font-family="Virgil, Segoe UI Emoji" font-size="28px" fill="#1e1e1e" text-anchor="middle" style="white-space: pre;" direction="ltr" dominant-baseline="text-before-edge">定时轮询、自定义配置</text></g><g stroke-linecap="round" transform="translate(679.3333587646484 476.3333435058594) rotate(0 186.09774780273438 44.54351806640625)"><path d="M5.27 5.91 C5.27 5.91, 5.27 5.91, 5.27 5.91 M5.27 5.91 C5.27 5.91, 5.27 5.91, 5.27 5.91 M1.07 16.83 C5 12.54, 8.66 11.34, 14.2 1.74 M1.07 16.83 C3.31 13.45, 7.05 11.39, 14.2 1.74 M0.16 23.99 C2.79 20.78, 10.63 12.19, 20.49 0.59 M0.16 23.99 C6.62 17.12, 11.71 11.08, 20.49 0.59 M-0.1 30.38 C7.09 24.48, 12.58 18.51, 26.14 0.2 M-0.1 30.38 C10.01 17.83, 19.57 8.39, 26.14 0.2 M0.29 36.03 C7.66 26.96, 20.31 17.21, 31.78 -0.2 M0.29 36.03 C7.61 27.26, 16.33 18.21, 31.78 -0.2 M0.03 42.43 C14.04 26.14, 27.89 11.47, 36.77 0.16 M0.03 42.43 C7.32 32.81, 16.14 24.96, 36.77 0.16 M0.42 48.07 C16.48 33.8, 30.63 16.58, 42.41 -0.23 M0.42 48.07 C15.76 29.79, 33.01 11.36, 42.41 -0.23 M0.16 54.47 C15.18 39.01, 31.31 20.42, 47.4 0.13 M0.16 54.47 C18.04 34, 33.62 14.34, 47.4 0.13 M-0.1 60.86 C16.43 43.2, 32.29 23.74, 53.04 -0.27 M-0.1 60.86 C16.77 41.03, 33.3 21.73, 53.04 -0.27 M0.29 66.51 C18.34 47.16, 35.1 26.28, 58.03 0.09 M0.29 66.51 C12.87 50.94, 26.49 34.79, 58.03 0.09 M0.69 72.15 C16.53 54.93, 29.45 38.13, 63.67 -0.3 M0.69 72.15 C23.32 47.12, 46.43 19.85, 63.67 -0.3 M1.74 77.04 C17.37 58.53, 29.62 44.38, 68.66 0.06 M1.74 77.04 C26.42 51.02, 49.55 21.93, 68.66 0.06 M4.1 80.42 C18.84 63.98, 33.07 47.46, 73.65 0.42 M4.1 80.42 C22.36 59.05, 42.05 36.89, 73.65 0.42 M6.47 83.8 C25.38 65.94, 42.22 45.75, 79.29 0.02 M6.47 83.8 C27.96 60.97, 47.1 36.7, 79.29 0.02 M10.14 85.67 C25.99 68.91, 40.33 50.03, 84.28 0.38 M10.14 85.67 C30.46 62.02, 51.85 37.44, 84.28 0.38 M13.82 87.54 C43.78 52.72, 72.02 21.93, 89.92 -0.01 M13.82 87.54 C32.95 64.49, 52.47 40.94, 89.92 -0.01 M17.49 89.4 C46.11 57.34, 74.09 24.1, 94.91 0.35 M17.49 89.4 C37.5 66.37, 57.3 44.15, 94.91 0.35 M23.13 89.01 C47.48 60.43, 68.41 34.96, 100.55 -0.05 M23.13 89.01 C48.39 58.97, 75.17 27.7, 100.55 -0.05 M28.12 89.37 C44.17 70.18, 59.4 49.99, 105.54 0.31 M28.12 89.37 C55.46 56.1, 82.94 23.66, 105.54 0.31 M33.76 88.98 C60.04 56.13, 87.57 25.24, 111.18 -0.08 M33.76 88.98 C57.29 60.57, 84.41 30.02, 111.18 -0.08 M38.75 89.34 C59.08 66.17, 79.4 43.1, 116.17 0.28 M38.75 89.34 C67.3 54.47, 98.41 21.44, 116.17 0.28 M44.39 88.94 C72.84 59.34, 97.27 28.73, 121.81 -0.11 M44.39 88.94 C72.9 57.23, 100.51 23.65, 121.81 -0.11 M49.38 89.3 C65.65 68.53, 83.51 49.35, 126.8 0.25 M49.38 89.3 C79.3 55.65, 108.88 20.84, 126.8 0.25 M55.02 88.91 C71.87 68.32, 92.18 45.75, 132.44 -0.15 M55.02 88.91 C83.98 55.9, 113.37 22.13, 132.44 -0.15 M60.01 89.27 C89.76 54.71, 120.2 19.17, 137.43 0.21 M60.01 89.27 C82.19 64.77, 104.06 37.7, 137.43 0.21 M65 89.63 C83.2 65.58, 103.94 45.71, 143.07 -0.18 M65 89.63 C84.47 69.29, 102.04 47.25, 143.07 -0.18 M70.64 89.23 C92.37 62.3, 116.11 36.32, 148.06 0.18 M70.64 89.23 C91.22 65.26, 111.27 42.02, 148.06 0.18 M75.63 89.59 C98.89 64.98, 123.34 34.77, 153.04 0.54 M75.63 89.59 C104.11 56.98, 133.1 23.52, 153.04 0.54 M81.27 89.2 C110.28 56.37, 140.65 22.72, 158.69 0.14 M81.27 89.2 C110.29 57.04, 138.56 23.87, 158.69 0.14 M86.26 89.56 C112.33 56.8, 140.75 25.21, 163.67 0.5 M86.26 89.56 C115.34 55.75, 142.64 21.49, 163.67 0.5 M91.9 89.16 C118.02 59.04, 144.05 30.49, 169.32 0.11 M91.9 89.16 C113.58 63.1, 136.95 37.68, 169.32 0.11 M96.89 89.52 C124.25 55.92, 154.49 25.5, 174.3 0.47 M96.89 89.52 C113.22 69.93, 129.58 50.91, 174.3 0.47 M102.53 89.13 C134.54 54.63, 164.96 16.31, 179.95 0.07 M102.53 89.13 C131.42 56.36, 161.61 22.1, 179.95 0.07 M107.52 89.49 C125.44 68.98, 146.38 46.5, 184.93 0.43 M107.52 89.49 C136.12 56.05, 164.64 22.8, 184.93 0.43 M113.16 89.09 C136.03 65.81, 153.82 42.5, 190.58 0.04 M113.16 89.09 C133.92 65.3, 155.17 42.31, 190.58 0.04 M118.15 89.45 C145.82 58.93, 169.63 30.64, 195.56 0.4 M118.15 89.45 C145.75 57.39, 174.3 24.55, 195.56 0.4 M123.79 89.06 C151.01 57.41, 176.86 26.12, 201.21 0 M123.79 89.06 C139.32 70.34, 156.42 49.7, 201.21 0 M128.78 89.42 C156.58 58.12, 181.51 25.96, 206.19 0.36 M128.78 89.42 C158.7 55.36, 187.69 21.08, 206.19 0.36 M134.42 89.03 C156.86 63.1, 180.28 34.18, 211.84 -0.03 M134.42 89.03 C163.41 55.15, 191.84 22.42, 211.84 -0.03 M139.41 89.39 C167.58 54.31, 198.23 19.14, 216.82 0.33 M139.41 89.39 C157.56 68.65, 174.84 46.84, 216.82 0.33 M144.4 89.75 C168.29 59.48, 195.76 30.69, 222.47 -0.06 M144.4 89.75 C169.23 60.03, 194.51 32.19, 222.47 -0.06 M150.04 89.35 C177.35 57, 202.46 27.29, 227.45 0.3 M150.04 89.35 C169.65 66.37, 190.84 41.86, 227.45 0.3 M155.03 89.71 C176.64 63.75, 201.04 38.62, 233.1 -0.1 M155.03 89.71 C181.09 58.85, 206.18 29.27, 233.1 -0.1 M160.67 89.32 C185.4 58.75, 210.59 31.56, 238.08 0.26 M160.67 89.32 C191.16 54.46, 220.5 19.24, 238.08 0.26 M165.66 89.68 C190.15 61.2, 215.75 32.48, 243.07 0.62 M165.66 89.68 C190.23 63.19, 214.57 36.51, 243.07 0.62 M171.3 89.28 C199.83 55.8, 228.88 23.61, 248.71 0.23 M171.3 89.28 C192.44 64.96, 215.18 38.64, 248.71 0.23 M176.29 89.64 C199.51 61.51, 224.34 36.45, 253.7 0.59 M176.29 89.64 C192.92 69.19, 210.51 50.51, 253.7 0.59 M181.93 89.25 C212.11 55.97, 244.75 19.33, 259.34 0.19 M181.93 89.25 C208.04 58.98, 236.23 28.13, 259.34 0.19 M186.92 89.61 C214.99 58.98, 242.75 28.05, 264.33 0.55 M186.92 89.61 C211.31 63.32, 235.08 34.85, 264.33 0.55 M192.56 89.21 C210.27 67.63, 227.47 50.04, 269.97 0.16 M192.56 89.21 C223.47 56.25, 253.37 20.46, 269.97 0.16 M197.55 89.57 C222.81 61.12, 245.14 35.35, 274.96 0.52 M197.55 89.57 C217.65 67.11, 236.87 43.08, 274.96 0.52 M203.19 89.18 C226.74 61.71, 254.42 30.96, 280.6 0.12 M203.19 89.18 C230.02 57.45, 257.42 26.16, 280.6 0.12 M208.18 89.54 C229.28 64.99, 254.25 36.1, 285.59 0.48 M208.18 89.54 C225.77 68.73, 242.6 49.47, 285.59 0.48 M213.82 89.14 C239.3 61.84, 263.66 32.13, 291.23 0.09 M213.82 89.14 C239.86 59.31, 265.43 28.57, 291.23 0.09 M218.81 89.5 C241.33 62.64, 266.96 34.74, 296.22 0.45 M218.81 89.5 C236.37 70.23, 253.95 49.7, 296.22 0.45 M224.45 89.11 C241.27 64.9, 261.06 44.03, 301.86 0.05 M224.45 89.11 C241.5 69.55, 259.17 50.5, 301.86 0.05 M229.44 89.47 C249.64 67.93, 269.45 45.32, 306.85 0.41 M229.44 89.47 C253.83 61.3, 277.93 34.78, 306.85 0.41 M234.42 89.83 C262.08 60.59, 289.56 26.74, 312.49 0.02 M234.42 89.83 C252.46 69.61, 268.35 51.3, 312.49 0.02 M240.07 89.44 C264.93 59, 288.43 30.22, 317.48 0.38 M240.07 89.44 C256.63 69.29, 274.2 48.76, 317.48 0.38 M245.05 89.8 C258.53 69.95, 277.53 52.82, 323.12 -0.02 M245.05 89.8 C269.71 60.78, 294.18 32.96, 323.12 -0.02 M250.7 89.4 C281.3 52.69, 312.05 20.14, 328.11 0.34 M250.7 89.4 C277.58 57.77, 304.89 26.15, 328.11 0.34 M255.68 89.76 C273.66 68.71, 291.62 48.17, 333.1 0.71 M255.68 89.76 C274.5 67.12, 294.54 44.72, 333.1 0.71 M261.33 89.37 C281.94 68.19, 299.08 43.82, 338.74 0.31 M261.33 89.37 C287.07 57.16, 315.29 27.27, 338.74 0.31 M266.31 89.73 C282.57 69.33, 301.24 51.81, 343.73 0.67 M266.31 89.73 C293.87 57.83, 320.06 27.32, 343.73 0.67 M271.96 89.33 C299.27 55.27, 328.96 25.11, 349.37 0.28 M271.96 89.33 C296.12 59.88, 319.95 32.55, 349.37 0.28 M276.94 89.69 C303.16 59.39, 330.55 25.45, 354.36 0.64 M276.94 89.69 C295.82 66.83, 315.05 45.08, 354.36 0.64 M282.59 89.3 C304.5 63.87, 323.21 43.38, 358.69 1.75 M282.59 89.3 C299.48 70.12, 314.93 52.01, 358.69 1.75 M287.57 89.66 C303.46 71.49, 320.2 52.61, 362.36 3.62 M287.57 89.66 C315.33 57.34, 343.84 25.87, 362.36 3.62 M293.22 89.26 C310.53 69.4, 324.88 51.53, 366.04 5.49 M293.22 89.26 C313.14 64.5, 334.46 42.23, 366.04 5.49 M298.2 89.62 C325.71 61.48, 351.38 30.25, 368.4 8.87 M298.2 89.62 C320.54 63.19, 341.46 38.13, 368.4 8.87 M303.85 89.23 C328.94 64.76, 351.52 37.68, 370.76 12.25 M303.85 89.23 C330.73 59.12, 356.38 29.36, 370.76 12.25 M308.83 89.59 C331.3 64, 354.3 35.73, 371.82 17.14 M308.83 89.59 C320.52 75.12, 334.42 60.17, 371.82 17.14 M314.48 89.19 C331.48 70.27, 343.86 51.6, 372.21 22.78 M314.48 89.19 C332.11 69.97, 348.84 48.38, 372.21 22.78 M319.46 89.55 C337.34 67.03, 357.43 46.46, 372.6 28.42 M319.46 89.55 C337.02 67.34, 356.94 45.81, 372.6 28.42 M324.45 89.91 C341.6 70.26, 355.73 54.54, 372.34 34.82 M324.45 89.91 C334.26 77.04, 345.33 65.03, 372.34 34.82 M330.09 89.52 C343.05 76.81, 352.36 63.06, 372.08 41.22 M330.09 89.52 C339.22 80.27, 347.57 69.38, 372.08 41.22 M335.08 89.88 C347.01 78.11, 359.11 63.76, 372.48 46.86 M335.08 89.88 C350.74 73.03, 364.7 56.03, 372.48 46.86 M340.72 89.48 C348.86 81.85, 354.72 72.31, 372.21 53.26 M340.72 89.48 C354.06 75.07, 365.17 60.48, 372.21 53.26 M345.71 89.84 C353.61 79.41, 361.88 68.63, 371.95 59.66 M345.71 89.84 C354.87 79.37, 363.26 69.67, 371.95 59.66 M351.35 89.45 C360.2 81.9, 364.64 73.68, 372.35 65.3 M351.35 89.45 C357.48 81.81, 363.7 75.48, 372.35 65.3 M357.65 88.3 C364.37 81.27, 369.1 76.84, 372.09 71.7 M357.65 88.3 C360.7 83.71, 366.14 79.81, 372.09 71.7" stroke="#ffec99" stroke-width="0.5" fill="none"></path><path d="M22.27 0 C90.38 -0.21, 157.96 -0.35, 349.92 0 M22.27 0 C142.52 -0.55, 262.04 -1.08, 349.92 0 M349.92 0 C365.27 -1.54, 372.62 8.53, 372.2 22.27 M349.92 0 C365.07 0.73, 370.74 7.55, 372.2 22.27 M372.2 22.27 C371.75 33.06, 370.93 43.15, 372.2 66.82 M372.2 22.27 C371.92 38.56, 372.62 54.01, 372.2 66.82 M372.2 66.82 C371.14 79.92, 366.59 89.69, 349.92 89.09 M372.2 66.82 C372.9 83.21, 363.61 86.98, 349.92 89.09 M349.92 89.09 C270.66 90.5, 193 91.75, 22.27 89.09 M349.92 89.09 C272.67 90.37, 195.31 90.59, 22.27 89.09 M22.27 89.09 C7.82 88.38, -0.53 80.34, 0 66.82 M22.27 89.09 C7.37 91.01, -1.06 83.9, 0 66.82 M0 66.82 C-1.48 57.12, 0.69 47.82, 0 22.27 M0 66.82 C0 52.34, -0.34 36.91, 0 22.27 M0 22.27 C-0.77 6.38, 5.85 1.11, 22.27 0 M0 22.27 C1 6.18, 9.72 -0.67, 22.27 0" stroke="#000000" stroke-width="1" fill="none"></path></g><g transform="translate(701.3791656494141 503.3768615722656) rotate(0 164.05194091796875 17.5)"><text x="164.05194091796875" y="0" font-family="Virgil, Segoe UI Emoji" font-size="28px" fill="#1e1e1e" text-anchor="middle" style="white-space: pre;" direction="ltr" dominant-baseline="text-before-edge">LogBack、ElasticSearch</text></g><g stroke-linecap="round"><g transform="translate(350.5970208693798 218.4437522373733) rotate(0 118.42135620117188 -1.831146240234375)"><path d="M-1.16 -1.01 C38.27 -1.87, 197.73 -4.03, 237.36 -4.55 M0.43 1.08 C39.68 0.28, 197.46 -2.79, 236.68 -3.48" stroke="#000000" stroke-width="2" fill="none"></path></g></g><mask></mask><g stroke-linecap="round"><g transform="translate(589.363927607661 200.5163840733108) rotate(0 -0.57928466796875 14.849395751953125)"><path d="M0.24 -0.41 C0.11 4.58, -1.12 24.43, -1.26 29.48 M-0.31 0.57 C-0.46 5.68, -1.68 25.35, -1.74 30.06" stroke="#000000" stroke-width="2" fill="none"></path></g></g><mask></mask><g stroke-linecap="round"><g transform="translate(587.8221185256298 198.35567850690455) rotate(0 15.087677001953125 8.0018310546875)"><path d="M-0.22 -0.48 C4.92 2.39, 26.15 13.68, 31.36 16.35 M-1.79 -1.78 C3.25 0.79, 25.61 11.35, 31.03 14.41" stroke="#000000" stroke-width="2" fill="none"></path></g></g><mask></mask><g stroke-linecap="round"><g transform="translate(618.900548701411 214.1030539951858) rotate(0 -14.11944580078125 7.4669189453125)"><path d="M0.54 0.16 C-4.08 2.65, -23.14 12.19, -27.85 14.73 M0.16 -0.23 C-4.5 2.35, -23.42 12.85, -28.08 15.32" stroke="#000000" stroke-width="2" fill="none"></path></g></g><mask></mask><g stroke-linecap="round"><g transform="translate(351.5970208693798 372.4437522373733) rotate(0 118.42135620117188 -1.831146240234375)"><path d="M-0.76 -1.07 C38.82 -1.73, 197.87 -3.79, 237.5 -4.09 M1.04 0.98 C40.52 0.49, 197.67 -1.81, 236.9 -2.78" stroke="#e03131" stroke-width="2" fill="none"></path></g></g><mask></mask><g stroke-linecap="round"><g transform="translate(590.363927607661 354.5163840733108) rotate(0 -0.57928466796875 14.849395751953125)"><path d="M0.3 -0.2 C0.18 4.9, -0.79 25.02, -1.06 30.06 M-0.21 -0.77 C-0.36 4.21, -1.18 24.29, -1.44 29.28" stroke="#e03131" stroke-width="2" fill="none"></path></g></g><mask></mask><g stroke-linecap="round"><g transform="translate(588.8221185256298 352.35567850690455) rotate(0 15.087677001953125 8.0018310546875)"><path d="M0.21 0.79 C5.07 3.66, 24.89 14.19, 29.77 16.77 M-1.13 0.16 C3.47 2.72, 23.09 12.12, 28.61 15.06" stroke="#e03131" stroke-width="2" fill="none"></path></g></g><mask></mask><g stroke-linecap="round"><g transform="translate(619.900548701411 368.1030539951858) rotate(0 -14.11944580078125 7.4669189453125)"><path d="M-0.19 0.35 C-4.96 2.8, -23.98 12.72, -28.57 15.07 M0.72 0.06 C-3.89 2.31, -22.76 11.72, -27.5 14.18" stroke="#e03131" stroke-width="2" fill="none"></path></g></g><mask></mask><g stroke-linecap="round"><g transform="translate(359.9303948928173 524.7770652256545) rotate(0 118.42135620117188 -1.831146240234375)"><path d="M-0.75 -0.05 C38.77 -0.42, 196.78 -2.65, 236.37 -3.25 M1.06 -1.12 C40.45 -1.77, 196.02 -4.95, 235.18 -5.15" stroke="#000000" stroke-width="2" fill="none"></path></g></g><mask></mask><g stroke-linecap="round"><g transform="translate(598.6973016310985 506.849697061592) rotate(0 -0.57928466796875 14.849395751953125)"><path d="M-0.22 0.19 C-0.35 5.15, -0.96 24.81, -1.17 29.72 M0.68 -0.19 C0.49 4.87, -1.17 25.37, -1.61 30.42" stroke="#000000" stroke-width="2" fill="none"></path></g></g><mask></mask><g stroke-linecap="round"><g transform="translate(597.1554925490673 504.68899149518575) rotate(0 15.087677001953125 8.0018310546875)"><path d="M-0.04 0.04 C4.96 2.6, 24.42 13.04, 29.49 15.79 M-1.51 -0.99 C3.91 1.72, 26.63 14.64, 31.84 17.22" stroke="#000000" stroke-width="2" fill="none"></path></g></g><mask></mask><g stroke-linecap="round"><g transform="translate(628.2339227248485 520.436366983467) rotate(0 -14.11944580078125 7.4669189453125)"><path d="M-0.31 -0.1 C-5 2.43, -23.47 12.73, -28.14 15.18 M0.52 -0.62 C-4.22 1.74, -23.65 11.74, -28.51 14.34" stroke="#000000" stroke-width="2" fill="none"></path></g></g><mask></mask></svg>