<svg version="1.1" xmlns="http://www.w3.org/2000/svg" viewBox="0 0 945.34129685622 454.54351806640625" width="945.34129685622" height="454.54351806640625">
  <!-- svg-source:excalidraw -->
  
  <defs>
    <style class="style-fonts">
      @font-face {
        font-family: "Virgil";
        src: url("https://excalidraw.com/Virgil.woff2");
      }
      @font-face {
        font-family: "Cascadia";
        src: url("https://excalidraw.com/Cascadia.woff2");
      }
      @font-face {
        font-family: "Assistant";
        src: url("https://excalidraw.com/Assistant-Regular.woff2");
      }
    </style>
    
  </defs>
  <rect x="0" y="0" width="945.34129685622" height="454.54351806640625" fill="#ffffff"></rect><g stroke-linecap="round" transform="translate(10 52.5) rotate(0 91.03846153846155 131.5)"><path d="M0 0 C0 0, 0 0, 0 0 M0 0 C0 0, 0 0, 0 0 M-0.26 6.4 C1.58 4.31, 2.79 3.57, 4.99 0.36 M-0.26 6.4 C1.17 4.22, 3.62 2.47, 4.99 0.36 M0.13 12.04 C3.72 7.18, 7.77 4.99, 10.63 -0.03 M0.13 12.04 C4.78 7.56, 7.1 3.72, 10.63 -0.03 M-0.13 18.44 C5.6 11.2, 10.8 9.13, 15.62 0.33 M-0.13 18.44 C5.58 11.45, 11.61 4.38, 15.62 0.33 M0.27 24.08 C7.02 16.7, 16.62 7.18, 21.26 -0.07 M0.27 24.08 C8.38 14.66, 16.14 6.29, 21.26 -0.07 M0 30.48 C8.7 19.29, 19.63 8.82, 26.25 0.29 M0 30.48 C8.93 20.21, 16.04 10.95, 26.25 0.29 M-0.26 36.88 C9.48 24.46, 23 7.87, 31.89 -0.1 M-0.26 36.88 C12.67 23.59, 22.36 10.61, 31.89 -0.1 M0.14 42.52 C9.05 32.26, 15.72 22.77, 36.88 0.26 M0.14 42.52 C7.71 34.92, 16.23 26.04, 36.88 0.26 M-0.12 48.92 C9.11 36.14, 21.98 23.5, 42.52 -0.14 M-0.12 48.92 C10.94 35.54, 23.67 22.19, 42.52 -0.14 M0.27 54.56 C12.76 41.61, 23.29 29.15, 47.51 0.22 M0.27 54.56 C12.98 40.98, 24.77 27.05, 47.51 0.22 M0.01 60.96 C16.95 43.11, 31.87 22.91, 53.15 -0.17 M0.01 60.96 C17 41.43, 32.35 23.1, 53.15 -0.17 M-0.25 67.36 C13.29 50.31, 32.05 33.84, 58.14 0.19 M-0.25 67.36 C22.34 41.97, 43.5 16.12, 58.14 0.19 M0.14 73 C21.79 47.47, 45.11 23.94, 63.78 -0.21 M0.14 73 C14.67 54.98, 29.97 37.59, 63.78 -0.21 M-0.12 79.4 C24.27 50.15, 46.66 23.45, 68.77 0.15 M-0.12 79.4 C24.29 50.19, 51.23 19.63, 68.77 0.15 M0.28 85.04 C24.54 54.55, 51.34 26.17, 74.41 -0.24 M0.28 85.04 C19.55 64.42, 38.19 42.92, 74.41 -0.24 M0.01 91.44 C18.27 71.97, 35.56 50.56, 79.4 0.12 M0.01 91.44 C29.55 57.42, 59.32 22.54, 79.4 0.12 M-0.25 97.84 C35.94 58.27, 66.62 19.5, 85.04 -0.28 M-0.25 97.84 C29.7 62.77, 60.37 27.05, 85.04 -0.28 M0.15 103.48 C17.76 80.53, 40.33 59.66, 90.03 0.08 M0.15 103.48 C18.38 82.59, 38.61 60.2, 90.03 0.08 M-0.11 109.88 C35.35 69.79, 68.63 33.31, 95.67 -0.31 M-0.11 109.88 C35.62 68.45, 72.67 27.77, 95.67 -0.31 M0.28 115.52 C34.11 79.22, 64.07 40.44, 100.66 0.05 M0.28 115.52 C22.04 89.36, 46.03 62.93, 100.66 0.05 M0.02 121.92 C24.67 97.44, 44.66 69.68, 106.3 -0.34 M0.02 121.92 C35.89 81.63, 71.18 40.55, 106.3 -0.34 M-0.24 128.32 C43.67 81.82, 83.06 31.45, 111.29 0.02 M-0.24 128.32 C30.46 92.03, 62.37 54.51, 111.29 0.02 M0.15 133.96 C31.28 97.17, 64.3 59.63, 116.27 0.38 M0.15 133.96 C27.67 101.23, 55.36 70.59, 116.27 0.38 M-0.11 140.36 C33.17 104.21, 63 66.78, 121.92 -0.02 M-0.11 140.36 C40.6 95.03, 79.02 50.32, 121.92 -0.02 M0.29 146 C28.89 111.16, 59.84 78.55, 126.91 0.34 M0.29 146 C44.73 94.35, 88.58 43.62, 126.91 0.34 M0.02 152.4 C39.36 111.47, 75.42 69.83, 132.55 -0.05 M0.02 152.4 C31.34 117.99, 61.16 83.05, 132.55 -0.05 M-0.24 158.8 C38.11 115.94, 76.58 69.34, 137.54 0.31 M-0.24 158.8 C43.06 108.17, 86.16 60.31, 137.54 0.31 M0.16 164.44 C54.37 100.1, 106.7 37.9, 143.18 -0.09 M0.16 164.44 C52.95 102.8, 109.13 39.43, 143.18 -0.09 M-0.1 170.84 C54.78 106.26, 110.75 44.29, 148.17 0.27 M-0.1 170.84 C57.02 106.1, 115.71 40.85, 148.17 0.27 M0.29 176.48 C54.97 110.88, 110.78 48.44, 153.81 -0.12 M0.29 176.48 C39.75 127.74, 80.9 81.81, 153.81 -0.12 M0.03 182.88 C62.04 108.7, 125.43 36.83, 158.8 0.24 M0.03 182.88 C38.18 138.81, 75.8 95.35, 158.8 0.24 M-0.23 189.27 C44.38 139.51, 86.69 89.48, 164.44 -0.16 M-0.23 189.27 C48.91 135.44, 94.87 82.1, 164.44 -0.16 M0.16 194.92 C65.54 122.96, 127.39 47.69, 169.43 0.2 M0.16 194.92 C60.45 124.27, 122.82 53.81, 169.43 0.2 M-0.1 201.32 C62.24 128.88, 124.71 58.53, 175.07 -0.19 M-0.1 201.32 C61.44 131.68, 122.56 62.9, 175.07 -0.19 M0.3 206.96 C52.67 145.65, 106.83 86.34, 180.06 0.17 M0.3 206.96 C41.99 159.21, 85.16 110.94, 180.06 0.17 M0.03 213.36 C64.78 140.95, 130.66 64.32, 182.42 3.55 M0.03 213.36 C46.55 156.35, 95.44 102.53, 182.42 3.55 M-0.23 219.75 C45.23 166.88, 91.38 114.22, 182.81 9.19 M-0.23 219.75 C64.37 147.78, 128.72 73.07, 182.81 9.19 M0.17 225.4 C37.55 178.87, 78.15 131.82, 182.55 15.59 M0.17 225.4 C66.84 148.09, 134.56 71.73, 182.55 15.59 M-0.09 231.8 C53.55 169.91, 108.98 106.64, 182.29 21.99 M-0.09 231.8 C40.62 186.9, 81.05 140.94, 182.29 21.99 M0.3 237.44 C63.19 165.4, 125.32 95.82, 182.68 27.63 M0.3 237.44 C54.69 175.5, 107.23 114.3, 182.68 27.63 M0.04 243.84 C45.62 191.79, 89.22 143.36, 182.42 34.03 M0.04 243.84 C66.11 169.18, 131.36 94.94, 182.42 34.03 M-0.22 250.23 C65.59 173.79, 135.36 99.02, 182.82 39.67 M-0.22 250.23 C72.72 167.76, 143.6 86.03, 182.82 39.67 M0.17 255.88 C73.15 170.08, 147.2 88.32, 182.56 46.07 M0.17 255.88 C52.84 196.19, 105.61 136.29, 182.56 46.07 M-0.09 262.27 C66.95 187.37, 132.24 110.55, 182.29 52.47 M-0.09 262.27 C57.3 197.29, 113.63 132.83, 182.29 52.47 M4.24 263.39 C48.16 211.46, 93.05 160.39, 182.69 58.11 M4.24 263.39 C66.06 190.36, 127.12 119.4, 182.69 58.11 M9.88 262.99 C53.62 213.59, 100.09 159.86, 182.43 64.51 M9.88 262.99 C48.73 219.21, 85.84 176.32, 182.43 64.51 M14.87 263.35 C52.6 222.06, 86.94 181.12, 182.82 70.15 M14.87 263.35 C61.45 206.78, 110.36 151.3, 182.82 70.15 M20.51 262.96 C56.08 223.44, 89.66 185.65, 182.56 76.55 M20.51 262.96 C84.2 191.52, 145.94 120.86, 182.56 76.55 M25.5 263.32 C61.23 221.26, 100.27 176.54, 182.3 82.94 M25.5 263.32 C66.36 218.36, 104.55 174.39, 182.3 82.94 M31.14 262.93 C65.6 225.33, 99.26 188.24, 182.69 88.59 M31.14 262.93 C61.71 229.31, 91.62 194.5, 182.69 88.59 M36.13 263.29 C67.03 226.39, 98.85 189.26, 182.43 94.99 M36.13 263.29 C64.55 229.33, 94.78 194.64, 182.43 94.99 M41.12 263.65 C87.17 212.16, 132.04 156.87, 182.83 100.63 M41.12 263.65 C91.79 206.08, 142.96 148.8, 182.83 100.63 M46.76 263.25 C75.28 231.99, 102.05 200.9, 182.57 107.03 M46.76 263.25 C90.64 212.37, 134.11 161.73, 182.57 107.03 M51.75 263.61 C79.52 233.16, 107.31 203.3, 182.3 113.42 M51.75 263.61 C83.51 226.29, 115.56 190.75, 182.3 113.42 M57.39 263.22 C101.96 214.72, 144.33 160.91, 182.7 119.07 M57.39 263.22 C105.77 207.37, 155.64 150.98, 182.7 119.07 M62.38 263.58 C110.87 209.36, 156.71 158.91, 182.44 125.47 M62.38 263.58 C108.69 208.84, 155.44 154.59, 182.44 125.47 M68.02 263.18 C114.88 210.55, 157.37 157.57, 182.83 131.11 M68.02 263.18 C113.97 212.87, 158.22 162.98, 182.83 131.11 M73.01 263.54 C97.95 231.81, 124 205.65, 182.57 137.51 M73.01 263.54 C96.02 236.33, 119.24 208.69, 182.57 137.51 M78.65 263.15 C120.39 218.97, 156.41 170.56, 182.31 143.9 M78.65 263.15 C111.3 224.62, 144.66 187.13, 182.31 143.9 M83.64 263.51 C118.01 222.62, 153.5 186.49, 182.7 149.55 M83.64 263.51 C107.4 237.08, 130.12 209.4, 182.7 149.55 M89.28 263.11 C116.78 230.37, 147.48 196.73, 182.44 155.94 M89.28 263.11 C109.34 242.35, 127.87 220.05, 182.44 155.94 M94.27 263.47 C126.21 223.72, 159.07 189.13, 182.84 161.59 M94.27 263.47 C119.69 234.4, 145.75 203.07, 182.84 161.59 M99.91 263.08 C126.86 231.41, 154 202.66, 182.58 167.99 M99.91 263.08 C119.57 238.07, 141.8 215.1, 182.58 167.99 M104.9 263.44 C132.37 227.98, 164.39 193.73, 182.31 174.38 M104.9 263.44 C133.19 231.68, 159.29 201.81, 182.31 174.38 M110.54 263.04 C131.47 239.13, 155.12 211.31, 182.71 180.03 M110.54 263.04 C131.81 238.59, 154.63 214.14, 182.71 180.03 M115.53 263.4 C138.23 237.82, 157.48 215.56, 182.45 186.42 M115.53 263.4 C132.22 242.96, 149.74 225.07, 182.45 186.42 M121.17 263.01 C140.31 244.23, 154.57 221.47, 182.84 192.07 M121.17 263.01 C143.57 236.4, 167.3 210.59, 182.84 192.07 M126.16 263.37 C145.6 241.62, 164.46 219.46, 182.58 198.47 M126.16 263.37 C147.45 239.64, 169.44 215.5, 182.58 198.47 M131.8 262.98 C150.97 238.21, 172.03 215.8, 182.32 204.86 M131.8 262.98 C148.61 244.1, 164.43 226.29, 182.32 204.86 M136.79 263.34 C147.57 247.76, 161.46 235.03, 182.71 210.51 M136.79 263.34 C154.81 242.87, 174.07 222.53, 182.71 210.51 M142.43 262.94 C155.84 246.25, 171.34 228.96, 182.45 216.9 M142.43 262.94 C150.4 252.81, 159.02 242.58, 182.45 216.9 M147.42 263.3 C159.28 249.31, 168.2 239.42, 182.19 223.3 M147.42 263.3 C156.78 252.03, 167.17 240.82, 182.19 223.3 M152.41 263.66 C157.17 258.1, 166.38 248.68, 182.59 228.94 M152.41 263.66 C161.81 253.01, 171.67 241.53, 182.59 228.94 M158.05 263.27 C163.97 258.71, 166.89 250.41, 182.32 235.34 M158.05 263.27 C167.5 252.65, 175.77 242.04, 182.32 235.34 M163.04 263.63 C171.48 255.07, 175.84 246.99, 182.72 240.99 M163.04 263.63 C168.23 257.66, 173.71 250.84, 182.72 240.99 M168.68 263.23 C170.09 258.9, 176.42 257.48, 182.46 247.38 M168.68 263.23 C171.55 260.25, 175.6 255.03, 182.46 247.38 M173.67 263.59 C176.38 261.38, 178.27 259.48, 182.2 253.78 M173.67 263.59 C175.82 261.36, 177.76 258.84, 182.2 253.78 M179.31 263.2 C179.63 262.04, 180.17 261.76, 182.59 259.42 M179.31 263.2 C180.57 261.96, 181.93 260.49, 182.59 259.42 M0.34 263.3 C0.34 263.3, 0.34 263.3, 0.34 263.3 M0.34 263.3 C0.34 263.3, 0.34 263.3, 0.34 263.3 M5.99 262.9 C3.27 260.21, 1.7 258.55, -0.05 257.66 M5.99 262.9 C4.3 261.63, 2.76 259.94, -0.05 257.66 M12.39 263.17 C7.54 258.64, 4.51 258.08, 0.31 252.67 M12.39 263.17 C8.77 261.15, 5.99 258.83, 0.31 252.67 M18.03 262.77 C9.26 255.79, 3.93 252.24, -0.08 247.03 M18.03 262.77 C14.09 259.46, 9.61 256.47, -0.08 247.03 M24.43 263.03 C16.53 257.75, 11.93 252.57, 0.28 242.04 M24.43 263.03 C17.79 257.06, 13.29 252.93, 0.28 242.04 M30.82 263.29 C22.04 258.01, 13.78 247.73, -0.12 236.4 M30.82 263.29 C20.11 253.52, 9.17 245.39, -0.12 236.4 M36.47 262.9 C25.04 252.32, 12.37 240.39, 0.24 231.41 M36.47 262.9 C27.64 254.52, 18.55 247.81, 0.24 231.41 M42.86 263.16 C29.98 250.07, 15.12 238.21, -0.15 225.77 M42.86 263.16 C33.46 255.11, 23.32 245.33, -0.15 225.77 M48.51 262.77 C37.33 253.28, 29.97 247.5, 0.21 220.78 M48.51 262.77 C32.5 249.48, 17.87 235.41, 0.21 220.78 M54.91 263.03 C33.95 246.06, 11.88 225.92, -0.19 215.14 M54.91 263.03 C37.2 247.77, 17.18 230.63, -0.19 215.14 M61.3 263.29 C36.13 242.74, 12.53 220, 0.17 210.15 M61.3 263.29 C41.76 247.8, 24.3 231.98, 0.17 210.15 M66.95 262.9 C42.88 238.87, 15.68 219.92, -0.22 204.51 M66.95 262.9 C43.76 243.2, 22.09 222.71, -0.22 204.51 M73.34 263.16 C49.46 244.05, 31.32 224.08, 0.14 199.52 M73.34 263.16 C45.1 239.1, 18.07 214.48, 0.14 199.52 M78.99 262.76 C53.99 242.17, 33.06 224.52, -0.26 193.88 M78.99 262.76 C51.14 237.72, 22.43 213.64, -0.26 193.88 M85.39 263.02 C65.29 246.36, 46.51 227.07, 0.1 188.89 M85.39 263.02 C62.7 243.59, 38.78 223.46, 0.1 188.89 M91.78 263.28 C62.28 236.02, 31.82 212.39, -0.29 183.25 M91.78 263.28 C58.19 235.34, 26.82 207.46, -0.29 183.25 M97.43 262.89 C73.03 242.35, 51.15 221.51, 0.07 178.26 M97.43 262.89 C75.74 243.48, 55.26 224.73, 0.07 178.26 M103.82 263.15 C76.58 236.59, 47.54 214.04, -0.33 172.62 M103.82 263.15 C68.44 231.76, 33.99 201.57, -0.33 172.62 M109.47 262.76 C86.19 242.42, 61.26 223.38, 0.03 167.63 M109.47 262.76 C84.14 238.97, 58.02 216.98, 0.03 167.63 M115.86 263.02 C73.95 226.38, 31.48 190.8, -0.36 161.99 M115.86 263.02 C74.44 225.42, 32.94 190.1, -0.36 161.99 M122.26 263.28 C94.35 241.11, 68.87 218.07, 0 157 M122.26 263.28 C89.38 235.79, 59.21 207.57, 0 157 M127.91 262.89 C80 221.22, 29.94 178.56, 0.36 152.01 M127.91 262.89 C90.46 230.6, 54.26 200.38, 0.36 152.01 M134.3 263.15 C83.02 217.71, 27.75 171.65, -0.03 146.37 M134.3 263.15 C87.08 219.54, 38.76 177.38, -0.03 146.37 M139.95 262.75 C86.68 213.38, 32.04 168.91, 0.33 141.38 M139.95 262.75 C105.85 232.23, 69.71 202.32, 0.33 141.38 M146.34 263.01 C119.41 237.66, 88.85 211.55, -0.07 135.74 M146.34 263.01 C90.63 215.93, 36.96 169.58, -0.07 135.74 M152.74 263.28 C123.28 237.06, 90.57 206.29, 0.29 130.75 M152.74 263.28 C117.67 235.59, 84.41 205.49, 0.29 130.75 M158.39 262.88 C126.47 236.91, 91.61 207.86, -0.1 125.11 M158.39 262.88 C120.25 230.06, 82.34 196.09, -0.1 125.11 M164.78 263.14 C119.75 222.9, 72.7 183.97, 0.26 120.12 M164.78 263.14 C129.31 233.93, 94.58 204.17, 0.26 120.12 M170.43 262.75 C121.89 219.72, 73.4 175.49, -0.14 114.48 M170.43 262.75 C122.28 220.1, 72.91 177.86, -0.14 114.48 M176.82 263.01 C128.34 218.74, 76.17 175.6, 0.22 109.49 M176.82 263.01 C131.82 223.1, 88.05 185.36, 0.22 109.49 M182.47 262.61 C139.65 227.82, 94.93 188.35, -0.17 103.85 M182.47 262.61 C119.55 208.91, 58.32 155.97, -0.17 103.85 M182.07 256.97 C134.06 214.71, 84.96 173.15, 0.19 98.86 M182.07 256.97 C138.61 218.84, 94.91 179.42, 0.19 98.86 M182.43 251.98 C119.74 200.22, 60.13 145.31, -0.21 93.22 M182.43 251.98 C114.25 190.52, 44.76 130.57, -0.21 93.22 M182.79 247 C128.19 199.86, 70.71 152.74, 0.15 88.23 M182.79 247 C127.21 198.17, 69.81 149, 0.15 88.23 M182.4 241.35 C146 209.38, 108.86 179.09, -0.24 82.59 M182.4 241.35 C121.26 187.7, 58.28 133.88, -0.24 82.59 M182.76 236.37 C130.12 189.45, 75.92 144.97, 0.12 77.6 M182.76 236.37 C143.86 201.44, 104.59 166.84, 0.12 77.6 M182.36 230.72 C120.15 178.3, 54.53 123.23, -0.28 71.96 M182.36 230.72 C129.36 184.12, 77.44 140.56, -0.28 71.96 M182.72 225.74 C124.32 175.14, 69.19 122.78, 0.08 66.97 M182.72 225.74 C113.42 165.88, 46.07 105.76, 0.08 66.97 M182.33 220.09 C110.33 156.72, 37.97 94.33, -0.31 61.33 M182.33 220.09 C143.75 185.41, 103.91 152.47, -0.31 61.33 M182.69 215.11 C131.02 170.56, 78.23 123.08, 0.05 56.34 M182.69 215.11 C139.1 178.59, 95.67 140.08, 0.05 56.34 M182.29 209.46 C133.28 166.85, 80.5 120.77, -0.35 50.7 M182.29 209.46 C134 165.91, 83.86 122.03, -0.35 50.7 M182.65 204.48 C128.93 158.17, 72.63 110.1, 0.01 45.71 M182.65 204.48 C127.92 157.6, 74.33 110.65, 0.01 45.71 M182.26 198.83 C141.25 160.94, 97.54 123.6, 0.37 40.72 M182.26 198.83 C119.27 144.23, 56.51 89.81, 0.37 40.72 M182.62 193.85 C129.18 146.44, 74.2 96.07, -0.02 35.08 M182.62 193.85 C130.65 148.93, 79.66 104.4, -0.02 35.08 M182.23 188.2 C141.53 155.49, 103.84 118.84, 0.34 30.09 M182.23 188.2 C134.56 145.34, 86.12 102.32, 0.34 30.09 M182.59 183.22 C141.92 150.26, 103.79 116.35, -0.05 24.45 M182.59 183.22 C114.11 126.13, 47.29 66.66, -0.05 24.45 M182.19 177.57 C126.48 129.15, 71.5 82.82, 0.31 19.46 M182.19 177.57 C109.62 113.54, 36.48 51.27, 0.31 19.46 M182.55 172.59 C112.6 114.94, 44.4 53.54, -0.09 13.82 M182.55 172.59 C117.74 114.85, 51.99 57.74, -0.09 13.82 M182.16 166.94 C138.21 127.66, 93.31 86.39, 0.27 8.83 M182.16 166.94 C135.84 124.85, 90 84.99, 0.27 8.83 M182.52 161.96 C121.3 107.41, 59.72 55.56, -0.12 3.19 M182.52 161.96 C125.64 112.45, 66.72 62.28, -0.12 3.19 M182.12 156.31 C120.59 102.3, 63.41 50.82, 1.75 -0.48 M182.12 156.31 C132.86 111.42, 82.48 68.74, 1.75 -0.48 M182.48 151.33 C136.41 110.57, 91.01 73.31, 8.14 -0.22 M182.48 151.33 C125.01 101.19, 65.34 49.97, 8.14 -0.22 M182.09 145.68 C122.47 92.91, 64.6 40.97, 13.79 -0.62 M182.09 145.68 C140.42 109.98, 97.32 72.27, 13.79 -0.62 M182.45 140.7 C131.07 96.77, 82.02 51.72, 20.18 -0.36 M182.45 140.7 C128.07 91.99, 70.98 43.39, 20.18 -0.36 M182.81 135.71 C149.35 109.05, 120.5 79.49, 26.58 -0.09 M182.81 135.71 C134.46 90.51, 83.33 48.1, 26.58 -0.09 M182.41 130.07 C138.43 92.01, 99.34 57.25, 32.23 -0.49 M182.41 130.07 C134.34 87.82, 86.69 45.68, 32.23 -0.49 M182.77 125.08 C138.93 89.81, 99.67 51.25, 38.62 -0.23 M182.77 125.08 C133.11 80.35, 81.87 36.73, 38.62 -0.23 M182.38 119.44 C136.53 80.41, 88.66 36.85, 44.27 -0.62 M182.38 119.44 C143.6 86.48, 103.61 52.64, 44.27 -0.62 M182.74 114.45 C138.95 76.77, 91.79 35.1, 50.66 -0.36 M182.74 114.45 C138.35 74.98, 93.2 35.01, 50.66 -0.36 M182.34 108.81 C145.96 75.73, 108.04 43.35, 57.06 -0.1 M182.34 108.81 C146.12 79.48, 111.65 49.15, 57.06 -0.1 M182.7 103.82 C137.63 62.6, 91.49 25.98, 62.71 -0.49 M182.7 103.82 C152.41 76.86, 121.87 51, 62.71 -0.49 M182.31 98.18 C141.98 64.35, 102.77 26.61, 69.1 -0.23 M182.31 98.18 C157.31 75.94, 133.23 54.31, 69.1 -0.23 M182.67 93.19 C148.61 64.35, 111.56 31.06, 74.75 -0.63 M182.67 93.19 C142.61 56.42, 99.6 19.64, 74.75 -0.63 M182.27 87.55 C149.44 60.18, 116.1 29.8, 81.14 -0.37 M182.27 87.55 C159.05 68.42, 135.6 46.72, 81.14 -0.37 M182.64 82.56 C160.83 61.58, 136.72 42.41, 87.54 -0.1 M182.64 82.56 C148.21 53.97, 114.7 24.2, 87.54 -0.1 M182.24 76.92 C159.32 58.61, 135.58 39.39, 93.18 -0.5 M182.24 76.92 C155.08 52.63, 127.48 31.03, 93.18 -0.5 M182.6 71.93 C158.06 52.17, 133.02 29.91, 99.58 -0.24 M182.6 71.93 C154.05 45.75, 124.17 19.39, 99.58 -0.24 M182.21 66.29 C157.82 45.14, 131.14 21.04, 105.23 -0.63 M182.21 66.29 C164.31 50.16, 144.97 34.55, 105.23 -0.63 M182.57 61.3 C158.79 41.07, 136.09 21.59, 111.62 -0.37 M182.57 61.3 C162.09 44.03, 140.91 25.08, 111.62 -0.37 M182.17 55.66 C163.07 42.3, 148.47 26.79, 118.02 -0.11 M182.17 55.66 C161.68 39.12, 142.1 21.88, 118.02 -0.11 M182.53 50.67 C164.38 33.64, 145.15 20.38, 123.66 -0.5 M182.53 50.67 C170.56 39.74, 158.38 29.78, 123.66 -0.5 M182.14 45.03 C167.29 32.36, 155.42 22.96, 130.06 -0.24 M182.14 45.03 C170.14 34.22, 159.25 25.09, 130.06 -0.24 M182.5 40.04 C168.27 25.56, 151.18 11.97, 135.71 -0.64 M182.5 40.04 C168.51 26.03, 151.95 13.76, 135.71 -0.64 M182.1 34.4 C164.37 20.02, 152.21 6.34, 142.1 -0.38 M182.1 34.4 C170.08 23.67, 159.59 14.35, 142.1 -0.38 M182.46 29.41 C175.89 22.58, 169.41 18.55, 148.5 -0.11 M182.46 29.41 C171.6 19, 158.22 9.57, 148.5 -0.11 M182.07 23.77 C170.63 16.56, 161.2 6.23, 154.14 -0.51 M182.07 23.77 C173.43 15.4, 164.78 8.27, 154.14 -0.51 M182.43 18.78 C179.44 15.03, 173.8 9.76, 160.54 -0.25 M182.43 18.78 C173.78 10.85, 165.89 4.42, 160.54 -0.25 M182.79 13.79 C175.4 8.59, 169.97 2.8, 166.18 -0.64 M182.79 13.79 C177.18 8.21, 171.89 4.62, 166.18 -0.64 M182.39 8.15 C178.74 3.97, 174.49 2.74, 172.58 -0.38 M182.39 8.15 C180.73 6.5, 177.87 5.12, 172.58 -0.38 M182.75 3.16 C182.32 2.86, 181.01 1.93, 178.98 -0.12 M182.75 3.16 C181.18 1.98, 179.75 0.78, 178.98 -0.12" stroke="#ffc9c9" stroke-width="0.5" fill="none"></path><path d="M0 0 C61.92 -1.27, 121.52 0.24, 182.08 0 M0 0 C42.05 -0.3, 83.25 -0.27, 182.08 0 M182.08 0 C183.68 84.93, 181.1 169.6, 182.08 263 M182.08 0 C180.63 92.81, 181.12 186.64, 182.08 263 M182.08 263 C115.92 263.78, 48.47 263.34, 0 263 M182.08 263 C112.87 264.48, 44.41 264.11, 0 263 M0 263 C-1.64 196.25, -2.51 129.19, 0 0 M0 263 C-2.41 196.63, -1.21 129.22, 0 0" stroke="#1e1e1e" stroke-width="1" fill="none"></path></g><g stroke-linecap="round"><g transform="translate(30.72847215512013 115.50210834350548) rotate(0 70.55884084551684 -0.6691419802740057)"><path d="M0 0 C42.13 0.78, 86.61 -1.64, 141.12 -1.34 M0 0 C50.85 -0.8, 102.82 -2.18, 141.12 -1.34" stroke="#1e1e1e" stroke-width="1" fill="none"></path></g></g><mask></mask><g stroke-linecap="round"><g transform="translate(31.05577772730271 155.1156207988504) rotate(0 70.3951880594256 -0.6207313905759548)"><path d="M0 0 C33.42 -2.18, 70.91 -0.56, 140.79 -1.24 M0 0 C54.49 -1.73, 108 -1.21, 140.79 -1.24" stroke="#1e1e1e" stroke-width="1" fill="none"></path></g></g><mask></mask><g stroke-linecap="round"><g transform="translate(30.27916333419148 236.77733623443288) rotate(0 70.78349525598117 -0.5501038971599428)"><path d="M0 0 C46.96 1.12, 93.08 -0.53, 141.57 -1.1 M0 0 C54.48 0.56, 110.68 -1.49, 141.57 -1.1" stroke="#1e1e1e" stroke-width="1" fill="none"></path></g></g><mask></mask><g stroke-linecap="round"><g transform="translate(30.08196419933961 196.82706580931733) rotate(0 70.78349525598117 -0.5501038971599428)"><path d="M0 0 C33.18 -1.44, 64.73 -0.36, 141.57 -1.1 M0 0 C43.11 -2.37, 86.04 -1.53, 141.57 -1.1" stroke="#1e1e1e" stroke-width="1" fill="none"></path></g></g><mask></mask><g stroke-linecap="round"><g transform="translate(31.69675080436957 276.07228769552785) rotate(0 70.78349525598117 -0.5501038971599428)"><path d="M0 0 C46.9 0.7, 90.27 -1.23, 141.57 -1.1 M0 0 C57.53 0.99, 112.83 1, 141.57 -1.1" stroke="#1e1e1e" stroke-width="1" fill="none"></path></g></g><mask></mask><g transform="translate(71.71538461538466 11.765384615384619) rotate(0 28.319992065429688 17.70192307692308)"><text x="0" y="0" font-family="Virgil, Segoe UI Emoji" font-size="28.323076923076922px" fill="#1971c2" text-anchor="start" style="white-space: pre;" direction="ltr" dominant-baseline="text-before-edge">功能</text></g><g transform="translate(54.076923076923094 83) rotate(0 47.33599090576172 10)"><text x="0" y="0" font-family="Virgil, Segoe UI Emoji" font-size="16px" fill="#1e1e1e" text-anchor="start" style="white-space: pre;" direction="ltr" dominant-baseline="text-before-edge">JVM信息监控</text></g><g transform="translate(54.23892564039966 128.5) rotate(0 48 10)"><text x="0" y="0" font-family="Virgil, Segoe UI Emoji" font-size="16px" fill="#1e1e1e" text-anchor="start" style="white-space: pre;" direction="ltr" dominant-baseline="text-before-edge">服务信息监控</text></g><g transform="translate(53.076923076923094 166.5) rotate(0 48 10)"><text x="0" y="0" font-family="Virgil, Segoe UI Emoji" font-size="16px" fill="#1e1e1e" text-anchor="start" style="white-space: pre;" direction="ltr" dominant-baseline="text-before-edge">接口信息监控</text></g><g transform="translate(67.0769230769231 208) rotate(0 32 10)"><text x="0" y="0" font-family="Virgil, Segoe UI Emoji" font-size="16px" fill="#1e1e1e" text-anchor="start" style="white-space: pre;" direction="ltr" dominant-baseline="text-before-edge">链路跟踪</text></g><g transform="translate(65.0769230769231 246) rotate(0 32 10)"><text x="0" y="0" font-family="Virgil, Segoe UI Emoji" font-size="16px" fill="#1e1e1e" text-anchor="start" style="white-space: pre;" direction="ltr" dominant-baseline="text-before-edge">日志查看</text></g><g transform="translate(64.0769230769231 285) rotate(0 32 10)"><text x="0" y="0" font-family="Virgil, Segoe UI Emoji" font-size="16px" fill="#1e1e1e" text-anchor="start" style="white-space: pre;" direction="ltr" dominant-baseline="text-before-edge">系统报警</text></g><g stroke-linecap="round"><g transform="translate(32.29342782094193 311.731162593719) rotate(0 70.78349525598117 -0.5501038971599428)"><path d="M0 0 C52.11 2.33, 98.8 -0.31, 141.57 -1.1 M0 0 C30.37 -1.78, 61.6 -0.81, 141.57 -1.1" stroke="#1e1e1e" stroke-width="1" fill="none"></path></g></g><mask></mask><g stroke-linecap="round" transform="translate(418.3125492976262 16.95648193359375) rotate(0 78.26437377929688 29.04351806640625)"><path d="M3.87 3.36 C3.87 3.36, 3.87 3.36, 3.87 3.36 M3.87 3.36 C3.87 3.36, 3.87 3.36, 3.87 3.36 M0.98 12.78 C4.09 9.46, 5.97 8.65, 11.48 0.7 M0.98 12.78 C4.89 7.92, 8.6 4.61, 11.48 0.7 M0.72 19.17 C6.4 13.92, 10.73 5.74, 17.12 0.31 M0.72 19.17 C4.11 14.25, 7.27 11.65, 17.12 0.31 M0.46 25.57 C4.76 21.25, 10.39 14.22, 22.76 -0.09 M0.46 25.57 C7.99 15.7, 17.64 6.53, 22.76 -0.09 M0.85 31.22 C10.47 22.58, 18.41 10.41, 27.75 0.27 M0.85 31.22 C8.82 21.06, 18.36 11.77, 27.75 0.27 M0.59 37.61 C5.91 30.94, 14.77 21.69, 33.39 -0.12 M0.59 37.61 C9.49 27.74, 17 18.74, 33.39 -0.12 M0.98 43.26 C13.93 30.74, 23.7 17.17, 38.38 0.24 M0.98 43.26 C8.56 34.76, 16.87 24.23, 38.38 0.24 M1.38 48.9 C15.32 31.38, 33.05 10.37, 43.37 0.6 M1.38 48.9 C16.56 31.66, 32.08 12.35, 43.37 0.6 M3.09 53.03 C16.13 34.2, 30.61 18.07, 49.01 0.2 M3.09 53.03 C17 36.5, 33.39 18.7, 49.01 0.2 M6.1 55.66 C22.11 34.67, 43.32 15.11, 54 0.56 M6.1 55.66 C22.37 37.26, 38.24 18.19, 54 0.56 M9.78 57.53 C24.31 41.41, 34.4 28.07, 59.64 0.17 M9.78 57.53 C28.57 36.39, 45.49 17, 59.64 0.17 M14.77 57.89 C24.38 45.12, 35.85 33.81, 64.63 0.53 M14.77 57.89 C26.55 44.07, 38.79 31.16, 64.63 0.53 M20.41 57.49 C32.82 41.19, 46.32 27.39, 70.27 0.13 M20.41 57.49 C39.1 34.63, 58.1 13.14, 70.27 0.13 M25.4 57.85 C42.01 39.77, 61.15 18.93, 75.26 0.49 M25.4 57.85 C45.62 35.76, 64.08 11.86, 75.26 0.49 M31.04 57.46 C40.83 42.39, 55.02 29.68, 80.24 0.85 M31.04 57.46 C42.12 44.64, 54.1 31.69, 80.24 0.85 M36.03 57.82 C45.99 44.23, 57.4 34.43, 85.89 0.46 M36.03 57.82 C52.3 38.58, 69.55 20.35, 85.89 0.46 M41.67 57.42 C60.02 39.71, 74.27 19.7, 90.87 0.82 M41.67 57.42 C53.81 45.44, 64.21 31.76, 90.87 0.82 M46.66 57.78 C61.79 41.41, 76.84 26.5, 96.52 0.43 M46.66 57.78 C59.64 41.29, 75.23 26.15, 96.52 0.43 M52.3 57.39 C64.55 43.45, 77.62 28.15, 101.5 0.79 M52.3 57.39 C65.07 42.19, 77.44 28.48, 101.5 0.79 M57.29 57.75 C69.72 46.23, 77.14 32.65, 107.15 0.39 M57.29 57.75 C69.75 43.44, 83.31 27.77, 107.15 0.39 M62.27 58.11 C73 47.57, 82.43 34.24, 112.13 0.75 M62.27 58.11 C79.8 37.42, 98.24 14.84, 112.13 0.75 M67.92 57.71 C83.17 41.51, 97.21 21.64, 117.12 1.11 M67.92 57.71 C85.33 39.23, 101.34 19.26, 117.12 1.11 M72.9 58.07 C85.97 43.46, 101.24 26.13, 122.76 0.72 M72.9 58.07 C89.33 39.21, 105.96 19.9, 122.76 0.72 M78.55 57.68 C90.15 44.86, 99.82 32.09, 127.75 1.08 M78.55 57.68 C89.2 45.34, 100.8 31.93, 127.75 1.08 M83.53 58.04 C100.38 39.04, 114.9 22.67, 133.39 0.68 M83.53 58.04 C95.38 43.92, 106.86 29.89, 133.39 0.68 M89.18 57.65 C101.99 41.43, 118.62 26.14, 138.38 1.04 M89.18 57.65 C104.26 40.45, 119.3 24.41, 138.38 1.04 M94.16 58.01 C112.77 34.08, 133.13 14.98, 144.02 0.65 M94.16 58.01 C111.5 38.5, 128.9 18.73, 144.02 0.65 M99.15 58.37 C119.13 35.48, 139.59 12.7, 149.01 1.01 M99.15 58.37 C116.64 37.91, 133.54 18.19, 149.01 1.01 M104.79 57.97 C125.01 38.34, 141.47 16.06, 152.03 3.63 M104.79 57.97 C118.56 43.78, 130.7 27.86, 152.03 3.63 M109.78 58.33 C120 45.7, 133.25 34.18, 155.05 6.26 M109.78 58.33 C119.78 48.13, 128.83 36.5, 155.05 6.26 M115.42 57.94 C125.55 47.17, 137.44 33.91, 156.76 10.39 M115.42 57.94 C127.51 42.99, 141.06 27.55, 156.76 10.39 M120.41 58.3 C132.62 40.16, 150.23 25.86, 157.15 16.03 M120.41 58.3 C133.82 44.21, 145.89 27.73, 157.15 16.03 M126.05 57.9 C132.57 51.42, 139.97 42.38, 156.89 22.43 M126.05 57.9 C138.67 44.04, 149.72 30.64, 156.89 22.43 M131.04 58.26 C140.98 46.93, 150.65 40.11, 156.63 28.83 M131.04 58.26 C137.9 48.69, 146.77 39.85, 156.63 28.83 M136.03 58.62 C142.35 50.31, 145.76 46.13, 156.37 35.23 M136.03 58.62 C142.26 52.33, 146 47.09, 156.37 35.23 M141.67 58.23 C146.72 52.79, 151.03 49.01, 156.76 40.87 M141.67 58.23 C144.64 53.49, 147.82 50.88, 156.76 40.87 M147.31 57.83 C148.85 55.76, 153.02 53.78, 156.5 47.27 M147.31 57.83 C150.58 54.81, 152.4 51.86, 156.5 47.27" stroke="#a5d8ff" stroke-width="0.5" fill="none"></path><path d="M14.52 0 C40.65 -1.61, 67.77 -1.56, 142.01 0 M14.52 0 C52.83 -0.23, 89.43 -0.56, 142.01 0 M142.01 0 C151.6 -0.22, 154.69 3.24, 156.53 14.52 M142.01 0 C149.69 0.9, 156.85 4.65, 156.53 14.52 M156.53 14.52 C155.28 22.38, 155.18 26.33, 156.53 43.57 M156.53 14.52 C157.2 20.06, 156.83 27.03, 156.53 43.57 M156.53 43.57 C157.05 54.53, 153.17 58.44, 142.01 58.09 M156.53 43.57 C157.15 52.86, 152.07 55.79, 142.01 58.09 M142.01 58.09 C106.65 59.51, 70.06 58.11, 14.52 58.09 M142.01 58.09 C112.09 58.82, 84.34 60.26, 14.52 58.09 M14.52 58.09 C5.22 57, -1.8 51.67, 0 43.57 M14.52 58.09 C4.16 58.62, 0.64 53.59, 0 43.57 M0 43.57 C0.52 33.8, 0.41 22.8, 0 14.52 M0 43.57 C-0.81 34.91, 0.87 25.42, 0 14.52 M0 14.52 C0.23 5.22, 6.76 0.44, 14.52 0 M0 14.52 C-1.82 4.8, 4.36 1.55, 14.52 0" stroke="#000000" stroke-width="1" fill="none"></path></g><g stroke-linecap="round" transform="translate(416.8125492976262 159.45648193359375) rotate(0 78.26437377929688 29.04351806640625)"><path d="M3.87 3.36 C3.87 3.36, 3.87 3.36, 3.87 3.36 M3.87 3.36 C3.87 3.36, 3.87 3.36, 3.87 3.36 M0.98 12.78 C4.52 10.32, 5.32 5.77, 11.48 0.7 M0.98 12.78 C4.56 9.02, 7.01 6.48, 11.48 0.7 M0.72 19.17 C7.31 11.55, 9.92 7.31, 17.12 0.31 M0.72 19.17 C5.53 13.68, 8.53 9.89, 17.12 0.31 M0.46 25.57 C6.48 20.19, 9.32 13, 22.76 -0.09 M0.46 25.57 C6.67 19.42, 11.54 13.38, 22.76 -0.09 M0.85 31.22 C9.81 22.12, 17.81 8.49, 27.75 0.27 M0.85 31.22 C10.75 19.25, 20.72 8.07, 27.75 0.27 M0.59 37.61 C11.11 26.01, 20.06 14.88, 33.39 -0.12 M0.59 37.61 C8.66 27.62, 18.09 15.88, 33.39 -0.12 M0.98 43.26 C11.85 29.57, 22.44 16.54, 38.38 0.24 M0.98 43.26 C10.84 32.75, 21.08 21.55, 38.38 0.24 M1.38 48.9 C16.34 32.69, 33.76 14.85, 43.37 0.6 M1.38 48.9 C17.61 29.93, 36.06 10.9, 43.37 0.6 M3.09 53.03 C21.55 32.87, 39.84 15.31, 49.01 0.2 M3.09 53.03 C14.82 39.76, 26.65 25.94, 49.01 0.2 M6.1 55.66 C22.57 35.59, 40.48 16.74, 54 0.56 M6.1 55.66 C20.38 39.4, 33.49 23.77, 54 0.56 M9.78 57.53 C21.65 44.76, 29.8 32.31, 59.64 0.17 M9.78 57.53 C21.86 44.7, 34.29 29.98, 59.64 0.17 M14.77 57.89 C27.77 44.12, 38.06 28.19, 64.63 0.53 M14.77 57.89 C26.87 45.14, 37.82 31.5, 64.63 0.53 M20.41 57.49 C40.39 34.35, 59.63 14.89, 70.27 0.13 M20.41 57.49 C38.79 36.89, 58.83 14.68, 70.27 0.13 M25.4 57.85 C45.22 36.47, 60.14 13.74, 75.26 0.49 M25.4 57.85 C45.64 35.47, 64.77 13.17, 75.26 0.49 M31.04 57.46 C40.27 45.5, 50.42 34.95, 80.24 0.85 M31.04 57.46 C42.67 44.44, 56.23 29.86, 80.24 0.85 M36.03 57.82 C49.34 41.83, 64.09 24.29, 85.89 0.46 M36.03 57.82 C52.55 36.45, 71.51 15.79, 85.89 0.46 M41.67 57.42 C53.32 41.85, 66.98 28.31, 90.87 0.82 M41.67 57.42 C56.33 40.87, 71.5 22.39, 90.87 0.82 M46.66 57.78 C64.72 34.21, 87.05 11.95, 96.52 0.43 M46.66 57.78 C64.99 38.51, 83.15 17.6, 96.52 0.43 M52.3 57.39 C63.74 42.59, 75.62 31.83, 101.5 0.79 M52.3 57.39 C70.77 36.19, 89.54 15, 101.5 0.79 M57.29 57.75 C67.97 40.58, 84.78 29.18, 107.15 0.39 M57.29 57.75 C70.02 44.39, 81.55 28.79, 107.15 0.39 M62.27 58.11 C80.88 36.44, 95.29 16.46, 112.13 0.75 M62.27 58.11 C74.67 43.29, 87.43 29.14, 112.13 0.75 M67.92 57.71 C81.02 41.35, 96.54 25.63, 117.12 1.11 M67.92 57.71 C84.09 37.53, 100.71 18.21, 117.12 1.11 M72.9 58.07 C90.42 40.55, 106.51 20.16, 122.76 0.72 M72.9 58.07 C84.01 45.94, 92.63 34.16, 122.76 0.72 M78.55 57.68 C91.79 40.79, 104.67 26.07, 127.75 1.08 M78.55 57.68 C89.29 46.73, 98.15 35.75, 127.75 1.08 M83.53 58.04 C94.48 42.25, 108.02 30.83, 133.39 0.68 M83.53 58.04 C99.27 41.36, 113.96 23.8, 133.39 0.68 M89.18 57.65 C99.24 41.47, 114.44 28.15, 138.38 1.04 M89.18 57.65 C98.58 45.39, 110.23 33.8, 138.38 1.04 M94.16 58.01 C113.13 33.66, 133.83 13.6, 144.02 0.65 M94.16 58.01 C109.84 40.39, 124.99 23.57, 144.02 0.65 M99.15 58.37 C109.84 45.43, 121.43 34.16, 149.01 1.01 M99.15 58.37 C119.43 36.21, 139.58 12.9, 149.01 1.01 M104.79 57.97 C116.53 44.89, 129 29.4, 152.03 3.63 M104.79 57.97 C122.08 38.61, 139.25 18.34, 152.03 3.63 M109.78 58.33 C120.86 46.15, 129.09 36.84, 155.05 6.26 M109.78 58.33 C121.41 45.28, 132.38 33.91, 155.05 6.26 M115.42 57.94 C131.67 39.16, 144.19 23.2, 156.76 10.39 M115.42 57.94 C130.49 40.73, 145.39 24.91, 156.76 10.39 M120.41 58.3 C130.02 48.71, 140.45 37.22, 157.15 16.03 M120.41 58.3 C129.94 48.06, 137.18 38.55, 157.15 16.03 M126.05 57.9 C132.07 49.97, 140.75 41.69, 156.89 22.43 M126.05 57.9 C134.54 49, 142.3 39.11, 156.89 22.43 M131.04 58.26 C138.61 51.69, 144.77 44.31, 156.63 28.83 M131.04 58.26 C141.17 47.52, 149.51 36.4, 156.63 28.83 M136.03 58.62 C143.37 48.37, 150.49 39.99, 156.37 35.23 M136.03 58.62 C141.13 52.46, 144.83 48.24, 156.37 35.23 M141.67 58.23 C146.38 54.19, 149.81 50.06, 156.76 40.87 M141.67 58.23 C145.65 54.47, 148.16 50.65, 156.76 40.87 M147.31 57.83 C150.68 52.96, 154.12 51.74, 156.5 47.27 M147.31 57.83 C150.31 53.4, 154.75 49.78, 156.5 47.27" stroke="#ffec99" stroke-width="0.5" fill="none"></path><path d="M14.52 0 C43.88 2.86, 71.73 1.22, 142.01 0 M14.52 0 C46.03 1.65, 76.09 0.32, 142.01 0 M142.01 0 C150.91 0.97, 157.93 4.49, 156.53 14.52 M142.01 0 C153.73 -0.31, 158.43 6.57, 156.53 14.52 M156.53 14.52 C155.33 26.36, 157.92 33.81, 156.53 43.57 M156.53 14.52 C155.89 22.53, 156.65 29.32, 156.53 43.57 M156.53 43.57 C156.81 55.24, 151.94 56.29, 142.01 58.09 M156.53 43.57 C158.16 53.73, 151.56 56.44, 142.01 58.09 M142.01 58.09 C99.83 56.72, 54.59 58.05, 14.52 58.09 M142.01 58.09 C102.13 58.33, 63.54 59.43, 14.52 58.09 M14.52 58.09 C3.45 59.11, -1.56 51.7, 0 43.57 M14.52 58.09 C2.82 59.88, 0.35 53.83, 0 43.57 M0 43.57 C1 38.38, 0.02 33.51, 0 14.52 M0 43.57 C-0.3 32.54, -0.4 23.66, 0 14.52 M0 14.52 C1.24 4.16, 2.95 -0.45, 14.52 0 M0 14.52 C-1.6 6.02, 3.22 0.9, 14.52 0" stroke="#000000" stroke-width="1" fill="none"></path></g><g stroke-linecap="round" transform="translate(727.8125492976262 18.45648193359375) rotate(0 78.26437377929688 29.04351806640625)"><path d="M3.87 3.36 C3.87 3.36, 3.87 3.36, 3.87 3.36 M3.87 3.36 C3.87 3.36, 3.87 3.36, 3.87 3.36 M0.98 12.78 C3.61 10.05, 8.41 4.63, 11.48 0.7 M0.98 12.78 C4.98 9.02, 8.88 3.79, 11.48 0.7 M0.72 19.17 C4.57 13.06, 8.19 8.76, 17.12 0.31 M0.72 19.17 C6.47 12.9, 11.67 6.88, 17.12 0.31 M0.46 25.57 C11.06 13.55, 17.52 3.25, 22.76 -0.09 M0.46 25.57 C8.32 16.28, 14.98 9.09, 22.76 -0.09 M0.85 31.22 C7.35 22.55, 15.92 13.21, 27.75 0.27 M0.85 31.22 C11.1 20.28, 20.51 8.73, 27.75 0.27 M0.59 37.61 C11 26.1, 23.51 14.87, 33.39 -0.12 M0.59 37.61 C8.47 28.11, 18.78 17.98, 33.39 -0.12 M0.98 43.26 C9.93 30.54, 20.01 20.12, 38.38 0.24 M0.98 43.26 C12.47 28.95, 25.83 15.44, 38.38 0.24 M1.38 48.9 C14.56 33.45, 29.44 17.93, 43.37 0.6 M1.38 48.9 C16.98 31, 29.94 15.04, 43.37 0.6 M3.09 53.03 C15.86 38.6, 23.65 25.12, 49.01 0.2 M3.09 53.03 C21.37 33.17, 39.17 13.17, 49.01 0.2 M6.1 55.66 C22.98 40.08, 35.7 23.99, 54 0.56 M6.1 55.66 C21.21 37.16, 38.86 17.92, 54 0.56 M9.78 57.53 C23.41 38.97, 40.2 22.18, 59.64 0.17 M9.78 57.53 C28.75 34.62, 47.48 11.72, 59.64 0.17 M14.77 57.89 C31.68 41.91, 46.98 20.65, 64.63 0.53 M14.77 57.89 C27.01 42.7, 41.22 28.25, 64.63 0.53 M20.41 57.49 C32.21 42.58, 45.29 29.11, 70.27 0.13 M20.41 57.49 C40.08 36.43, 57.5 14.15, 70.27 0.13 M25.4 57.85 C38.22 43.24, 48.11 31.13, 75.26 0.49 M25.4 57.85 C42.63 37.18, 62.45 15.54, 75.26 0.49 M31.04 57.46 C42.05 48.02, 48.39 35.27, 80.24 0.85 M31.04 57.46 C44.5 41.92, 59.41 24.08, 80.24 0.85 M36.03 57.82 C44.62 47.3, 56.58 35.86, 85.89 0.46 M36.03 57.82 C55.66 35.98, 74.36 14.36, 85.89 0.46 M41.67 57.42 C51.26 47.36, 62.44 35.34, 90.87 0.82 M41.67 57.42 C52.07 45.08, 63.47 31.78, 90.87 0.82 M46.66 57.78 C62.75 41.81, 77.57 21.93, 96.52 0.43 M46.66 57.78 C59.74 42.94, 71.11 29.65, 96.52 0.43 M52.3 57.39 C70.31 34.13, 91.48 13.8, 101.5 0.79 M52.3 57.39 C63.82 44.3, 76.2 31.12, 101.5 0.79 M57.29 57.75 C68.99 42.59, 83.31 28.89, 107.15 0.39 M57.29 57.75 C73.51 38.28, 90.86 18.54, 107.15 0.39 M62.27 58.11 C73.33 43.47, 83.49 33.47, 112.13 0.75 M62.27 58.11 C75.7 42.8, 91.58 24.66, 112.13 0.75 M67.92 57.71 C76.03 47.72, 88.6 33.27, 117.12 1.11 M67.92 57.71 C81.77 41.72, 94.87 26.34, 117.12 1.11 M72.9 58.07 C85.14 45.12, 97.35 31.46, 122.76 0.72 M72.9 58.07 C87.31 39.69, 104.78 21.85, 122.76 0.72 M78.55 57.68 C93.93 41.01, 104.49 26.37, 127.75 1.08 M78.55 57.68 C93.93 39.36, 110.45 20.46, 127.75 1.08 M83.53 58.04 C100.53 41.79, 114.34 22.43, 133.39 0.68 M83.53 58.04 C100.95 36, 120.13 16.45, 133.39 0.68 M89.18 57.65 C98.81 43.55, 110.31 33.4, 138.38 1.04 M89.18 57.65 C99.93 45.47, 110.2 33.97, 138.38 1.04 M94.16 58.01 C107.01 44.08, 117.71 32.4, 144.02 0.65 M94.16 58.01 C105.95 43.23, 118.89 28.76, 144.02 0.65 M99.15 58.37 C117.67 35.87, 136.73 14.07, 149.01 1.01 M99.15 58.37 C112.29 43.08, 126.24 26.95, 149.01 1.01 M104.79 57.97 C115.98 44.27, 129.28 30.71, 152.03 3.63 M104.79 57.97 C118.72 42, 134.58 25.12, 152.03 3.63 M109.78 58.33 C127.31 38.45, 140.84 21.61, 155.05 6.26 M109.78 58.33 C123.72 43.41, 136.48 28.48, 155.05 6.26 M115.42 57.94 C123.42 48.94, 133.91 38.06, 156.76 10.39 M115.42 57.94 C124.31 46.56, 134.76 36.78, 156.76 10.39 M120.41 58.3 C129.22 46.01, 143.94 34.94, 157.15 16.03 M120.41 58.3 C131.35 46.83, 142.07 33.93, 157.15 16.03 M126.05 57.9 C133.56 50.82, 137.65 42.1, 156.89 22.43 M126.05 57.9 C132.12 50.61, 139.94 42.06, 156.89 22.43 M131.04 58.26 C142.91 48.43, 151.89 34.11, 156.63 28.83 M131.04 58.26 C140.24 48, 149.76 37.18, 156.63 28.83 M136.03 58.62 C140.43 51.53, 146.11 50.25, 156.37 35.23 M136.03 58.62 C142.6 52.58, 146.55 46.95, 156.37 35.23 M141.67 58.23 C147.11 55.87, 147.28 48.39, 156.76 40.87 M141.67 58.23 C148.29 51.28, 153.54 44.04, 156.76 40.87 M147.31 57.83 C147.74 56.47, 149.71 54.78, 156.5 47.27 M147.31 57.83 C150.14 54.67, 151.65 52.64, 156.5 47.27" stroke="#ffc9c9" stroke-width="0.5" fill="none"></path><path d="M14.52 0 C44.39 1.42, 71.64 -0.8, 142.01 0 M14.52 0 C50.67 -0.62, 86.97 -0.03, 142.01 0 M142.01 0 C151.34 1.59, 155.82 3.52, 156.53 14.52 M142.01 0 C150.64 1.92, 157.96 4.06, 156.53 14.52 M156.53 14.52 C157.49 19.08, 157.25 25.65, 156.53 43.57 M156.53 14.52 C156.49 26.17, 157.46 36.71, 156.53 43.57 M156.53 43.57 C157.67 52, 153.44 58.92, 142.01 58.09 M156.53 43.57 C154.41 53.16, 150.66 56.54, 142.01 58.09 M142.01 58.09 C93.66 58.47, 42.77 58.71, 14.52 58.09 M142.01 58.09 C99.43 59.26, 58.36 59.35, 14.52 58.09 M14.52 58.09 C5.31 56.48, 1.34 51.58, 0 43.57 M14.52 58.09 C3.3 58.3, -1.03 52.2, 0 43.57 M0 43.57 C-1.44 35.81, -1.47 27.33, 0 14.52 M0 43.57 C-0.89 32.58, -0.67 22.66, 0 14.52 M0 14.52 C-1.25 6.69, 4.85 0.63, 14.52 0 M0 14.52 C0.59 5.85, 5.12 1.01, 14.52 0" stroke="#000000" stroke-width="1" fill="none"></path></g><g stroke-linecap="round" transform="translate(728.8125492976262 149.45648193359375) rotate(0 78.26437377929688 29.04351806640625)"><path d="M3.87 3.36 C3.87 3.36, 3.87 3.36, 3.87 3.36 M3.87 3.36 C3.87 3.36, 3.87 3.36, 3.87 3.36 M0.98 12.78 C3.79 11.42, 6.16 9.25, 11.48 0.7 M0.98 12.78 C4.48 8.85, 9.59 3.34, 11.48 0.7 M0.72 19.17 C8.32 10.24, 13.65 6.32, 17.12 0.31 M0.72 19.17 C5.62 13.51, 8.89 9.46, 17.12 0.31 M0.46 25.57 C5.44 19.28, 9.8 11.63, 22.76 -0.09 M0.46 25.57 C5.27 20.32, 11.6 14.3, 22.76 -0.09 M0.85 31.22 C5.54 23.91, 10.44 20.51, 27.75 0.27 M0.85 31.22 C7.55 23.18, 14.19 15.79, 27.75 0.27 M0.59 37.61 C7.06 30.12, 16.76 18.2, 33.39 -0.12 M0.59 37.61 C7.72 29.53, 15 20.01, 33.39 -0.12 M0.98 43.26 C13.73 26.56, 27.85 14.28, 38.38 0.24 M0.98 43.26 C14.26 28.86, 28.22 12.21, 38.38 0.24 M1.38 48.9 C15.69 32.07, 30.56 17.89, 43.37 0.6 M1.38 48.9 C11.17 38.23, 19.61 29.35, 43.37 0.6 M3.09 53.03 C19.55 32.87, 39.24 10.63, 49.01 0.2 M3.09 53.03 C19.48 33.45, 37.92 14.53, 49.01 0.2 M6.1 55.66 C21.64 35.74, 39.95 17.16, 54 0.56 M6.1 55.66 C18.13 42.64, 30.3 29, 54 0.56 M9.78 57.53 C22.87 43.25, 35.2 25.98, 59.64 0.17 M9.78 57.53 C24.46 40.07, 38.21 24.05, 59.64 0.17 M14.77 57.89 C33.1 35.05, 53.88 14.22, 64.63 0.53 M14.77 57.89 C28.37 42.13, 41.43 27.5, 64.63 0.53 M20.41 57.49 C40.8 34.8, 58.11 14.58, 70.27 0.13 M20.41 57.49 C33.05 44.11, 43.3 30.26, 70.27 0.13 M25.4 57.85 C42.04 35.41, 63.6 17.42, 75.26 0.49 M25.4 57.85 C36.35 43.87, 48.8 32.28, 75.26 0.49 M31.04 57.46 C43.69 44.61, 54.97 29.69, 80.24 0.85 M31.04 57.46 C43.94 44.06, 55.56 30.61, 80.24 0.85 M36.03 57.82 C56.23 34.66, 72.72 17.32, 85.89 0.46 M36.03 57.82 C51.84 40.63, 66.79 21.18, 85.89 0.46 M41.67 57.42 C57.21 37.5, 74.35 19.42, 90.87 0.82 M41.67 57.42 C55.79 40.65, 72.39 22.36, 90.87 0.82 M46.66 57.78 C63.21 37.75, 76.44 21.35, 96.52 0.43 M46.66 57.78 C65.5 35.8, 83.32 14.79, 96.52 0.43 M52.3 57.39 C70.26 38.48, 87.25 18.13, 101.5 0.79 M52.3 57.39 C70.52 37.63, 88.08 16.66, 101.5 0.79 M57.29 57.75 C75.26 37.25, 91.15 18.54, 107.15 0.39 M57.29 57.75 C71.61 41.13, 84.92 24.78, 107.15 0.39 M62.27 58.11 C81.96 35.38, 100.58 14.88, 112.13 0.75 M62.27 58.11 C76.01 40.7, 91.32 24.58, 112.13 0.75 M67.92 57.71 C84.61 35.61, 105.44 17, 117.12 1.11 M67.92 57.71 C85.82 38.06, 102.25 16.49, 117.12 1.11 M72.9 58.07 C90.18 38.89, 108.82 17.59, 122.76 0.72 M72.9 58.07 C87.2 40.85, 103.03 24.8, 122.76 0.72 M78.55 57.68 C97.29 36.49, 112.91 18.67, 127.75 1.08 M78.55 57.68 C96.18 36.03, 114.16 17.52, 127.75 1.08 M83.53 58.04 C102.44 36, 124.26 13.42, 133.39 0.68 M83.53 58.04 C101.19 39.56, 117.15 19.54, 133.39 0.68 M89.18 57.65 C100.86 42.51, 114.44 30.71, 138.38 1.04 M89.18 57.65 C103.16 42.12, 118.28 25.06, 138.38 1.04 M94.16 58.01 C106.77 44.05, 118.95 30.77, 144.02 0.65 M94.16 58.01 C109.17 40.41, 123.48 23.82, 144.02 0.65 M99.15 58.37 C121.12 37.89, 139.81 12.14, 149.01 1.01 M99.15 58.37 C119.28 36.75, 139.55 12.55, 149.01 1.01 M104.79 57.97 C115.77 47.91, 124.39 35.04, 152.03 3.63 M104.79 57.97 C117.31 43.89, 128.19 31.16, 152.03 3.63 M109.78 58.33 C129.44 39.01, 144.84 15.91, 155.05 6.26 M109.78 58.33 C125.58 41.13, 140.58 23.58, 155.05 6.26 M115.42 57.94 C129.75 44.76, 138.92 26.96, 156.76 10.39 M115.42 57.94 C127.06 43.76, 140.58 27.56, 156.76 10.39 M120.41 58.3 C128.51 48.11, 135.93 41.77, 157.15 16.03 M120.41 58.3 C130.07 47.56, 139.19 34.72, 157.15 16.03 M126.05 57.9 C130.91 48.33, 141.08 43.35, 156.89 22.43 M126.05 57.9 C134.74 48.19, 141.01 40.3, 156.89 22.43 M131.04 58.26 C137.37 51.71, 144.42 42.97, 156.63 28.83 M131.04 58.26 C138.55 48.65, 146.52 39.6, 156.63 28.83 M136.03 58.62 C144.72 51.13, 150.06 42.22, 156.37 35.23 M136.03 58.62 C141.76 51.19, 149.44 44.48, 156.37 35.23 M141.67 58.23 C146.34 54.72, 149.66 46.19, 156.76 40.87 M141.67 58.23 C146.74 53.52, 150.38 47.44, 156.76 40.87 M147.31 57.83 C149.68 55.03, 152.57 49.58, 156.5 47.27 M147.31 57.83 C150.63 55.05, 153.3 51.72, 156.5 47.27" stroke="#d0bfff" stroke-width="0.5" fill="none"></path><path d="M14.52 0 C48.62 2.1, 79.35 1.71, 142.01 0 M14.52 0 C48.25 0, 80.21 -0.3, 142.01 0 M142.01 0 C150.42 -0.14, 155.66 4.02, 156.53 14.52 M142.01 0 C149.55 0.2, 156.93 6.54, 156.53 14.52 M156.53 14.52 C158.09 22.61, 158.59 33.29, 156.53 43.57 M156.53 14.52 C156.66 24.91, 157.09 37.93, 156.53 43.57 M156.53 43.57 C157.62 54.73, 150.15 58.28, 142.01 58.09 M156.53 43.57 C157.54 52.84, 153.97 60.22, 142.01 58.09 M142.01 58.09 C108.53 59.25, 75.07 59.13, 14.52 58.09 M142.01 58.09 C94.62 59.08, 47.93 59.78, 14.52 58.09 M14.52 58.09 C4.51 59.07, 1.57 55.2, 0 43.57 M14.52 58.09 C4.24 59.25, -0.64 51.16, 0 43.57 M0 43.57 C-0.69 32.31, -1.14 20.56, 0 14.52 M0 43.57 C0.5 37.36, -0.76 29.13, 0 14.52 M0 14.52 C-0.98 5.87, 5.2 0.72, 14.52 0 M0 14.52 C-1.98 3.7, 3.3 0.64, 14.52 0" stroke="#000000" stroke-width="1" fill="none"></path></g><g stroke-linecap="round" transform="translate(404.8125492976262 334.45648193359375) rotate(0 265.2643737792969 55.04351806640625)"><path d="M6.67 7.12 C6.67 7.12, 6.67 7.12, 6.67 7.12 M6.67 7.12 C6.67 7.12, 6.67 7.12, 6.67 7.12 M3.13 17.29 C6.29 14.19, 12.04 8.87, 16.25 2.2 M3.13 17.29 C7.23 11.33, 11.16 6.34, 16.25 2.2 M2.21 24.45 C5.84 18.7, 11.85 16.32, 21.89 1.81 M2.21 24.45 C6.13 19.09, 11.64 14.96, 21.89 1.81 M2.61 30.09 C11.72 18.77, 18.26 11.69, 28.19 0.66 M2.61 30.09 C12.38 17.67, 22.17 7.16, 28.19 0.66 M3 35.73 C14.97 24.7, 24.04 11.52, 33.83 0.26 M3 35.73 C11.78 25.53, 21.34 14.41, 33.83 0.26 M2.74 42.13 C18.27 26.4, 29.52 12.22, 38.82 0.62 M2.74 42.13 C11.6 31.56, 19.53 22.54, 38.82 0.62 M2.48 48.53 C14.35 36.28, 23.93 25.75, 43.81 0.98 M2.48 48.53 C14.07 35.9, 25.47 23, 43.81 0.98 M2.87 54.17 C20.67 36.6, 37.81 15.58, 49.45 0.59 M2.87 54.17 C19.88 33.69, 38.8 15, 49.45 0.59 M2.61 60.57 C23.37 38.14, 44.66 13.87, 54.44 0.95 M2.61 60.57 C22.02 38.89, 40.37 17.82, 54.44 0.95 M3 66.21 C22.73 43.18, 41.97 22.86, 60.08 0.55 M3 66.21 C14.54 51.33, 28.34 38.98, 60.08 0.55 M2.74 72.61 C19.03 50.79, 38.35 31.34, 65.07 0.91 M2.74 72.61 C17.61 55.35, 32.89 38.11, 65.07 0.91 M2.48 79.01 C22.97 55.7, 44.06 30.58, 70.71 0.52 M2.48 79.01 C18.25 60.41, 34.25 42.32, 70.71 0.52 M2.88 84.65 C20.88 65.14, 41.89 43.7, 75.7 0.88 M2.88 84.65 C23.73 58.65, 46.15 34.44, 75.7 0.88 M3.27 90.29 C20.53 70.48, 35.12 54.55, 81.34 0.48 M3.27 90.29 C26.17 63, 50.86 33.41, 81.34 0.48 M3.67 95.94 C28.87 66.16, 54.77 38.75, 86.33 0.84 M3.67 95.94 C23.29 74.12, 41.11 51.79, 86.33 0.84 M5.37 100.07 C35.66 68.9, 61.34 37.31, 91.97 0.45 M5.37 100.07 C33.37 68.25, 59.19 35.54, 91.97 0.45 M7.73 103.45 C25.38 81, 44.92 58.86, 96.96 0.81 M7.73 103.45 C28.82 76.32, 52.05 51.4, 96.96 0.81 M10.75 106.07 C34.14 77.88, 58.68 50.88, 102.6 0.41 M10.75 106.07 C43.72 67.92, 75.13 30.28, 102.6 0.41 M14.43 107.94 C39.58 76.1, 67.19 47.84, 107.59 0.77 M14.43 107.94 C42.92 77.98, 69.42 47.72, 107.59 0.77 M17.45 110.57 C52.29 68.61, 91.29 28.27, 113.23 0.38 M17.45 110.57 C46.81 76.62, 76.56 41.99, 113.23 0.38 M22.43 110.93 C44.66 87.6, 64.87 62.21, 118.22 0.74 M22.43 110.93 C57.09 72.07, 90.35 30.4, 118.22 0.74 M28.08 110.53 C66.98 69.77, 100.77 28.27, 123.86 0.35 M28.08 110.53 C56.12 76.1, 86.17 42.58, 123.86 0.35 M33.06 110.89 C63.02 74.12, 95.1 35.53, 128.85 0.71 M33.06 110.89 C54.51 88.09, 75.87 63.65, 128.85 0.71 M38.05 111.25 C64.63 79.65, 93.95 46.56, 133.84 1.07 M38.05 111.25 C63.25 83.08, 88.13 53.88, 133.84 1.07 M43.69 110.86 C68.4 82.29, 89.26 57.15, 139.48 0.67 M43.69 110.86 C73.99 75.64, 102.98 43.05, 139.48 0.67 M48.68 111.22 C81.77 76.12, 110.25 38, 144.47 1.03 M48.68 111.22 C76.99 79.24, 105.5 48.23, 144.47 1.03 M54.32 110.82 C88.41 73.14, 122.35 33.11, 150.11 0.64 M54.32 110.82 C93.2 67.1, 129.64 24.95, 150.11 0.64 M59.31 111.18 C96.07 69.98, 127.41 29, 155.1 1 M59.31 111.18 C93.18 72.59, 125.09 34.29, 155.1 1 M64.95 110.79 C94.65 76.94, 126.6 40.33, 160.74 0.6 M64.95 110.79 C95.48 75.86, 126.91 39.64, 160.74 0.6 M69.94 111.15 C98.2 80.57, 124.44 47.05, 165.73 0.96 M69.94 111.15 C104.3 70.15, 140.26 29.69, 165.73 0.96 M75.58 110.76 C104.78 78.87, 132.55 48.1, 171.37 0.57 M75.58 110.76 C104.73 78.34, 131.1 45.35, 171.37 0.57 M80.57 111.12 C108.22 75.96, 140.39 44.8, 176.36 0.93 M80.57 111.12 C110.74 75.09, 142.2 40.22, 176.36 0.93 M86.21 110.72 C120.23 70.92, 156.37 30.06, 182 0.53 M86.21 110.72 C123.13 67.74, 159.09 26.08, 182 0.53 M91.2 111.08 C126.54 71.04, 155.81 36.35, 186.99 0.89 M91.2 111.08 C125.63 72.33, 159.86 31.3, 186.99 0.89 M96.85 110.69 C130.51 70.09, 165.89 30.41, 192.63 0.5 M96.85 110.69 C134.21 68.41, 172.27 26.01, 192.63 0.5 M101.83 111.05 C128.64 77.86, 158.64 45.46, 197.62 0.86 M101.83 111.05 C128.15 81.05, 153.86 50.67, 197.62 0.86 M107.48 110.65 C136.05 76.39, 168.92 39.89, 203.26 0.46 M107.48 110.65 C128.5 85.64, 148.52 63.19, 203.26 0.46 M112.46 111.01 C150.04 71.25, 183.48 27.18, 208.25 0.82 M112.46 111.01 C135.13 86.09, 156.64 59.64, 208.25 0.82 M118.11 110.62 C145.07 80.48, 166.94 53.41, 213.89 0.43 M118.11 110.62 C144.91 81.5, 171.88 51.35, 213.89 0.43 M123.09 110.98 C159.43 69.18, 192.1 32.28, 218.88 0.79 M123.09 110.98 C146.62 84.46, 168.64 57.65, 218.88 0.79 M128.08 111.34 C159.48 73.12, 193.03 39.49, 223.86 1.15 M128.08 111.34 C156.07 80.1, 184.97 47.33, 223.86 1.15 M133.72 110.94 C164.71 72.25, 200.1 34.64, 229.51 0.76 M133.72 110.94 C162.41 79.05, 191.93 46.05, 229.51 0.76 M138.71 111.3 C164.66 83.42, 191.29 50.61, 234.49 1.12 M138.71 111.3 C169.61 78.03, 198.03 43.37, 234.49 1.12 M144.35 110.91 C182.09 68.29, 215.73 27.92, 240.14 0.72 M144.35 110.91 C164.91 84.94, 185.92 60.32, 240.14 0.72 M149.34 111.27 C176.29 79.96, 200.33 48.15, 245.12 1.08 M149.34 111.27 C173.04 83.22, 199.5 54.04, 245.12 1.08 M154.98 110.87 C177.11 83.95, 201.69 55.17, 250.77 0.69 M154.98 110.87 C176.98 86.7, 198.7 61.34, 250.77 0.69 M159.97 111.23 C195.71 69.15, 231.18 26.89, 255.75 1.05 M159.97 111.23 C197.72 67.66, 236.34 22.9, 255.75 1.05 M165.61 110.84 C190.48 80.74, 217.64 48.74, 261.4 0.65 M165.61 110.84 C199.9 71.35, 233.51 32.5, 261.4 0.65 M170.6 111.2 C193.75 86.69, 215.92 60.53, 266.38 1.01 M170.6 111.2 C197.45 78.54, 226.72 47.77, 266.38 1.01 M176.24 110.81 C208.49 73.22, 238.85 38.63, 272.03 0.62 M176.24 110.81 C198.98 83.7, 223.22 56.95, 272.03 0.62 M181.23 111.17 C217.63 69.09, 253.53 24.89, 277.01 0.98 M181.23 111.17 C220.25 67.77, 257.22 24.01, 277.01 0.98 M186.87 110.77 C208.13 86.81, 231.56 62.27, 282.66 0.58 M186.87 110.77 C219.52 74.41, 251.2 37.52, 282.66 0.58 M191.86 111.13 C225.56 73.66, 260.1 32.36, 287.64 0.94 M191.86 111.13 C221.82 76.48, 251.74 43.33, 287.64 0.94 M197.5 110.74 C229.55 77.98, 259 42.54, 293.29 0.55 M197.5 110.74 C226.55 78.28, 255.84 45.35, 293.29 0.55 M202.49 111.1 C236.19 72.85, 267.52 33.85, 298.27 0.91 M202.49 111.1 C232.76 78.46, 262.03 44.94, 298.27 0.91 M208.13 110.7 C234.95 82.09, 257.25 51.87, 303.92 0.51 M208.13 110.7 C246.13 66.06, 283.89 23.31, 303.92 0.51 M213.12 111.06 C232.66 87.92, 251.74 66.7, 308.9 0.87 M213.12 111.06 C250.98 66.9, 288.35 24.47, 308.9 0.87 M218.11 111.42 C248.62 76.02, 282.27 42.68, 313.89 1.23 M218.11 111.42 C248.54 77.07, 278.8 42.98, 313.89 1.23 M223.75 111.03 C261.12 67.09, 299.09 22.59, 319.53 0.84 M223.75 111.03 C249.34 79.55, 277.02 49.13, 319.53 0.84 M228.74 111.39 C254 81.69, 279.21 52.98, 324.52 1.2 M228.74 111.39 C260.67 74.56, 293.96 35.69, 324.52 1.2 M234.38 110.99 C256.97 83.73, 280.1 56.12, 330.16 0.81 M234.38 110.99 C269.97 69.27, 306.62 26.11, 330.16 0.81 M239.37 111.35 C275.35 67.72, 311.76 25.97, 335.15 1.17 M239.37 111.35 C273.88 69.86, 308.82 28.91, 335.15 1.17 M245.01 110.96 C274.34 79.68, 300.85 47.67, 340.79 0.77 M245.01 110.96 C266.48 86, 288.88 60.74, 340.79 0.77 M250 111.32 C283.59 71.47, 317.16 36.2, 345.78 1.13 M250 111.32 C277.34 77.49, 306.55 45.24, 345.78 1.13 M255.64 110.92 C290.89 72.13, 324.24 34.6, 351.42 0.74 M255.64 110.92 C280.54 82.53, 303.7 56.06, 351.42 0.74 M260.63 111.28 C292.42 74.71, 325.2 37.11, 356.41 1.1 M260.63 111.28 C285.94 82.09, 311.09 51.37, 356.41 1.1 M266.27 110.89 C288.06 83.15, 310.8 56.72, 362.06 0.7 M266.27 110.89 C303.76 68.48, 342.93 25, 362.06 0.7 M271.26 111.25 C299.88 76.68, 327.17 46.13, 367.04 1.06 M271.26 111.25 C305.72 70.01, 343.42 29.63, 367.04 1.06 M276.9 110.85 C302.18 83.47, 328.21 51.94, 372.69 0.67 M276.9 110.85 C307.11 74.92, 338.92 40.94, 372.69 0.67 M281.89 111.21 C310.66 79, 336.46 49.62, 377.67 1.03 M281.89 111.21 C316.98 69.99, 352.37 28.8, 377.67 1.03 M287.53 110.82 C318.24 73.15, 348.34 41.09, 383.32 0.63 M287.53 110.82 C326.64 67.32, 364.08 24.51, 383.32 0.63 M292.52 111.18 C324.56 74.71, 357.89 37.87, 388.3 0.99 M292.52 111.18 C312.91 90.34, 332.73 67.18, 388.3 0.99 M298.16 110.79 C334.22 68.82, 369.95 27.06, 393.95 0.6 M298.16 110.79 C326.81 80.46, 354.07 48.72, 393.95 0.6 M303.15 111.15 C339.04 69.45, 378.29 26.36, 398.93 0.96 M303.15 111.15 C322.38 87.49, 343.15 65.02, 398.93 0.96 M308.13 111.51 C331.64 87.13, 354.1 60.39, 403.92 1.32 M308.13 111.51 C344.54 70.75, 379.93 29.09, 403.92 1.32 M313.78 111.11 C344.91 74.02, 378.09 36.21, 409.56 0.92 M313.78 111.11 C348.72 69.85, 386.35 28.65, 409.56 0.92 M318.76 111.47 C347.64 75.18, 380.82 37.43, 414.55 1.28 M318.76 111.47 C353.92 73.3, 388.77 32.91, 414.55 1.28 M324.41 111.08 C347.6 88.03, 367.85 59.92, 420.19 0.89 M324.41 111.08 C348.09 81.84, 373.45 54.44, 420.19 0.89 M329.39 111.44 C364.97 71.39, 396.98 35.54, 425.18 1.25 M329.39 111.44 C353.07 86.49, 376.3 59.64, 425.18 1.25 M335.04 111.04 C357 84.15, 382.07 57.5, 430.82 0.85 M335.04 111.04 C355.63 85.67, 379.08 58.36, 430.82 0.85 M340.03 111.4 C361.51 90.21, 381.68 63.6, 435.81 1.21 M340.03 111.4 C372.15 72.91, 404.96 35.91, 435.81 1.21 M345.67 111.01 C375.34 81.67, 400.71 46.18, 441.45 0.82 M345.67 111.01 C373.92 75.72, 402.91 42.57, 441.45 0.82 M350.66 111.37 C376.29 79.26, 403.34 49.1, 446.44 1.18 M350.66 111.37 C373.34 83.95, 398.02 56.18, 446.44 1.18 M356.3 110.97 C375.95 87.3, 399.16 63.17, 452.08 0.79 M356.3 110.97 C382.37 80.24, 410.16 51.14, 452.08 0.79 M361.29 111.33 C396.42 72.82, 430.89 29.83, 457.07 1.15 M361.29 111.33 C392.52 74.23, 423.41 39.05, 457.07 1.15 M366.93 110.94 C390.38 84.29, 413.66 58.65, 462.71 0.75 M366.93 110.94 C400.23 73.42, 432.09 35.98, 462.71 0.75 M371.92 111.3 C400.76 80.35, 430.91 48.29, 467.7 1.11 M371.92 111.3 C391.97 87.26, 412.34 65.04, 467.7 1.11 M377.56 110.9 C406.09 79.05, 433.52 44.58, 473.34 0.72 M377.56 110.9 C408.6 75.55, 439.43 39.09, 473.34 0.72 M382.55 111.26 C416.89 72.14, 454.91 29.24, 478.33 1.08 M382.55 111.26 C405.1 85.35, 428.03 60.34, 478.33 1.08 M388.19 110.87 C411.87 82.82, 437.68 54.27, 483.97 0.68 M388.19 110.87 C414.11 80.81, 441.48 52.33, 483.97 0.68 M393.18 111.23 C422.7 77.48, 453.1 44.1, 488.96 1.04 M393.18 111.23 C419.26 82.06, 445.71 51.46, 488.96 1.04 M398.16 111.59 C432.26 74.54, 463.46 33.18, 493.95 1.4 M398.16 111.59 C417.66 90.05, 437.7 68.19, 493.95 1.4 M403.81 111.2 C430.55 82.51, 458.4 50.56, 499.59 1.01 M403.81 111.2 C431.04 81.65, 457.29 50.53, 499.59 1.01 M408.79 111.56 C437.73 77.84, 472.11 40.14, 504.58 1.37 M408.79 111.56 C443.87 71.84, 478.33 30.8, 504.58 1.37 M414.44 111.16 C441.43 80.29, 467.06 48.84, 510.22 0.97 M414.44 111.16 C444.88 75.5, 476.02 37.77, 510.22 0.97 M419.42 111.52 C449.41 79.93, 477.98 46.18, 514.55 2.09 M419.42 111.52 C440.56 85.36, 463.93 61.2, 514.55 2.09 M425.07 111.13 C457.35 70.1, 493.3 31.95, 518.23 3.96 M425.07 111.13 C445.95 88.58, 466.44 64.68, 518.23 3.96 M430.05 111.49 C456.99 80.57, 487.65 48.18, 521.24 6.58 M430.05 111.49 C452.77 85.18, 475.43 60.2, 521.24 6.58 M435.7 111.09 C456.57 87.1, 473.55 63.68, 524.92 8.45 M435.7 111.09 C457.27 84.24, 479.47 59.2, 524.92 8.45 M440.68 111.45 C469.6 77.13, 496.87 47.56, 527.28 11.83 M440.68 111.45 C465.32 81.37, 490.86 51.2, 527.28 11.83 M446.33 111.06 C478.91 75.6, 511.41 35.99, 528.99 15.96 M446.33 111.06 C464.55 90, 482.91 70.26, 528.99 15.96 M451.31 111.42 C474.88 82.7, 499.65 58.62, 530.04 20.85 M451.31 111.42 C472.99 87.1, 494.24 62.44, 530.04 20.85 M456.96 111.02 C471.57 93.79, 487.2 76.47, 530.43 26.5 M456.96 111.02 C472.76 90.74, 491.04 70.68, 530.43 26.5 M461.94 111.38 C482.05 91.6, 499.79 66.56, 532.8 29.87 M461.94 111.38 C481.54 90.59, 499.66 69.19, 532.8 29.87 M467.59 110.99 C487.09 85.18, 507.48 61.71, 533.19 35.52 M467.59 110.99 C488.66 85.42, 510.24 60.39, 533.19 35.52 M472.57 111.35 C489.11 92.58, 504.47 77.55, 532.93 41.92 M472.57 111.35 C494.09 86.43, 515.41 60.81, 532.93 41.92 M478.22 110.95 C497.55 88.67, 514.55 67.15, 532.67 48.31 M478.22 110.95 C489.56 95.33, 502.96 81.04, 532.67 48.31 M483.2 111.31 C503.62 87.94, 520.59 63.86, 533.06 53.96 M483.2 111.31 C498.69 93.48, 513.17 77.89, 533.06 53.96 M488.85 110.92 C496.75 100.46, 505.37 88.57, 532.8 60.35 M488.85 110.92 C506.32 90.79, 525.01 70.73, 532.8 60.35 M493.83 111.28 C507.75 93.99, 522.45 78.8, 532.54 66.75 M493.83 111.28 C507.67 95.08, 522.94 78.14, 532.54 66.75 M498.82 111.64 C506.93 104.42, 513.53 94.46, 532.94 72.39 M498.82 111.64 C510.93 97.43, 522.88 82.82, 532.94 72.39 M504.46 111.25 C510.81 102.4, 517.35 97.64, 532.67 78.79 M504.46 111.25 C515.15 99.67, 523.75 87.71, 532.67 78.79 M510.76 110.1 C519.16 103.73, 524.53 93.03, 532.41 85.19 M510.76 110.1 C519.9 100.96, 528.41 90.77, 532.41 85.19 M516.41 109.7 C520.31 102.6, 528.4 99.18, 532.81 90.83 M516.41 109.7 C522.1 103.13, 527.96 96.99, 532.81 90.83" stroke="#96f2d7" stroke-width="0.5" fill="none"></path><path d="M27.52 0 C160.2 -0.19, 294.11 0.56, 503.01 0 M27.52 0 C188.1 -1.16, 348.79 -0.98, 503.01 0 M503.01 0 C521.79 0.07, 530.32 8.64, 530.53 27.52 M503.01 0 C520.61 -0.76, 528.24 9.1, 530.53 27.52 M530.53 27.52 C531.38 47.34, 528.97 69.94, 530.53 82.57 M530.53 27.52 C531.57 43.08, 530.39 57.19, 530.53 82.57 M530.53 82.57 C530.63 99.48, 520.07 109.2, 503.01 110.09 M530.53 82.57 C530.55 102.01, 522.25 111.25, 503.01 110.09 M503.01 110.09 C341.35 107.8, 179.55 108.22, 27.52 110.09 M503.01 110.09 C326.21 109.32, 149.15 109.65, 27.52 110.09 M27.52 110.09 C10 110.63, 0.7 100.33, 0 82.57 M27.52 110.09 C8.64 111, -1.6 102.82, 0 82.57 M0 82.57 C0.22 70.4, 1.33 60.08, 0 27.52 M0 82.57 C-0.8 61.41, 1.06 40.28, 0 27.52 M0 27.52 C0.33 10.74, 8.74 1.92, 27.52 0 M0 27.52 C0.8 8.6, 9.33 -1.45, 27.52 0" stroke="#000000" stroke-width="1" fill="none"></path></g><g stroke-linecap="round"><g transform="translate(576.0769230769233 47.21102360799905) rotate(0 75.36781311035145 -0.40349891843720087)"><path d="M-0.59 0.48 C24.69 0.17, 125.33 -0.66, 150.59 -0.97 M1.3 -0.31 C26.5 -0.5, 124.73 0.49, 149.56 0.48" stroke="#1e1e1e" stroke-width="2" fill="none"></path></g><g transform="translate(576.0769230769233 47.21102360799905) rotate(0 75.36781311035145 -0.40349891843720087)"><path d="M126.02 8.91 C131.73 7, 135.63 5.83, 149.56 0.48 M126.02 8.91 C133.03 7.41, 137.39 4.96, 149.56 0.48" stroke="#1e1e1e" stroke-width="2" fill="none"></path></g><g transform="translate(576.0769230769233 47.21102360799905) rotate(0 75.36781311035145 -0.40349891843720087)"><path d="M126.12 -8.19 C131.93 -6.49, 135.81 -4.05, 149.56 0.48 M126.12 -8.19 C132.98 -5.36, 137.33 -3.49, 149.56 0.48" stroke="#1e1e1e" stroke-width="2" fill="none"></path></g></g><mask></mask><g stroke-linecap="round"><g transform="translate(496.0769230769231 76.5) rotate(0 0.5 38.5)"><path d="M-0.2 -1.1 C-0.16 11.81, 0.64 64.22, 0.73 77.23 M-1.76 0.94 C-1.94 13.48, -0.52 62.34, -0.37 75.23" stroke="#1e1e1e" stroke-width="2" fill="none"></path></g><g transform="translate(496.0769230769231 76.5) rotate(0 0.5 38.5)"><path d="M-9.41 51.92 C-8.23 59.36, -2.95 66.55, -0.37 75.23 M-9.41 51.92 C-7.14 59.37, -3.53 65.89, -0.37 75.23" stroke="#1e1e1e" stroke-width="2" fill="none"></path></g><g transform="translate(496.0769230769231 76.5) rotate(0 0.5 38.5)"><path d="M7.69 51.57 C3.09 59.1, 2.58 66.4, -0.37 75.23 M7.69 51.57 C4.85 59.22, 3.36 65.84, -0.37 75.23" stroke="#1e1e1e" stroke-width="2" fill="none"></path></g></g><mask></mask><g stroke-linecap="round"><g transform="translate(727.0769230769231 181.5) rotate(0 -74 1)"><path d="M0.42 0.74 C-24.31 1.16, -124.12 1.71, -148.85 1.92 M-0.82 0.08 C-25.13 0.75, -121.93 2.88, -146.58 3.41" stroke="#1e1e1e" stroke-width="2" fill="none"></path></g><g transform="translate(727.0769230769231 181.5) rotate(0 -74 1)"><path d="M-123.28 -5.65 C-128.19 -4.62, -135.64 -0.81, -146.58 3.41 M-123.28 -5.65 C-130.74 -2.76, -137.84 0.53, -146.58 3.41" stroke="#1e1e1e" stroke-width="2" fill="none"></path></g><g transform="translate(727.0769230769231 181.5) rotate(0 -74 1)"><path d="M-122.91 11.45 C-127.83 8.01, -135.38 7.36, -146.58 3.41 M-122.91 11.45 C-130.46 9.27, -137.67 7.5, -146.58 3.41" stroke="#1e1e1e" stroke-width="2" fill="none"></path></g></g><mask></mask><g stroke-linecap="round"><g transform="translate(495.0769230769231 220.5) rotate(0 0.5 57.5)"><path d="M0.63 -1.02 C0.98 18.1, 1.47 96.18, 1.7 115.65 M-0.5 1.06 C-0.2 19.75, 0.74 95.06, 1.11 113.87" stroke="#1e1e1e" stroke-width="2" fill="none"></path></g><g transform="translate(495.0769230769231 220.5) rotate(0 0.5 57.5)"><path d="M-7.81 90.52 C-6.98 97.78, -1.85 104.43, 1.11 113.87 M-7.81 90.52 C-4.28 98.13, -1.76 106.78, 1.11 113.87" stroke="#1e1e1e" stroke-width="2" fill="none"></path></g><g transform="translate(495.0769230769231 220.5) rotate(0 0.5 57.5)"><path d="M9.29 90.25 C5.62 97.67, 6.25 104.4, 1.11 113.87 M9.29 90.25 C6.53 97.94, 2.78 106.7, 1.11 113.87" stroke="#1e1e1e" stroke-width="2" fill="none"></path></g></g><mask></mask><g stroke-linecap="round"><g transform="translate(196.0769230769231 185.5) rotate(0 109 -1)"><path d="M-1.07 -0.44 C35.21 -0.54, 180.92 -0.93, 217.29 -1.35" stroke="#1e1e1e" stroke-width="2.5" fill="none" stroke-dasharray="8 10"></path></g></g><mask></mask><g transform="translate(633.0769230769231 10) rotate(0 20 12.5)"><text x="0" y="0" font-family="Virgil, Segoe UI Emoji" font-size="20px" fill="#1e1e1e" text-anchor="start" style="white-space: pre;" direction="ltr" dominant-baseline="text-before-edge">探针</text></g><g transform="translate(625.0769230769231 148) rotate(0 40 12.5)"><text x="0" y="0" font-family="Virgil, Segoe UI Emoji" font-size="20px" fill="#1e1e1e" text-anchor="start" style="white-space: pre;" direction="ltr" dominant-baseline="text-before-edge">读取数据</text></g><g transform="translate(340.0769230769231 98) rotate(0 62.139984130859375 12.5)"><text x="0" y="0" font-family="Virgil, Segoe UI Emoji" font-size="20px" fill="#1e1e1e" text-anchor="start" style="white-space: pre;" direction="ltr" dominant-baseline="text-before-edge">Grpc上传信息</text></g><g transform="translate(464.0769230769231 33.5) rotate(0 30 12.5)"><text x="0" y="0" font-family="Virgil, Segoe UI Emoji" font-size="20px" fill="#1e1e1e" text-anchor="start" style="white-space: pre;" direction="ltr" dominant-baseline="text-before-edge">探针层</text></g><g transform="translate(779.0769230769231 33.5) rotate(0 30 12.5)"><text x="0" y="0" font-family="Virgil, Segoe UI Emoji" font-size="20px" fill="#1e1e1e" text-anchor="start" style="white-space: pre;" direction="ltr" dominant-baseline="text-before-edge">应用层</text></g><g transform="translate(781.0769230769231 170.5) rotate(0 30 12.5)"><text x="0" y="0" font-family="Virgil, Segoe UI Emoji" font-size="20px" fill="#1e1e1e" text-anchor="start" style="white-space: pre;" direction="ltr" dominant-baseline="text-before-edge">展示层</text></g><g transform="translate(469.0769230769231 176.5) rotate(0 30 12.5)"><text x="0" y="0" font-family="Virgil, Segoe UI Emoji" font-size="20px" fill="#1e1e1e" text-anchor="start" style="white-space: pre;" direction="ltr" dominant-baseline="text-before-edge">服务层</text></g><g stroke-linecap="round"><g stroke-opacity="0.5" fill-opacity="0.5" transform="translate(451.66977185120004 358.78714216944786) rotate(0 38.45741983035799 34.62493415154995)" fill-rule="evenodd"><path d="M0 0 C0 0, 0 0, 0 0 M0 0 C0 0, 0 0, 0 0 M-0.26 6.4 C3.07 3.47, 3.97 0.49, 8.27 -3.41 M-0.26 6.4 C1.68 4.12, 4.32 2.05, 8.27 -3.41 M0.13 12.04 C4.86 7.39, 6.68 2.68, 14.57 -4.56 M0.13 12.04 C3.85 7.49, 7.94 4.38, 14.57 -4.56 M-0.13 18.44 C3.18 12.66, 8.36 10.24, 20.21 -4.96 M-0.13 18.44 C4.1 13.13, 9.17 9.19, 20.21 -4.96 M0.27 24.08 C8.03 16.44, 14.93 5.11, 25.85 -5.35 M0.27 24.08 C6.71 15.8, 14.07 9.03, 25.85 -5.35 M0 30.48 C8.23 20.43, 17.24 7.98, 31.5 -5.75 M0 30.48 C7.59 22.92, 14.81 13.95, 31.5 -5.75 M-0.26 36.88 C12.88 21.65, 27.19 6.47, 37.14 -6.14 M-0.26 36.88 C13.47 21.8, 26.85 6.82, 37.14 -6.14 M0.14 42.52 C8.72 32.11, 16.35 21.7, 42.13 -5.78 M0.14 42.52 C13.77 28.03, 26.56 12.51, 42.13 -5.78 M-0.12 48.92 C15.42 31.58, 32.03 12.79, 47.11 -5.42 M-0.12 48.92 C17.32 26.51, 36.47 5.68, 47.11 -5.42 M-0.38 55.32 C17.1 37.46, 36.44 14.04, 52.1 -5.06 M-0.38 55.32 C12.26 41.02, 24.39 27.74, 52.1 -5.06 M0.01 60.96 C13.53 43.22, 27.01 27.14, 57.09 -4.7 M0.01 60.96 C18.14 38.95, 35.75 19.77, 57.09 -4.7 M-0.25 67.36 C24.61 40.38, 46.07 14.84, 62.07 -4.34 M-0.25 67.36 C18.05 45.3, 38.99 22.37, 62.07 -4.34 M1.45 71.49 C18.56 49.61, 37.52 32.55, 67.06 -3.98 M1.45 71.49 C18.43 51.7, 35.26 31.81, 67.06 -3.98 M5.79 72.61 C28.8 45.53, 54.69 14.77, 71.39 -2.87 M5.79 72.61 C19.23 56.84, 33.15 40.12, 71.39 -2.87 M10.12 73.72 C37.14 43.41, 63.77 13.61, 75.07 -1 M10.12 73.72 C26.49 55.15, 43.02 35.83, 75.07 -1 M14.45 74.83 C32.04 57.81, 48.81 36.8, 77.43 2.38 M14.45 74.83 C35.5 49.67, 56.62 26.41, 77.43 2.38 M19.43 75.19 C32.69 56.56, 48.3 40.37, 77.17 8.78 M19.43 75.19 C38.22 54.58, 57.75 33, 77.17 8.78 M24.42 75.56 C40.06 61.31, 52.73 41.6, 77.56 14.42 M24.42 75.56 C36.22 63.05, 47.37 49.51, 77.56 14.42 M29.41 75.92 C42.13 62.36, 54.07 49.33, 77.3 20.82 M29.41 75.92 C47.33 55.83, 64.68 35.93, 77.3 20.82 M35.05 75.52 C47.91 60.72, 62.87 42.5, 77.04 27.22 M35.05 75.52 C49.77 60.15, 61.69 43.59, 77.04 27.22 M40.04 75.88 C47.46 64.81, 57.07 57.51, 77.43 32.86 M40.04 75.88 C50.67 63.21, 60.57 50.48, 77.43 32.86 M45.68 75.49 C54.46 64.14, 66.81 49.32, 77.17 39.26 M45.68 75.49 C54.5 64.8, 64.76 53.75, 77.17 39.26 M51.33 75.09 C54.89 70.26, 63.11 60.88, 76.91 45.66 M51.33 75.09 C58.74 67.67, 65.95 59.64, 76.91 45.66 M56.31 75.45 C61.49 71.32, 64.6 64.83, 77.31 51.3 M56.31 75.45 C61.44 68.89, 68.17 61.39, 77.31 51.3 M61.96 75.06 C67.16 69.69, 71.72 66.96, 77.04 57.7 M61.96 75.06 C65.97 69.06, 71.54 64.4, 77.04 57.7 M68.91 73.15 C71.67 70.27, 74.72 68.69, 76.78 64.1 M68.91 73.15 C71.55 69.71, 75.55 65.98, 76.78 64.1" stroke="#be4bdb" stroke-width="0.5" fill="none"></path><path d="M-0.52 0.49 C-0.54 10.9, -0.23 50.62, -0.31 62.22 C-0.4 73.81, -1.78 68.42, -1.02 70.06 C-0.26 71.69, 1.08 71.27, 4.25 72.04 C7.42 72.81, 12.02 74.04, 18.01 74.68 C24 75.32, 32.71 75.77, 40.18 75.89 C47.65 76.01, 56.9 76.08, 62.81 75.4 C68.73 74.71, 73.45 72.95, 75.68 71.78 C77.92 70.6, 76.02 69.86, 76.24 68.34 C76.47 66.83, 76.97 73.34, 77.01 62.69 C77.04 52.05, 76.47 15.05, 76.45 4.46 C76.44 -6.13, 77.93 0.38, 76.9 -0.86 C75.88 -2.1, 72.8 -2.15, 70.3 -2.99 C67.8 -3.82, 67.38 -5.18, 61.88 -5.87 C56.39 -6.55, 44.56 -7.28, 37.34 -7.1 C30.13 -6.92, 24.16 -5.44, 18.6 -4.78 C13.03 -4.12, 6.85 -3.82, 3.92 -3.15 C1 -2.49, 1.74 -1.28, 1.03 -0.78 C0.33 -0.29, -0.3 -0.52, -0.32 -0.19 M1.4 -0.3 C1.2 10.33, -1.55 52.33, -1.56 63.73 C-1.57 75.12, 0.3 66.54, 1.33 68.08 C2.37 69.62, 2.09 71.81, 4.64 72.94 C7.2 74.08, 10.6 74.57, 16.68 74.9 C22.77 75.22, 33.4 74.95, 41.16 74.88 C48.92 74.82, 57.59 75.06, 63.23 74.51 C68.87 73.96, 72.53 72.3, 74.99 71.61 C77.45 70.92, 77.51 71.95, 77.98 70.35 C78.45 68.75, 78.03 72.89, 77.81 62.01 C77.58 51.12, 76.94 15.65, 76.61 5.05 C76.27 -5.55, 76.88 -0.16, 75.77 -1.61 C74.66 -3.05, 72.3 -2.83, 69.94 -3.64 C67.59 -4.45, 67.02 -5.76, 61.64 -6.47 C56.27 -7.19, 44.67 -7.9, 37.7 -7.94 C30.73 -7.98, 25.59 -7.6, 19.81 -6.72 C14.02 -5.84, 6.25 -3.65, 3 -2.66 C-0.25 -1.68, 0.51 -1.25, 0.31 -0.81 C0.11 -0.37, 2.13 -0.17, 1.79 -0.03" stroke="#862e9c" stroke-width="1" fill="none"></path></g></g><mask></mask><g stroke-opacity="0.5" fill-opacity="0.5" stroke-linecap="round" transform="translate(451.1761041092609 351.36044378122347) rotate(0 38.252112724462336 7.736202016062123)"><path d="M0 7.95 C0 7.95, 0 7.95, 0 7.95 M0 7.95 C0 7.95, 0 7.95, 0 7.95 M3.67 9.82 C5.57 7.13, 7.46 5.38, 9.58 3.02 M3.67 9.82 C5.62 7.49, 7.17 5.45, 9.58 3.02 M7.35 11.69 C9.78 9.09, 11.27 7.59, 15.22 2.63 M7.35 11.69 C9.93 9.09, 11.81 6.17, 15.22 2.63 M11.02 13.56 C13.73 10.06, 16.47 6.65, 21.52 1.48 M11.02 13.56 C13.97 10.34, 16.94 7.31, 21.52 1.48 M16.01 13.92 C18.59 10.23, 22.18 7.26, 27.16 1.09 M16.01 13.92 C20.07 9.35, 24.45 4.27, 27.16 1.09 M21 14.28 C24.71 10.86, 26.93 6.65, 32.81 0.69 M21 14.28 C24.84 9.72, 28.57 5.67, 32.81 0.69 M25.98 14.64 C29.43 10.2, 33.93 4.7, 38.45 0.3 M25.98 14.64 C30.34 9.37, 35.29 3.73, 38.45 0.3 M30.31 15.75 C34.24 12.86, 37.88 8.95, 43.44 0.66 M30.31 15.75 C33.33 12.75, 35.51 9.45, 43.44 0.66 M35.96 15.36 C38.76 10.45, 43.31 6.09, 48.42 1.02 M35.96 15.36 C40.49 9.68, 45.36 4.65, 48.42 1.02 M41.6 14.96 C44.44 11.28, 47.68 8.07, 54.07 0.62 M41.6 14.96 C45.35 11.34, 48.58 6.58, 54.07 0.62 M47.24 14.57 C51.81 10.17, 55.7 5.72, 58.4 1.74 M47.24 14.57 C49.79 11.34, 52.11 8.55, 58.4 1.74 M52.23 14.93 C55.45 11.64, 57.99 9.18, 62.73 2.85 M52.23 14.93 C55.67 11.39, 59.23 6.98, 62.73 2.85 M57.87 14.53 C59.83 11.35, 62.34 8.99, 67.71 3.21 M57.87 14.53 C60.1 12.11, 62.89 8.54, 67.71 3.21 M64.17 13.38 C66.75 9.76, 69.44 6.39, 72.05 4.33 M64.17 13.38 C65.89 11.07, 68.26 8.76, 72.05 4.33 M71.13 11.48 C72.32 10.15, 73.56 8.67, 74.41 7.71 M71.13 11.48 C72.15 10.26, 73.19 9.2, 74.41 7.71" stroke="#be4bdb" stroke-width="0.5" fill="none"></path><path d="M29.94 0.29 C37.37 -0.22, 48.6 -0.18, 55.89 0.54 C63.18 1.26, 70.48 2.99, 73.67 4.62 C76.86 6.26, 77.53 8.77, 75.06 10.35 C72.59 11.92, 65.86 13.23, 58.84 14.08 C51.81 14.92, 41.1 15.64, 32.92 15.42 C24.74 15.21, 15.31 14, 9.78 12.81 C4.24 11.62, 0.06 9.99, -0.29 8.27 C-0.63 6.56, 2.44 3.84, 7.73 2.54 C13.02 1.25, 27.35 0.87, 31.45 0.5 C35.55 0.12, 32.27 0.18, 32.32 0.27 M46.05 -0.33 C53.7 -0.1, 62.5 1.24, 67.67 2.72 C72.84 4.21, 77.11 6.79, 77.08 8.57 C77.05 10.36, 72.87 12.37, 67.49 13.43 C62.11 14.49, 52.89 14.74, 44.81 14.93 C36.73 15.12, 26.22 15.29, 19.01 14.6 C11.8 13.9, 4.36 12.24, 1.54 10.75 C-1.29 9.25, -0.98 7.19, 2.05 5.64 C5.07 4.09, 12.43 2.31, 19.69 1.45 C26.94 0.59, 41.39 0.7, 45.56 0.45 C49.73 0.2, 44.97 -0.1, 44.71 -0.04" stroke="#862e9c" stroke-width="1" fill="none"></path></g><g stroke-linecap="round"><g stroke-opacity="0.5" fill-opacity="0.5" transform="translate(595.7593293684706 358.4891612864427) rotate(0 38.45741983035805 34.62493415154995)" fill-rule="evenodd"><path d="M0 0 C0 0, 0 0, 0 0 M0 0 C0 0, 0 0, 0 0 M-0.26 6.4 C3.41 2.58, 5.65 -0.67, 8.27 -3.41 M-0.26 6.4 C2.6 3.29, 4.81 0.29, 8.27 -3.41 M0.13 12.04 C2.51 7.94, 6.61 6.89, 14.57 -4.56 M0.13 12.04 C6.03 6.14, 10.46 -0.44, 14.57 -4.56 M-0.13 18.44 C5.49 14.01, 6.53 9.23, 20.21 -4.96 M-0.13 18.44 C7.36 11.74, 13.69 2.68, 20.21 -4.96 M0.27 24.08 C5.98 15.53, 10.79 11.2, 25.85 -5.35 M0.27 24.08 C8.93 14.16, 16.63 4.83, 25.85 -5.35 M0 30.48 C9.81 18.29, 22.62 4.94, 31.5 -5.75 M0 30.48 C10.12 17.79, 22.43 5.05, 31.5 -5.75 M-0.26 36.88 C10.43 26.86, 21.52 12.74, 37.14 -6.14 M-0.26 36.88 C14.09 21.36, 25.65 6.15, 37.14 -6.14 M0.14 42.52 C10.1 27.82, 23.1 14.51, 42.13 -5.78 M0.14 42.52 C9.52 32, 18.32 21.24, 42.13 -5.78 M-0.12 48.92 C10.62 35.71, 23.04 21.65, 47.11 -5.42 M-0.12 48.92 C15.78 31.43, 31.07 13.79, 47.11 -5.42 M-0.38 55.32 C15.57 37.63, 32.72 17.06, 52.1 -5.06 M-0.38 55.32 C18.77 34.48, 36.69 12.01, 52.1 -5.06 M0.01 60.96 C11.12 47.57, 23.52 33.67, 57.09 -4.7 M0.01 60.96 C20.71 36, 42.87 10.34, 57.09 -4.7 M-0.25 67.36 C12.71 52.38, 24.08 38.84, 62.07 -4.34 M-0.25 67.36 C16.11 46.93, 32.77 28.68, 62.07 -4.34 M1.45 71.49 C16.72 51.89, 33.35 32.69, 67.06 -3.98 M1.45 71.49 C21.88 47.09, 42.45 24.6, 67.06 -3.98 M5.79 72.61 C29.36 45.27, 50.46 21.72, 71.39 -2.87 M5.79 72.61 C19.98 55.52, 36.45 37.4, 71.39 -2.87 M10.12 73.72 C24.5 58.72, 37.07 40.94, 75.07 -1 M10.12 73.72 C31.47 49.98, 50.4 27.19, 75.07 -1 M14.45 74.83 C31.5 57.08, 44.59 41.74, 77.43 2.38 M14.45 74.83 C31.91 54.11, 50.1 36.16, 77.43 2.38 M19.43 75.19 C35.11 57.73, 52.13 38.87, 77.17 8.78 M19.43 75.19 C33.4 59.99, 46.53 43.88, 77.17 8.78 M24.42 75.56 C41.25 55.31, 57.95 34.58, 77.56 14.42 M24.42 75.56 C41.95 55.17, 57.53 35.54, 77.56 14.42 M29.41 75.92 C39.01 62.06, 51.94 47.78, 77.3 20.82 M29.41 75.92 C39.27 63.71, 48.57 53.22, 77.3 20.82 M35.05 75.52 C50.52 57.84, 64.26 44.04, 77.04 27.22 M35.05 75.52 C46.59 61.71, 58.33 49.25, 77.04 27.22 M40.04 75.88 C51.02 62.34, 66.46 46.97, 77.43 32.86 M40.04 75.88 C52.54 61.16, 66.23 47.49, 77.43 32.86 M45.68 75.49 C57.77 65.17, 65.23 52.22, 77.17 39.26 M45.68 75.49 C57.52 61.28, 68.91 49.75, 77.17 39.26 M51.33 75.09 C60.34 62.44, 69.84 54.22, 76.91 45.66 M51.33 75.09 C56.42 68.18, 62.25 60.79, 76.91 45.66 M56.31 75.45 C61.77 68.9, 68.14 63.76, 77.31 51.3 M56.31 75.45 C63.15 66.08, 71.09 56.45, 77.31 51.3 M61.96 75.06 C67.99 68.52, 74.04 61.77, 77.04 57.7 M61.96 75.06 C66.63 70.2, 71.03 64.79, 77.04 57.7 M68.91 73.15 C70.55 68.96, 74.94 67.4, 76.78 64.1 M68.91 73.15 C71.11 70.99, 72.09 69.77, 76.78 64.1" stroke="#be4bdb" stroke-width="0.5" fill="none"></path><path d="M-0.79 0.8 C-0.75 11.15, -0.98 51.52, -0.65 62.76 C-0.32 74, 0.53 66.49, 1.2 68.22 C1.87 69.96, 0.65 72.1, 3.37 73.19 C6.09 74.27, 11.2 74.41, 17.52 74.73 C23.84 75.06, 33.77 75.01, 41.3 75.14 C48.83 75.27, 57.03 76.31, 62.68 75.52 C68.33 74.73, 73 71.64, 75.18 70.4 C77.36 69.15, 75.45 69.25, 75.78 68.06 C76.1 66.87, 77.08 73.85, 77.12 63.28 C77.15 52.71, 76.18 15.06, 76.01 4.65 C75.84 -5.75, 76.89 2.04, 76.1 0.85 C75.32 -0.35, 73.61 -1.53, 71.28 -2.49 C68.95 -3.46, 67.76 -4.1, 62.12 -4.94 C56.47 -5.78, 44.76 -7.49, 37.41 -7.53 C30.07 -7.56, 23.57 -6.1, 18.04 -5.17 C12.5 -4.25, 7.38 -2.95, 4.19 -1.97 C1.01 -0.99, -0.36 0.5, -1.08 0.7 C-1.79 0.91, -0.26 -0.51, -0.09 -0.71 M0.99 0.17 C1.49 10.1, 1.58 49.43, 1.59 60.9 C1.6 72.36, 0.77 67.26, 1.06 68.95 C1.34 70.64, 0.83 70.03, 3.31 71.03 C5.79 72.04, 9.96 73.92, 15.94 74.98 C21.92 76.04, 31.36 77.46, 39.21 77.41 C47.05 77.36, 57.19 75.4, 63.03 74.7 C68.86 73.99, 71.85 73.96, 74.22 73.17 C76.59 72.37, 76.64 71.63, 77.27 69.92 C77.89 68.21, 78.19 73.66, 77.97 62.9 C77.74 52.13, 76.49 15.66, 75.92 5.34 C75.36 -4.98, 75.3 2.37, 74.56 1 C73.81 -0.38, 73.54 -1.88, 71.44 -2.89 C69.35 -3.9, 67.6 -4.72, 61.99 -5.06 C56.39 -5.4, 44.99 -4.55, 37.81 -4.93 C30.64 -5.3, 24.69 -7.99, 18.96 -7.31 C13.22 -6.64, 6.45 -2.31, 3.41 -0.85 C0.38 0.61, 1.57 1.46, 0.75 1.46 C-0.07 1.47, -1.47 -0.77, -1.53 -0.83" stroke="#862e9c" stroke-width="1" fill="none"></path></g></g><mask></mask><g stroke-opacity="0.5" fill-opacity="0.5" stroke-linecap="round" transform="translate(595.2656616265315 351.0624628982183) rotate(0 38.252112724462336 7.736202016062123)"><path d="M3.33 4.22 C3.33 4.22, 3.33 4.22, 3.33 4.22 M3.33 4.22 C3.33 4.22, 3.33 4.22, 3.33 4.22 M3.07 10.61 C5.28 8.86, 6.51 6.94, 9.63 3.07 M3.07 10.61 C5.34 7.68, 7.66 5.13, 9.63 3.07 M7.4 11.73 C10.6 8.24, 13.72 4.91, 15.93 1.92 M7.4 11.73 C10.52 7.61, 14.12 4.22, 15.93 1.92 M11.73 12.84 C15.21 9.56, 17.81 6.3, 22.22 0.77 M11.73 12.84 C15.2 9.26, 18.32 4.94, 22.22 0.77 M15.4 14.71 C18.3 12.04, 20.94 8.6, 27.87 0.37 M15.4 14.71 C18.15 10.98, 21.04 7.49, 27.87 0.37 M21.05 14.32 C24.08 10.39, 27.81 5.47, 32.85 0.73 M21.05 14.32 C25.38 9.03, 30.16 3.88, 32.85 0.73 M26.03 14.68 C28.1 10.72, 32.38 7.29, 38.5 0.34 M26.03 14.68 C30.16 9.78, 34.35 5.1, 38.5 0.34 M31.02 15.04 C34.33 12.29, 35.84 9.5, 43.48 0.7 M31.02 15.04 C35.29 10.49, 39.22 5.29, 43.48 0.7 M36.01 15.4 C39.49 12.07, 42.39 7.57, 49.13 0.31 M36.01 15.4 C40.01 10.27, 44.09 5.95, 49.13 0.31 M41.65 15.01 C44.73 11.91, 49.35 7.06, 54.11 0.67 M41.65 15.01 C44.47 11.4, 47.49 8.32, 54.11 0.67 M46.64 15.37 C50.91 10.9, 54.28 6.6, 58.45 1.78 M46.64 15.37 C49.79 11.89, 52.76 8.39, 58.45 1.78 M52.28 14.97 C54.78 12.01, 57.25 9.32, 63.43 2.14 M52.28 14.97 C55.48 11.59, 58.18 7.54, 63.43 2.14 M57.92 14.58 C61.32 10.49, 65.09 6.68, 67.76 3.26 M57.92 14.58 C60.22 11.92, 61.72 10.19, 67.76 3.26 M63.57 14.18 C65.82 11.58, 67.86 9.24, 71.44 5.12 M63.57 14.18 C66.64 10.54, 69.38 6.98, 71.44 5.12 M71.18 11.52 C72.8 9.78, 73.87 8.25, 75.11 6.99 M71.18 11.52 C72.43 10.21, 73.25 9.03, 75.11 6.99" stroke="#be4bdb" stroke-width="0.5" fill="none"></path><path d="M47.93 0.15 C55.66 0.5, 64.45 2.01, 69.15 3.33 C73.84 4.65, 76.63 6.42, 76.12 8.06 C75.62 9.7, 71.84 12.01, 66.11 13.18 C60.37 14.34, 49.99 14.87, 41.71 15.04 C33.43 15.21, 23.14 15.12, 16.45 14.2 C9.75 13.29, 3.73 11.15, 1.51 9.53 C-0.71 7.91, -0.31 5.93, 3.11 4.46 C6.53 3, 14.35 1.33, 22.03 0.72 C29.72 0.1, 44.56 0.79, 49.22 0.77 C53.87 0.75, 50.25 0.55, 49.95 0.59 M41.64 0.51 C49.33 0.43, 59.94 0.86, 65.74 1.92 C71.53 2.99, 75.91 5.25, 76.38 6.89 C76.85 8.54, 73.4 10.38, 68.56 11.8 C63.71 13.23, 55.22 15.09, 47.3 15.47 C39.38 15.85, 28.3 14.87, 21.02 14.08 C13.75 13.29, 7.02 12.06, 3.64 10.75 C0.27 9.43, -1.48 7.85, 0.78 6.19 C3.03 4.54, 10.26 1.95, 17.15 0.82 C24.04 -0.32, 37.92 -0.53, 42.11 -0.62 C46.3 -0.72, 42.23 -0.02, 42.29 0.25" stroke="#862e9c" stroke-width="1" fill="none"></path></g><g stroke-linecap="round"><g stroke-opacity="0.5" fill-opacity="0.5" transform="translate(731.7593293684711 355.4891612864427) rotate(0 38.45741983035805 34.62493415154995)" fill-rule="evenodd"><path d="M0 0 C0 0, 0 0, 0 0 M0 0 C0 0, 0 0, 0 0 M-0.26 6.4 C1.56 4.03, 3.47 0.69, 5.64 -0.39 M-0.26 6.4 C0.8 5.23, 2.09 3.2, 5.64 -0.39 M0.13 12.04 C5.62 9.37, 7.5 1.38, 12.6 -2.3 M0.13 12.04 C4.54 7.33, 7.87 3.48, 12.6 -2.3 M-0.13 18.44 C3.98 14.31, 10.22 6.13, 18.24 -2.69 M-0.13 18.44 C4.07 12.32, 9.87 7.1, 18.24 -2.69 M0.27 24.08 C6.38 13.35, 14.86 5.91, 23.88 -3.09 M0.27 24.08 C8.91 13.52, 16.82 4.89, 23.88 -3.09 M0 30.48 C9.34 19.73, 21.74 7.01, 29.53 -3.48 M0 30.48 C7.42 22.93, 14.17 14.03, 29.53 -3.48 M-0.26 36.88 C12.9 23.3, 24.64 8.41, 37.14 -6.14 M-0.26 36.88 C11.4 24.36, 21.56 13.15, 37.14 -6.14 M0.14 42.52 C12.27 32.37, 21.84 16.59, 42.13 -5.78 M0.14 42.52 C9.2 30.74, 20.82 18.02, 42.13 -5.78 M-0.12 48.92 C16.46 31.86, 34.92 8.93, 47.11 -5.42 M-0.12 48.92 C18.17 28.64, 36.18 6.59, 47.11 -5.42 M-0.38 55.32 C15.98 33.6, 33.47 17.14, 52.1 -5.06 M-0.38 55.32 C17.92 35.33, 35.45 15.67, 52.1 -5.06 M0.01 60.96 C18.67 36.88, 41.69 17.76, 57.09 -4.7 M0.01 60.96 C17.68 40.85, 34.81 20.98, 57.09 -4.7 M-0.25 67.36 C19.8 44.38, 37.69 24.23, 62.07 -4.34 M-0.25 67.36 C14.82 52.28, 27.62 35.34, 62.07 -4.34 M1.45 71.49 C16.29 54.65, 31.9 36.18, 67.06 -3.98 M1.45 71.49 C23.97 43.8, 48.69 16.31, 67.06 -3.98 M5.79 72.61 C18.79 56.11, 32.26 41.22, 70.08 -1.36 M5.79 72.61 C18.98 55.57, 33.89 40.06, 70.08 -1.36 M10.12 73.72 C25.25 53.94, 44.44 34.93, 74.41 -0.24 M10.12 73.72 C34.71 45.34, 59.98 16.51, 74.41 -0.24 M14.45 74.83 C34.34 56.31, 50.69 35.78, 78.74 0.87 M14.45 74.83 C28.78 57.67, 43.82 40.32, 78.74 0.87 M18.78 75.95 C31.99 59.28, 44.59 47.39, 79.14 6.52 M18.78 75.95 C38.72 52.79, 57.76 29.53, 79.14 6.52 M23.77 76.31 C44.1 51.78, 67.02 25.97, 78.87 12.91 M23.77 76.31 C45.69 50.96, 66.77 26.6, 78.87 12.91 M29.41 75.92 C38.34 64.13, 51.02 52.07, 78.61 19.31 M29.41 75.92 C42.88 61.62, 54.54 47.49, 78.61 19.31 M34.4 76.28 C44.2 62.14, 55.71 49.82, 79.01 24.96 M34.4 76.28 C44.5 65.97, 53.8 53.46, 79.01 24.96 M39.38 76.64 C51.05 60.85, 67.06 46.32, 78.75 31.35 M39.38 76.64 C50.62 63.05, 63.55 49.02, 78.75 31.35 M43.71 77.75 C54.95 67.8, 63.51 56.45, 78.48 37.75 M43.71 77.75 C53.61 66.86, 63.38 55.37, 78.48 37.75 M49.36 77.36 C61.24 65.31, 72.79 53.35, 78.88 43.39 M49.36 77.36 C59.64 65.53, 70.66 52.37, 78.88 43.39 M54.34 77.72 C59.9 71.85, 64.4 66.63, 78.62 49.79 M54.34 77.72 C61.23 68.53, 70.42 59.25, 78.62 49.79 M59.99 77.32 C66.32 71.18, 70.65 63.91, 78.36 56.19 M59.99 77.32 C65.44 71.26, 69.85 66.75, 78.36 56.19 M65.63 76.93 C69.72 71.65, 75.46 64.86, 78.75 61.83 M65.63 76.93 C69.87 71.7, 72.48 67.51, 78.75 61.83" stroke="#be4bdb" stroke-width="0.5" fill="none"></path><path d="M-0.9 0.43 C-1.19 10.85, -0.52 50.78, -0.55 62.38 C-0.58 73.99, -1.7 68.34, -1.07 70.04 C-0.43 71.74, 0.15 71.9, 3.25 72.59 C6.36 73.28, 11.14 73.67, 17.56 74.16 C23.97 74.64, 34.08 75.5, 41.74 75.5 C49.4 75.51, 58.07 75.04, 63.52 74.17 C68.96 73.3, 72.4 71.08, 74.41 70.28 C76.42 69.47, 75.24 70.41, 75.58 69.33 C75.92 68.25, 76.4 74.61, 76.44 63.8 C76.49 53, 75.93 15.32, 75.85 4.5 C75.76 -6.32, 76.74 0.16, 75.95 -1.12 C75.17 -2.4, 73.72 -2.65, 71.14 -3.2 C68.55 -3.75, 66.12 -3.72, 60.43 -4.42 C54.74 -5.12, 44.02 -7.23, 37 -7.41 C29.99 -7.59, 23.86 -6.14, 18.33 -5.5 C12.79 -4.86, 7.02 -4.54, 3.81 -3.58 C0.6 -2.62, -0.1 -0.25, -0.93 0.26 C-1.76 0.76, -1.36 -0.39, -1.16 -0.55 M0.82 -0.39 C0.82 10.26, 1.66 52.58, 1.74 63.98 C1.81 75.39, 1.03 66.42, 1.26 68.05 C1.49 69.69, 0.67 72.78, 3.13 73.79 C5.58 74.79, 9.87 74.01, 15.99 74.1 C22.12 74.18, 31.82 73.93, 39.87 74.3 C47.93 74.67, 58.17 76.51, 64.31 76.29 C70.44 76.08, 74.59 74.33, 76.7 72.98 C78.81 71.63, 76.93 69.75, 76.97 68.2 C77.01 66.66, 77.16 74.21, 76.94 63.7 C76.73 53.18, 75.51 16.06, 75.68 5.11 C75.85 -5.84, 78.73 -0.49, 77.98 -2 C77.24 -3.51, 74.31 -3.58, 71.22 -3.96 C68.13 -4.34, 65.1 -4.13, 59.43 -4.26 C53.75 -4.39, 43.86 -4.76, 37.19 -4.75 C30.52 -4.73, 25.12 -4.39, 19.4 -4.15 C13.67 -3.91, 5.9 -4.13, 2.83 -3.31 C-0.24 -2.48, 1.36 0.32, 0.97 0.78 C0.59 1.23, 0.52 -0.59, 0.51 -0.58" stroke="#862e9c" stroke-width="1" fill="none"></path></g></g><mask></mask><g stroke-opacity="0.5" fill-opacity="0.5" stroke-linecap="round" transform="translate(731.2656616265319 348.0624628982183) rotate(0 38.252112724462336 7.736202016062123)"><path d="M-0.14 7.83 C-0.14 7.83, -0.14 7.83, -0.14 7.83 M-0.14 7.83 C-0.14 7.83, -0.14 7.83, -0.14 7.83 M3.54 9.7 C5.34 7.25, 7.84 4.73, 9.44 2.91 M3.54 9.7 C5.68 7.43, 7.51 5.47, 9.44 2.91 M7.21 11.57 C9.02 8.96, 11.08 6.66, 15.08 2.51 M7.21 11.57 C8.95 9.64, 10.92 7.28, 15.08 2.51 M10.89 13.44 C13.18 11.4, 14.68 8.16, 21.38 1.36 M10.89 13.44 C14.07 10.34, 16.84 6.59, 21.38 1.36 M15.87 13.8 C18.79 10.18, 21.84 6.88, 27.03 0.97 M15.87 13.8 C19.59 9.7, 23.27 5.12, 27.03 0.97 M20.86 14.16 C24.73 9.19, 28.5 4.83, 32.67 0.57 M20.86 14.16 C25.64 8.75, 29.83 3.74, 32.67 0.57 M25.85 14.52 C29.46 8.84, 35.34 4.87, 37.66 0.93 M25.85 14.52 C28.1 11.72, 31.08 8.11, 37.66 0.93 M30.18 15.63 C32.93 12.31, 36.97 6.59, 42.64 1.29 M30.18 15.63 C33.34 11.98, 36.45 7.91, 42.64 1.29 M35.82 15.24 C39.46 12.26, 41.94 8.31, 48.29 0.9 M35.82 15.24 C40.93 9.91, 44.95 4.1, 48.29 0.9 M41.46 14.84 C44.98 11.82, 46.92 8.85, 53.27 1.26 M41.46 14.84 C45.44 10.55, 49.23 6.19, 53.27 1.26 M46.45 15.2 C51.02 9.15, 54.92 3.71, 58.26 1.62 M46.45 15.2 C50.24 10.46, 54.71 5.94, 58.26 1.62 M52.09 14.81 C55.44 12.06, 58.46 8.83, 62.59 2.73 M52.09 14.81 C54.61 11.47, 57.14 8.47, 62.59 2.73 M57.74 14.41 C59.97 11.25, 62.53 9.78, 66.92 3.85 M57.74 14.41 C60.04 11.71, 62.36 9.45, 66.92 3.85 M64.04 13.27 C65.7 11.65, 68.01 9.34, 71.25 4.96 M64.04 13.27 C66.4 10.55, 68.27 8.25, 71.25 4.96 M70.99 11.36 C72.41 9.67, 73.75 8.29, 74.27 7.59 M70.99 11.36 C71.91 10.11, 72.94 9.02, 74.27 7.59" stroke="#be4bdb" stroke-width="0.5" fill="none"></path><path d="M29.78 0.12 C37.16 -0.23, 48.06 0.37, 55.32 1.15 C62.58 1.94, 70.13 3.41, 73.36 4.84 C76.58 6.27, 77.13 8.25, 74.66 9.74 C72.2 11.23, 65.37 12.85, 58.54 13.76 C51.72 14.67, 41.73 15.39, 33.73 15.2 C25.72 15.01, 16.17 13.82, 10.51 12.62 C4.84 11.41, 0.27 9.57, -0.25 7.96 C-0.77 6.35, 2.18 4.3, 7.38 2.95 C12.58 1.61, 26.76 0.37, 30.95 -0.09 C35.13 -0.56, 32.44 -0.03, 32.49 0.14 M39.12 0.19 C46.75 0.19, 57 0.65, 63.19 1.66 C69.39 2.66, 74.94 4.64, 76.3 6.24 C77.66 7.84, 75.87 9.72, 71.36 11.28 C66.86 12.84, 57.25 14.89, 49.29 15.59 C41.33 16.28, 31.19 16.26, 23.61 15.47 C16.02 14.68, 7.49 12.42, 3.8 10.85 C0.1 9.29, -0.48 7.71, 1.45 6.08 C3.38 4.45, 9 2.08, 15.36 1.08 C21.73 0.08, 35.64 0.15, 39.62 0.08 C43.6 0.01, 39.14 0.57, 39.23 0.66" stroke="#862e9c" stroke-width="1" fill="none"></path></g><g transform="translate(475.0769230769231 387.5) rotate(0 12.819992065429688 12.5)"><text x="0" y="0" font-family="Virgil, Segoe UI Emoji" font-size="20px" fill="#1e1e1e" text-anchor="start" style="white-space: pre;" direction="ltr" dominant-baseline="text-before-edge">ES</text></g><g transform="translate(620.0769230769231 384.5) rotate(0 15.069992065429688 12.5)"><text x="0" y="0" font-family="Virgil, Segoe UI Emoji" font-size="20px" fill="#1e1e1e" text-anchor="start" style="white-space: pre;" direction="ltr" dominant-baseline="text-before-edge">DB</text></g><g transform="translate(747.0769230769231 386.5) rotate(0 25.559974670410156 12.5)"><text x="0" y="0" font-family="Virgil, Segoe UI Emoji" font-size="20px" fill="#1e1e1e" text-anchor="start" style="white-space: pre;" direction="ltr" dominant-baseline="text-before-edge">Redis</text></g><g transform="translate(841.0769230769231 390.5) rotate(0 0.00004999999998744897 0.00004999999998744897)" stroke="none"><path fill="#1e1e1e" d="M 3.14,-3.14 Q 3.14,-3.14 3.55,-2.55 3.97,-1.97 4.18,-1.28 4.40,-0.59 4.38,0.11 4.36,0.83 4.11,1.51 3.86,2.18 3.41,2.74 2.96,3.30 2.36,3.69 1.75,4.08 1.05,4.25 0.36,4.42 -0.35,4.36 -1.07,4.31 -1.73,4.02 -2.39,3.74 -2.92,3.26 -3.46,2.78 -3.81,2.15 -4.16,1.53 -4.30,0.82 -4.43,0.11 -4.34,-0.59 -4.24,-1.30 -3.92,-1.94 -3.60,-2.59 -3.09,-3.09 -2.59,-3.60 -1.94,-3.92 -1.30,-4.24 -0.59,-4.34 0.12,-4.43 0.82,-4.30 1.53,-4.16 2.15,-3.81 2.78,-3.46 3.26,-2.92 3.74,-2.39 4.02,-1.73 4.31,-1.07 4.36,-0.35 4.42,0.36 4.25,1.05 4.07,1.75 3.69,2.36 3.30,2.96 2.74,3.41 2.18,3.86 1.51,4.11 0.83,4.36 0.11,4.38 -0.60,4.40 -1.28,4.18 -1.97,3.97 -2.55,3.55 -3.14,3.13 -3.14,3.14 -3.14,3.14 -3.47,2.71 -3.80,2.29 -4.02,1.80 -4.24,1.32 -4.33,0.79 -4.43,0.26 -4.40,-0.26 -4.36,-0.80 -4.20,-1.31 -4.04,-1.82 -3.77,-2.28 -3.49,-2.73 -3.11,-3.11 -2.73,-3.49 -2.28,-3.77 -1.82,-4.05 -1.31,-4.20 -0.80,-4.36 -0.26,-4.40 0.26,-4.43 0.79,-4.33 1.32,-4.24 1.80,-4.02 2.29,-3.80 2.71,-3.47 3.14,-3.14 3.14,-3.14 L 3.14,-3.14 Z"></path></g><g transform="translate(863.0769230769231 389.5) rotate(0 0.00004999999998744897 0.00004999999998744897)" stroke="none"><path fill="#1e1e1e" d="M 3.14,-3.14 Q 3.14,-3.14 3.55,-2.55 3.97,-1.97 4.18,-1.28 4.40,-0.59 4.38,0.11 4.36,0.83 4.11,1.51 3.86,2.18 3.41,2.74 2.96,3.30 2.36,3.69 1.75,4.08 1.05,4.25 0.36,4.42 -0.35,4.36 -1.07,4.31 -1.73,4.02 -2.39,3.74 -2.92,3.26 -3.46,2.78 -3.81,2.15 -4.16,1.53 -4.30,0.82 -4.43,0.11 -4.34,-0.59 -4.24,-1.30 -3.92,-1.94 -3.60,-2.59 -3.09,-3.09 -2.59,-3.60 -1.94,-3.92 -1.30,-4.24 -0.59,-4.34 0.12,-4.43 0.82,-4.30 1.53,-4.16 2.15,-3.81 2.78,-3.46 3.26,-2.92 3.74,-2.39 4.02,-1.73 4.31,-1.07 4.36,-0.35 4.42,0.36 4.25,1.05 4.07,1.75 3.69,2.36 3.30,2.96 2.74,3.41 2.18,3.86 1.51,4.11 0.83,4.36 0.11,4.38 -0.60,4.40 -1.28,4.18 -1.97,3.97 -2.55,3.55 -3.14,3.13 -3.14,3.14 -3.14,3.14 -3.47,2.71 -3.80,2.29 -4.02,1.80 -4.24,1.32 -4.33,0.79 -4.43,0.26 -4.40,-0.26 -4.36,-0.80 -4.20,-1.31 -4.04,-1.82 -3.77,-2.28 -3.49,-2.73 -3.11,-3.11 -2.73,-3.49 -2.28,-3.77 -1.82,-4.05 -1.31,-4.20 -0.80,-4.36 -0.26,-4.40 0.26,-4.43 0.79,-4.33 1.32,-4.24 1.80,-4.02 2.29,-3.80 2.71,-3.47 3.14,-3.14 3.14,-3.14 L 3.14,-3.14 Z"></path></g><g transform="translate(885.0769230769231 389.5) rotate(0 0.00004999999998744897 0.00004999999998744897)" stroke="none"><path fill="#1e1e1e" d="M 3.14,-3.14 Q 3.14,-3.14 3.55,-2.55 3.97,-1.97 4.18,-1.28 4.40,-0.59 4.38,0.11 4.36,0.83 4.11,1.51 3.86,2.18 3.41,2.74 2.96,3.30 2.36,3.69 1.75,4.08 1.05,4.25 0.36,4.42 -0.35,4.36 -1.07,4.31 -1.73,4.02 -2.39,3.74 -2.92,3.26 -3.46,2.78 -3.81,2.15 -4.16,1.53 -4.30,0.82 -4.43,0.11 -4.34,-0.59 -4.24,-1.30 -3.92,-1.94 -3.60,-2.59 -3.09,-3.09 -2.59,-3.60 -1.94,-3.92 -1.30,-4.24 -0.59,-4.34 0.12,-4.43 0.82,-4.30 1.53,-4.16 2.15,-3.81 2.78,-3.46 3.26,-2.92 3.74,-2.39 4.02,-1.73 4.31,-1.07 4.36,-0.35 4.42,0.36 4.25,1.05 4.07,1.75 3.69,2.36 3.30,2.96 2.74,3.41 2.18,3.86 1.51,4.11 0.83,4.36 0.11,4.38 -0.60,4.40 -1.28,4.18 -1.97,3.97 -2.55,3.55 -3.14,3.13 -3.14,3.14 -3.14,3.14 -3.47,2.71 -3.80,2.29 -4.02,1.80 -4.24,1.32 -4.33,0.79 -4.43,0.26 -4.40,-0.26 -4.36,-0.80 -4.20,-1.31 -4.04,-1.82 -3.77,-2.28 -3.49,-2.73 -3.11,-3.11 -2.73,-3.49 -2.28,-3.77 -1.82,-4.05 -1.31,-4.20 -0.80,-4.36 -0.26,-4.40 0.26,-4.43 0.79,-4.33 1.32,-4.24 1.80,-4.02 2.29,-3.80 2.71,-3.47 3.14,-3.14 3.14,-3.14 L 3.14,-3.14 Z"></path></g></svg>